<?xml version="1.0" encoding="utf-8"?>
<!-- Generator: Adobe Illustrator 16.0.0, SVG Export Plug-In . SVG Version: 6.00 Build 0)  -->
<!DOCTYPE svg PUBLIC "-//W3C//DTD SVG 1.1//EN" "http://www.w3.org/Graphics/SVG/1.1/DTD/svg11.dtd">
<svg version="1.1" id="圖層_1" xmlns="http://www.w3.org/2000/svg" xmlns:xlink="http://www.w3.org/1999/xlink" x="0px" y="0px"
	 width="22px" height="24px" viewBox="0 0 22 24" enable-background="new 0 0 22 24" xml:space="preserve">
<g>
	<g>
		<path fill="#808080" d="M6.109,17.502v3.668h9.781v-3.668v-2.445H6.109V17.502z M7.332,16.279h7.336v1.223H7.332V16.279z
			 M7.332,18.725h7.336v1.223H7.332V18.725z"/>
		<polygon fill="#808080" points="15.891,6.498 15.891,2.83 6.109,2.83 6.109,6.498 6.109,8.943 15.891,8.943 		"/>
		<path fill="#808080" d="M18.336,6.498h-1.223v2.445v1.223H4.887V8.943V6.498H3.664c-1.223,0-2.445,1.225-2.445,2.445v6.113
			c0,1.223,1.223,2.445,2.445,2.445h1.223v-2.445v-1.223h12.227v1.223v2.445h1.223c1.223,0,2.445-1.223,2.445-2.445V8.943
			C20.781,7.723,19.559,6.498,18.336,6.498z"/>
	</g>
</g>
</svg>
