<?xml version="1.0" encoding="utf-8"?>
<!-- Generator: Adobe Illustrator 16.0.0, SVG Export Plug-In . SVG Version: 6.00 Build 0)  -->
<!DOCTYPE svg PUBLIC "-//W3C//DTD SVG 1.1//EN" "http://www.w3.org/Graphics/SVG/1.1/DTD/svg11.dtd">
<svg version="1.1" id="圖層_1" xmlns="http://www.w3.org/2000/svg" xmlns:xlink="http://www.w3.org/1999/xlink" x="0px" y="0px"
	 width="22px" height="24px" viewBox="0 0 22 24" enable-background="new 0 0 22 24" xml:space="preserve">
<path fill="#808080" d="M20.838,17.692c0.042,0.319-0.055,0.598-0.291,0.833l-2.772,2.753c-0.126,0.138-0.29,0.257-0.491,0.354
	c-0.201,0.097-0.399,0.159-0.594,0.188c-0.014,0-0.056,0.004-0.125,0.011c-0.069,0.005-0.16,0.01-0.271,0.01
	c-0.264,0-0.691-0.045-1.282-0.135c-0.591-0.091-1.313-0.313-2.169-0.669c-0.854-0.354-1.824-0.886-2.908-1.594
	c-1.084-0.709-2.237-1.683-3.461-2.919c-0.973-0.959-1.779-1.876-2.418-2.752c-0.64-0.875-1.154-1.686-1.543-2.43
	C2.122,10.6,1.83,9.926,1.636,9.32C1.441,8.717,1.31,8.195,1.24,7.757C1.17,7.319,1.143,6.975,1.156,6.726
	c0.014-0.251,0.021-0.39,0.021-0.417c0.027-0.194,0.09-0.393,0.188-0.594C1.463,5.512,1.58,5.35,1.719,5.225l2.773-2.773
	c0.195-0.194,0.417-0.292,0.667-0.292c0.181,0,0.341,0.052,0.479,0.157c0.14,0.103,0.258,0.232,0.354,0.385l2.231,4.232
	c0.125,0.223,0.159,0.466,0.104,0.73C8.273,7.928,8.154,8.149,7.975,8.33L6.953,9.352C6.924,9.38,6.9,9.425,6.879,9.488
	C6.858,9.551,6.848,9.602,6.848,9.645c0.057,0.291,0.182,0.625,0.376,1.001c0.167,0.333,0.424,0.739,0.772,1.219
	c0.346,0.48,0.84,1.033,1.479,1.657c0.626,0.64,1.181,1.137,1.668,1.491c0.486,0.354,0.894,0.615,1.22,0.781
	c0.326,0.167,0.576,0.269,0.751,0.303l0.261,0.052c0.026,0,0.072-0.01,0.135-0.031c0.063-0.021,0.107-0.044,0.135-0.072l1.189-1.211
	c0.25-0.221,0.542-0.332,0.875-0.332c0.236,0,0.424,0.041,0.563,0.125h0.021l4.023,2.377C20.609,17.185,20.783,17.413,20.838,17.692
	z"/>
</svg>
