<?xml version="1.0" encoding="utf-8"?>
<!-- Generator: Adobe Illustrator 16.0.0, SVG Export Plug-In . SVG Version: 6.00 Build 0)  -->
<!DOCTYPE svg PUBLIC "-//W3C//DTD SVG 1.1//EN" "http://www.w3.org/Graphics/SVG/1.1/DTD/svg11.dtd">
<svg version="1.1" id="圖層_1" xmlns="http://www.w3.org/2000/svg" xmlns:xlink="http://www.w3.org/1999/xlink" x="0px" y="0px"
	 width="42.668px" height="42.666px" viewBox="0 0 42.668 42.666" enable-background="new 0 0 42.668 42.666" xml:space="preserve">
<circle fill="#FFFFFF" stroke="#ACACAC" stroke-miterlimit="10" cx="21.334" cy="21.333" r="20.834"/>
<g>
	<path fill="#008A3A" d="M18.195,34.061c0.179-1.77,0.305-3.248,0.377-4.439c0.12-1.886,0.225-4.061,0.314-6.524
		s0.153-4.804,0.188-7.021c1.148,0.023,2.01,0.035,2.584,0.035c0.527,0,1.382-0.012,2.566-0.035
		c-0.16,2.051-0.288,4.008-0.384,5.871s-0.168,3.996-0.213,6.401s-0.068,4.309-0.068,5.712c-1.074-0.023-1.936-0.035-2.584-0.035
		C20.36,34.025,19.434,34.037,18.195,34.061z M19.163,13c0.047-1.215,0.071-2.146,0.071-2.795V9.64
		c1.073,0.024,1.945,0.035,2.617,0.035c0.919,0,1.774-0.011,2.564-0.035c-0.035,0.295-0.059,0.631-0.071,1.008L24.256,13
		c-0.896-0.023-1.721-0.036-2.476-0.036S20.153,12.977,19.163,13z"/>
</g>
</svg>
