<?xml version="1.0" encoding="utf-8"?>
<!-- Generator: Adobe Illustrator 16.0.0, SVG Export Plug-In . SVG Version: 6.00 Build 0)  -->
<!DOCTYPE svg PUBLIC "-//W3C//DTD SVG 1.1//EN" "http://www.w3.org/Graphics/SVG/1.1/DTD/svg11.dtd">
<svg version="1.1" id="圖層_1" xmlns="http://www.w3.org/2000/svg" xmlns:xlink="http://www.w3.org/1999/xlink" x="0px" y="0px"
	 width="58px" height="52px" viewBox="0 0 58 52" enable-background="new 0 0 58 52" xml:space="preserve">
<rect fill="#666666" width="58" height="52"/>
<g>
	<path fill="#FFFFFF" d="M13.601,23.922H8.499v-1.096h1.896v-6.26l-1.947,0.526V15.94l3.261-0.856v7.742h1.891V23.922z"/>
	<path fill="#FFFFFF" d="M14.759,19.755c0-1.521,0.26-2.676,0.78-3.462c0.52-0.787,1.274-1.18,2.263-1.18
		c1.883,0,2.825,1.479,2.825,4.436c0,1.447-0.257,2.563-0.772,3.345c-0.515,0.783-1.261,1.175-2.237,1.175
		c-0.944,0-1.656-0.369-2.137-1.108C14.999,22.222,14.759,21.153,14.759,19.755z M16.096,19.705c0,2.208,0.535,3.312,1.605,3.312
		c1.056,0,1.583-1.126,1.583-3.378c0-2.313-0.516-3.468-1.549-3.468C16.642,16.169,16.096,17.348,16.096,19.705z"/>
	<path fill="#FFFFFF" d="M21.583,19.755c0-1.521,0.26-2.676,0.78-3.462c0.52-0.787,1.274-1.18,2.263-1.18
		c1.883,0,2.825,1.479,2.825,4.436c0,1.447-0.257,2.563-0.772,3.345c-0.515,0.783-1.261,1.175-2.237,1.175
		c-0.944,0-1.656-0.369-2.137-1.108C21.823,22.222,21.583,21.153,21.583,19.755z M22.92,19.705c0,2.208,0.535,3.312,1.605,3.312
		c1.055,0,1.583-1.126,1.583-3.378c0-2.313-0.517-3.468-1.55-3.468C23.466,16.169,22.92,17.348,22.92,19.705z"/>
	<path fill="#FFFFFF" d="M28.407,19.755c0-1.521,0.26-2.676,0.78-3.462s1.274-1.18,2.263-1.18c1.883,0,2.825,1.479,2.825,4.436
		c0,1.447-0.257,2.563-0.772,3.345c-0.515,0.783-1.26,1.175-2.237,1.175c-0.943,0-1.656-0.369-2.137-1.108
		C28.647,22.222,28.407,21.153,28.407,19.755z M29.744,19.705c0,2.208,0.535,3.312,1.605,3.312c1.055,0,1.583-1.126,1.583-3.378
		c0-2.313-0.517-3.468-1.55-3.468C30.291,16.169,29.744,17.348,29.744,19.705z"/>
	<path fill="#FFFFFF" d="M43.13,16.007h-1.354v0.458h-1.029v-0.458h-2.372v-0.873h2.372V14.48h1.029v0.654h1.354V16.007z
		 M47.985,23.419c0,0.716-0.332,1.074-0.996,1.074c-0.768,0-1.271-0.004-1.51-0.012l-0.296-0.833h1.555
		c0.168,0,0.251-0.084,0.251-0.252v-1.745h-3.126v0.699c0.332,0,0.667-0.022,1.007-0.067c-0.049-0.074-0.12-0.166-0.213-0.274
		l0.962-0.229c0.347,0.369,0.658,0.813,0.934,1.331l-0.901,0.341c-0.056-0.134-0.128-0.261-0.218-0.38
		c-1.771,0.168-3.368,0.287-4.789,0.358l-0.251-0.862c0.906-0.011,1.723-0.048,2.45-0.111v-0.806h-2.741v2.842h-1.018v-2.842h-0.688
		v-0.845h0.688v-0.341h1.018v0.341h2.741v-0.666h-3.39v-3.323h7.859v3.323h-3.451v0.666h4.123V23.419z M42.845,18.116v-0.492H40.45
		v0.492H42.845z M42.845,19.375v-0.537H40.45v0.537H42.845z M48.388,16.007H45.96v0.458h-1.029v-0.458h-1.298v-0.873h1.298V14.48
		h1.029v0.654h2.428V16.007z M46.301,18.116v-0.492h-2.438v0.492H46.301z M46.301,19.375v-0.537h-2.438v0.537H46.301z"/>
	<path fill="#FFFFFF" d="M22.724,34.884c-1.619,1.097-3.215,2.051-4.789,2.864l-0.402-0.974c0.231-0.115,0.522-0.272,0.873-0.47
		v-8.066h1.063V35.7c1.126-0.626,2.143-1.271,3.049-1.935L22.724,34.884z M23.871,31.986l-0.906,0.565
		c-0.518-1.01-1.236-2.088-2.153-3.233l0.867-0.571C22.558,29.803,23.289,30.882,23.871,31.986z M27.697,37.591l-0.828,0.711
		c-0.515-0.728-1.222-1.554-2.12-2.479c-0.615,0.78-1.673,1.621-3.172,2.523L20.9,37.462c2.152-1.126,3.477-2.465,3.975-4.016
		c0.498-1.552,0.747-3.274,0.747-5.169h1.051c-0.093,2.942-0.523,5.173-1.292,6.69C26.313,35.911,27.085,36.786,27.697,37.591z"/>
	<path fill="#FFFFFF" d="M38.99,29.536h-4.973v1.846c1.809,0.944,3.187,1.811,4.134,2.602l-0.638,0.878
		c-0.876-0.757-2.042-1.536-3.496-2.338v5.694h-1.041v-8.682h-3.943v-1.007h9.957V29.536z"/>
</g>
</svg>
