<?xml version="1.0" encoding="utf-8"?>
<!-- Generator: Adobe Illustrator 16.0.0, SVG Export Plug-In . SVG Version: 6.00 Build 0)  -->
<!DOCTYPE svg PUBLIC "-//W3C//DTD SVG 1.1//EN" "http://www.w3.org/Graphics/SVG/1.1/DTD/svg11.dtd">
<svg version="1.1" id="圖層_1" xmlns="http://www.w3.org/2000/svg" xmlns:xlink="http://www.w3.org/1999/xlink" x="0px" y="0px"
	 width="58px" height="52px" viewBox="0 0 58 52" enable-background="new 0 0 58 52" xml:space="preserve">
<rect fill="#666666" width="58" height="52"/>
<g>
	<g>
		<path fill="#FFFFFF" d="M14.296,15.721H8.91v-1.097l2.512-2.472c0.559-0.548,0.972-1.022,1.239-1.42
			c0.267-0.399,0.4-0.834,0.4-1.304c0-0.958-0.507-1.438-1.521-1.438c-0.761,0-1.492,0.319-2.193,0.957V7.683
			c0.705-0.515,1.514-0.772,2.428-0.772c0.794,0,1.427,0.211,1.899,0.635c0.472,0.423,0.708,1.002,0.708,1.737
			c0,0.53-0.149,1.057-0.448,1.58c-0.298,0.524-0.818,1.145-1.561,1.86l-1.924,1.834v0.028h3.849V15.721z"/>
		<path fill="#FFFFFF" d="M16.114,14.25c0.597,0.376,1.208,0.565,1.835,0.565c0.559,0,1.014-0.153,1.365-0.458
			c0.351-0.306,0.526-0.72,0.526-1.242c0-1.082-0.694-1.622-2.081-1.622c-0.328,0-0.789,0.027-1.381,0.083v-4.52h4.402v1.13h-3.222
			v2.254c0.324-0.019,0.568-0.028,0.732-0.028c0.888,0,1.591,0.229,2.109,0.688c0.519,0.458,0.778,1.096,0.778,1.913
			c0,0.869-0.287,1.562-0.861,2.078c-0.575,0.517-1.341,0.775-2.299,0.775c-0.82,0-1.454-0.121-1.902-0.364V14.25z"/>
		<path fill="#FFFFFF" d="M22.435,11.554c0-1.521,0.26-2.676,0.781-3.463c0.52-0.787,1.274-1.18,2.262-1.18
			c1.883,0,2.825,1.479,2.825,4.436c0,1.447-0.257,2.562-0.772,3.345s-1.261,1.175-2.238,1.175c-0.943,0-1.656-0.369-2.137-1.107
			S22.435,12.952,22.435,11.554z M23.772,11.503c0,2.208,0.535,3.312,1.605,3.312c1.055,0,1.583-1.126,1.583-3.378
			c0-2.312-0.517-3.468-1.549-3.468C24.318,7.968,23.772,9.146,23.772,11.503z"/>
		<path fill="#FFFFFF" d="M29.26,11.554c0-1.521,0.26-2.676,0.78-3.463c0.52-0.787,1.274-1.18,2.263-1.18
			c1.883,0,2.825,1.479,2.825,4.436c0,1.447-0.257,2.562-0.772,3.345s-1.261,1.175-2.237,1.175c-0.944,0-1.656-0.369-2.137-1.107
			S29.26,12.952,29.26,11.554z M30.597,11.503c0,2.208,0.535,3.312,1.605,3.312c1.056,0,1.583-1.126,1.583-3.378
			c0-2.312-0.516-3.468-1.549-3.468C31.143,7.968,30.597,9.146,30.597,11.503z"/>
		<path fill="#FFFFFF" d="M43.982,7.806h-1.354v0.459h-1.029V7.806h-2.372V6.933h2.372V6.278h1.029v0.655h1.354V7.806z
			 M48.837,15.217c0,0.716-0.332,1.074-0.996,1.074c-0.768,0-1.271-0.003-1.51-0.011l-0.296-0.834h1.555
			c0.168,0,0.252-0.083,0.252-0.251V13.45h-3.127v0.699c0.332,0,0.667-0.022,1.007-0.067c-0.048-0.075-0.119-0.166-0.212-0.274
			l0.962-0.229c0.347,0.369,0.658,0.813,0.934,1.332l-0.9,0.341c-0.056-0.134-0.128-0.261-0.218-0.381
			c-1.771,0.168-3.367,0.288-4.788,0.358l-0.251-0.861c0.906-0.011,1.723-0.049,2.45-0.112V13.45h-2.741v2.841h-1.018V13.45H39.25
			v-0.845h0.688v-0.341h1.018v0.341h2.741v-0.666h-3.39V8.617h7.859v3.323h-3.451v0.666h4.123V15.217z M43.697,9.915V9.422h-2.394
			v0.493H43.697z M43.697,11.173v-0.537h-2.394v0.537H43.697z M49.24,7.806h-2.428v0.459h-1.029V7.806h-1.298V6.933h1.298V6.278
			h1.029v0.655h2.428V7.806z M47.154,9.915V9.422h-2.439v0.493H47.154z M47.154,11.173v-0.537h-2.439v0.537H47.154z"/>
		<path fill="#FFFFFF" d="M9.29,41.744c0.597,0.376,1.208,0.565,1.835,0.565c0.559,0,1.014-0.153,1.365-0.458
			c0.35-0.306,0.526-0.72,0.526-1.242c0-1.082-0.694-1.622-2.081-1.622c-0.328,0-0.789,0.027-1.382,0.083v-4.52h4.402v1.13h-3.222
			v2.254c0.324-0.019,0.568-0.028,0.732-0.028c0.888,0,1.591,0.229,2.109,0.688c0.519,0.458,0.778,1.096,0.778,1.913
			c0,0.869-0.288,1.562-0.862,2.078c-0.574,0.517-1.34,0.775-2.299,0.775c-0.82,0-1.455-0.121-1.902-0.364V41.744z"/>
		<path fill="#FFFFFF" d="M15.611,39.048c0-1.521,0.26-2.676,0.78-3.463c0.521-0.787,1.274-1.18,2.263-1.18
			c1.883,0,2.825,1.479,2.825,4.436c0,1.447-0.257,2.562-0.771,3.345s-1.261,1.175-2.238,1.175c-0.943,0-1.656-0.369-2.137-1.107
			S15.611,40.446,15.611,39.048z M16.948,38.997c0,2.208,0.535,3.312,1.605,3.312c1.055,0,1.583-1.126,1.583-3.378
			c0-2.312-0.517-3.468-1.549-3.468C17.494,35.462,16.948,36.641,16.948,38.997z"/>
		<path fill="#FFFFFF" d="M22.435,39.048c0-1.521,0.26-2.676,0.781-3.463c0.52-0.787,1.274-1.18,2.262-1.18
			c1.883,0,2.825,1.479,2.825,4.436c0,1.447-0.257,2.562-0.772,3.345s-1.261,1.175-2.238,1.175c-0.943,0-1.656-0.369-2.137-1.107
			S22.435,40.446,22.435,39.048z M23.772,38.997c0,2.208,0.535,3.312,1.605,3.312c1.055,0,1.583-1.126,1.583-3.378
			c0-2.312-0.517-3.468-1.549-3.468C24.318,35.462,23.772,36.641,23.772,38.997z"/>
		<path fill="#FFFFFF" d="M29.26,39.048c0-1.521,0.26-2.676,0.78-3.463c0.52-0.787,1.274-1.18,2.263-1.18
			c1.883,0,2.825,1.479,2.825,4.436c0,1.447-0.257,2.562-0.772,3.345s-1.261,1.175-2.237,1.175c-0.944,0-1.656-0.369-2.137-1.107
			S29.26,40.446,29.26,39.048z M30.597,38.997c0,2.208,0.535,3.312,1.605,3.312c1.056,0,1.583-1.126,1.583-3.378
			c0-2.312-0.516-3.468-1.549-3.468C31.143,35.462,30.597,36.641,30.597,38.997z"/>
		<path fill="#FFFFFF" d="M43.982,35.3h-1.354v0.459h-1.029V35.3h-2.372v-0.873h2.372v-0.655h1.029v0.655h1.354V35.3z
			 M48.837,42.711c0,0.716-0.332,1.074-0.996,1.074c-0.768,0-1.271-0.003-1.51-0.011l-0.296-0.834h1.555
			c0.168,0,0.252-0.083,0.252-0.251v-1.745h-3.127v0.699c0.332,0,0.667-0.022,1.007-0.067c-0.048-0.075-0.119-0.166-0.212-0.274
			l0.962-0.229c0.347,0.369,0.658,0.813,0.934,1.332l-0.9,0.341c-0.056-0.134-0.128-0.261-0.218-0.381
			c-1.771,0.168-3.367,0.288-4.788,0.358l-0.251-0.861c0.906-0.011,1.723-0.049,2.45-0.112v-0.805h-2.741v2.841h-1.018v-2.841H39.25
			v-0.845h0.688v-0.341h1.018v0.341h2.741v-0.666h-3.39v-3.323h7.859v3.323h-3.451v0.666h4.123V42.711z M43.697,37.409v-0.493
			h-2.394v0.493H43.697z M43.697,38.667V38.13h-2.394v0.537H43.697z M49.24,35.3h-2.428v0.459h-1.029V35.3h-1.298v-0.873h1.298
			v-0.655h1.029v0.655h2.428V35.3z M47.154,37.409v-0.493h-2.439v0.493H47.154z M47.154,38.667V38.13h-2.439v0.537H47.154z"/>
	</g>
	<g>
		<path fill="#FFFFFF" d="M25.851,27.636c-0.641-0.034-1.133-0.208-1.474-0.523c-0.341-0.315-0.512-0.728-0.512-1.239
			c0-0.436,0.205-0.966,0.615-1.588c0.265-0.41,0.397-0.729,0.397-0.957c0-0.537-0.343-0.816-1.029-0.839v-0.962
			c0.611,0.019,1.095,0.186,1.452,0.5c0.356,0.315,0.534,0.738,0.534,1.267c0,0.437-0.168,0.912-0.503,1.426
			c-0.347,0.533-0.521,0.919-0.521,1.158c0,0.231,0.094,0.42,0.283,0.565c0.188,0.146,0.441,0.222,0.758,0.229V27.636z"/>
	</g>
</g>
</svg>
