<?xml version="1.0" encoding="utf-8"?>
<!-- Generator: Adobe Illustrator 16.0.0, SVG Export Plug-In . SVG Version: 6.00 Build 0)  -->
<!DOCTYPE svg PUBLIC "-//W3C//DTD SVG 1.1//EN" "http://www.w3.org/Graphics/SVG/1.1/DTD/svg11.dtd">
<svg version="1.1" id="圖層_1" xmlns="http://www.w3.org/2000/svg" xmlns:xlink="http://www.w3.org/1999/xlink" x="0px" y="0px"
	 width="58px" height="52px" viewBox="0 0 58 52" enable-background="new 0 0 58 52" xml:space="preserve">
<rect fill="#666666" width="58" height="52"/>
<g>
	<g>
		<path fill="#FFFFFF" d="M8.935,14.25c0.597,0.376,1.208,0.565,1.834,0.565c0.56,0,1.014-0.153,1.365-0.458
			c0.351-0.306,0.526-0.72,0.526-1.242c0-1.082-0.693-1.622-2.081-1.622c-0.328,0-0.789,0.027-1.382,0.083v-4.52H13.6v1.13h-3.222
			v2.254c0.325-0.019,0.569-0.028,0.733-0.028c0.888,0,1.59,0.229,2.109,0.688c0.518,0.458,0.777,1.096,0.777,1.913
			c0,0.869-0.287,1.562-0.861,2.078c-0.574,0.517-1.341,0.775-2.299,0.775c-0.821,0-1.455-0.121-1.902-0.364V14.25z"/>
		<path fill="#FFFFFF" d="M15.255,11.554c0-1.521,0.26-2.676,0.78-3.463c0.52-0.787,1.274-1.18,2.263-1.18
			c1.883,0,2.825,1.479,2.825,4.436c0,1.447-0.257,2.562-0.772,3.345s-1.26,1.175-2.237,1.175c-0.943,0-1.656-0.369-2.137-1.107
			S15.255,12.952,15.255,11.554z M16.592,11.503c0,2.208,0.535,3.312,1.605,3.312c1.055,0,1.583-1.126,1.583-3.378
			c0-2.312-0.517-3.468-1.549-3.468C17.139,7.968,16.592,9.146,16.592,11.503z"/>
		<path fill="#FFFFFF" d="M22.08,11.554c0-1.521,0.26-2.676,0.78-3.463c0.521-0.787,1.274-1.18,2.263-1.18
			c1.883,0,2.825,1.479,2.825,4.436c0,1.447-0.257,2.562-0.771,3.345s-1.261,1.175-2.238,1.175c-0.943,0-1.656-0.369-2.137-1.107
			S22.08,12.952,22.08,11.554z M23.417,11.503c0,2.208,0.535,3.312,1.605,3.312c1.055,0,1.583-1.126,1.583-3.378
			c0-2.312-0.517-3.468-1.549-3.468C23.963,7.968,23.417,9.146,23.417,11.503z"/>
		<path fill="#FFFFFF" d="M28.904,11.554c0-1.521,0.26-2.676,0.78-3.463c0.521-0.787,1.274-1.18,2.263-1.18
			c1.883,0,2.825,1.479,2.825,4.436c0,1.447-0.257,2.562-0.771,3.345s-1.261,1.175-2.238,1.175c-0.943,0-1.656-0.369-2.137-1.107
			S28.904,12.952,28.904,11.554z M30.241,11.503c0,2.208,0.535,3.312,1.605,3.312c1.055,0,1.583-1.126,1.583-3.378
			c0-2.312-0.517-3.468-1.549-3.468C30.787,7.968,30.241,9.146,30.241,11.503z"/>
		<path fill="#FFFFFF" d="M43.626,7.806h-1.354v0.459h-1.029V7.806h-2.372V6.933h2.372V6.278h1.029v0.655h1.354V7.806z
			 M48.482,15.217c0,0.716-0.332,1.074-0.996,1.074c-0.769,0-1.272-0.003-1.51-0.011l-0.296-0.834h1.555
			c0.168,0,0.252-0.083,0.252-0.251V13.45h-3.127v0.699c0.332,0,0.667-0.022,1.007-0.067c-0.048-0.075-0.119-0.166-0.212-0.274
			l0.962-0.229c0.347,0.369,0.658,0.813,0.934,1.332l-0.9,0.341c-0.056-0.134-0.129-0.261-0.218-0.381
			c-1.771,0.168-3.367,0.288-4.788,0.358l-0.252-0.861c0.906-0.011,1.723-0.049,2.45-0.112V13.45h-2.741v2.841h-1.018V13.45h-0.688
			v-0.845h0.688v-0.341h1.018v0.341h2.741v-0.666h-3.39V8.617h7.859v3.323h-3.451v0.666h4.123V15.217z M43.341,9.915V9.422h-2.394
			v0.493H43.341z M43.341,11.173v-0.537h-2.394v0.537H43.341z M48.885,7.806h-2.428v0.459h-1.029V7.806H44.13V6.933h1.298V6.278
			h1.029v0.655h2.428V7.806z M46.798,9.915V9.422h-2.439v0.493H46.798z M46.798,11.173v-0.537h-2.439v0.537H46.798z"/>
		<path fill="#FFFFFF" d="M24.334,43.215h-5.102v-1.097h1.896v-6.259l-1.947,0.525v-1.152l3.261-0.855v7.741h1.891V43.215z"/>
		<path fill="#FFFFFF" d="M31.354,33.946c-0.097,0.399-0.235,0.896-0.414,1.493l-0.263,0.856v7.479H29.67v-5.426
			c-0.153,0.265-0.36,0.572-0.621,0.923l-0.515-1.052c0.783-1.13,1.402-2.631,1.857-4.503L31.354,33.946z M32.613,41.498
			c-0.265,1.018-0.548,1.744-0.851,2.176l-0.833-0.588c0.336-0.552,0.587-1.18,0.755-1.885L32.613,41.498z M38.604,36.877h-7.434
			v-0.789h1.969c-0.075-0.28-0.188-0.531-0.341-0.755h-1.253v-0.8h2.875c-0.127-0.269-0.237-0.476-0.33-0.621l0.973-0.196
			c0.153,0.279,0.272,0.552,0.358,0.816h2.864v0.8h-1.18c-0.112,0.284-0.231,0.535-0.358,0.755h1.857V36.877z M37.916,40.625h-6.092
			v-3.239h6.092V40.625z M36.886,38.634V38.13h-4.067v0.504H36.886z M36.886,39.892v-0.571h-4.067v0.571H36.886z M36.987,42.404
			c-0.037,0.347-0.112,0.623-0.224,0.828s-0.253,0.336-0.422,0.392c-0.17,0.056-0.594,0.084-1.272,0.084
			c-0.966,0-1.562-0.057-1.787-0.171c-0.226-0.113-0.339-0.331-0.339-0.651V41.14h0.996v1.398c0,0.097,0.033,0.161,0.101,0.193
			c0.067,0.032,0.354,0.047,0.861,0.047c0.425,0,0.716-0.018,0.873-0.053c0.157-0.036,0.259-0.258,0.308-0.669L36.987,42.404z
			 M36.092,35.333h-2.266c0.112,0.194,0.207,0.446,0.286,0.755h1.617C35.907,35.813,36.028,35.561,36.092,35.333z M35.913,41.895
			l-0.755,0.521c-0.265-0.38-0.574-0.722-0.929-1.023l0.789-0.537C35.368,41.183,35.667,41.529,35.913,41.895z M38.659,43.114
			l-0.833,0.453c-0.258-0.742-0.606-1.402-1.046-1.98l0.873-0.447C38.201,41.915,38.536,42.573,38.659,43.114z"/>
	</g>
	<g>
		<path fill="#FFFFFF" d="M25.495,27.636c-0.642-0.034-1.133-0.208-1.474-0.523c-0.341-0.315-0.512-0.728-0.512-1.239
			c0-0.436,0.205-0.966,0.615-1.588c0.265-0.41,0.397-0.729,0.397-0.957c0-0.537-0.343-0.816-1.029-0.839v-0.962
			c0.612,0.019,1.096,0.186,1.452,0.5s0.534,0.738,0.534,1.267c0,0.437-0.167,0.912-0.503,1.426c-0.347,0.533-0.52,0.919-0.52,1.158
			c0,0.231,0.094,0.42,0.282,0.565c0.188,0.146,0.441,0.222,0.758,0.229V27.636z"/>
	</g>
</g>
</svg>
