<?xml version="1.0" encoding="utf-8"?>
<!-- Generator: Adobe Illustrator 16.0.0, SVG Export Plug-In . SVG Version: 6.00 Build 0)  -->
<!DOCTYPE svg PUBLIC "-//W3C//DTD SVG 1.1//EN" "http://www.w3.org/Graphics/SVG/1.1/DTD/svg11.dtd">
<svg version="1.1" id="圖層_1" xmlns="http://www.w3.org/2000/svg" xmlns:xlink="http://www.w3.org/1999/xlink" x="0px" y="0px"
	 width="58px" height="52px" viewBox="0 0 58 52" enable-background="new 0 0 58 52" xml:space="preserve">
<rect fill="#008A3A" width="58" height="52"/>
<g>
	<g>
		<path fill="#FFFFFF" d="M24.313,22.954h-5.102v-1.097h1.896v-6.259l-1.947,0.526v-1.152l3.261-0.856v7.742h1.891V22.954z"/>
		<path fill="#FFFFFF" d="M31.334,13.685c-0.097,0.399-0.235,0.897-0.414,1.494l-0.263,0.855v7.479H29.65v-5.426
			c-0.153,0.265-0.36,0.573-0.621,0.923l-0.515-1.051c0.783-1.13,1.402-2.631,1.857-4.503L31.334,13.685z M32.592,21.236
			c-0.265,1.019-0.548,1.744-0.85,2.176l-0.833-0.587c0.335-0.552,0.587-1.18,0.755-1.885L32.592,21.236z M38.583,16.616h-7.434
			v-0.789h1.969c-0.075-0.279-0.188-0.531-0.341-0.755h-1.253v-0.8h2.875c-0.126-0.269-0.237-0.476-0.33-0.621l0.973-0.195
			c0.153,0.279,0.272,0.552,0.358,0.816h2.864v0.8h-1.181c-0.112,0.283-0.231,0.535-0.358,0.755h1.857V16.616z M37.895,20.364
			h-6.091v-3.239h6.091V20.364z M36.866,18.373v-0.503h-4.067v0.503H36.866z M36.866,19.631v-0.57h-4.067v0.57H36.866z
			 M36.967,22.143c-0.038,0.347-0.112,0.623-0.224,0.828c-0.112,0.205-0.253,0.335-0.423,0.392
			c-0.169,0.056-0.594,0.084-1.272,0.084c-0.966,0-1.562-0.057-1.787-0.171s-0.338-0.331-0.338-0.651v-1.745h0.996v1.398
			c0,0.097,0.034,0.161,0.101,0.192c0.067,0.032,0.354,0.048,0.861,0.048c0.425,0,0.716-0.018,0.873-0.053
			c0.156-0.036,0.259-0.258,0.308-0.668L36.967,22.143z M36.072,15.072h-2.266c0.112,0.194,0.207,0.446,0.285,0.755h1.617
			C35.887,15.552,36.008,15.3,36.072,15.072z M35.893,21.634l-0.755,0.521c-0.265-0.381-0.575-0.722-0.929-1.024l0.789-0.537
			C35.348,20.921,35.646,21.269,35.893,21.634z M38.639,22.854l-0.833,0.453c-0.257-0.742-0.606-1.402-1.046-1.98l0.873-0.447
			C38.181,21.654,38.516,22.313,38.639,22.854z"/>
		<path fill="#FFFFFF" d="M23.2,33.915c-1.618,1.097-3.214,2.051-4.788,2.864l-0.402-0.974c0.231-0.115,0.522-0.272,0.872-0.47
			V27.27h1.063v7.462c1.126-0.626,2.143-1.271,3.049-1.935L23.2,33.915z M24.347,31.018l-0.906,0.565
			c-0.518-1.011-1.236-2.089-2.153-3.233l0.867-0.57C23.035,28.834,23.766,29.914,24.347,31.018z M28.173,36.623l-0.828,0.71
			c-0.515-0.728-1.222-1.553-2.12-2.478c-0.615,0.78-1.673,1.621-3.172,2.523l-0.677-0.884c2.151-1.126,3.477-2.465,3.974-4.017
			c0.498-1.551,0.747-3.274,0.747-5.168h1.051c-0.093,2.942-0.524,5.172-1.292,6.69C26.79,34.942,27.562,35.817,28.173,36.623z"/>
		<path fill="#FFFFFF" d="M39.467,36.997h-9.99v-1.029h4.111V27.27h1.068v3.44h4.318v1.007h-4.318v4.251h4.811V36.997z"/>
	</g>
</g>
</svg>
