<?xml version="1.0" encoding="utf-8"?>
<!-- Generator: Adobe Illustrator 16.0.0, SVG Export Plug-In . SVG Version: 6.00 Build 0)  -->
<!DOCTYPE svg PUBLIC "-//W3C//DTD SVG 1.1//EN" "http://www.w3.org/Graphics/SVG/1.1/DTD/svg11.dtd">
<svg version="1.1" id="圖層_1" xmlns="http://www.w3.org/2000/svg" xmlns:xlink="http://www.w3.org/1999/xlink" x="0px" y="0px"
	 width="59px" height="52px" viewBox="0 0 59 52" enable-background="new 0 0 59 52" xml:space="preserve">
<rect fill="#008A3A" width="59" height="52"/>
<g>
	<g>
		<path fill="#FFFFFF" d="M28.79,23.707l-0.487,0.951c-0.567-0.228-0.947-0.384-1.141-0.47v0.772h-2.914v1.6h2.819v0.984h-2.819
			v1.661h4.195v0.974h-9.487v-0.974h4.24v-1.661H20.31V26.56h2.887v-1.6h-2.931v-0.861c-0.347,0.156-0.733,0.316-1.158,0.48
			l-0.47-0.939c1.619-0.601,2.86-1.285,3.726-2.053h-0.906v-0.974h2.819C25.029,21.863,26.534,22.894,28.79,23.707z M26.692,23.958
			c-1.283-0.638-2.273-1.389-2.971-2.254c-0.686,0.802-1.743,1.553-3.171,2.254H26.692z"/>
		<path fill="#FFFFFF" d="M36.017,25.391h-5.834V24.49h1.516c-0.183-0.563-0.412-1.102-0.688-1.617l0.755-0.458h-1.354v-0.917h2.271
			c-0.116-0.294-0.276-0.6-0.481-0.917l1.007-0.263c0.183,0.288,0.365,0.681,0.548,1.18h2.064v0.917h-1.158l0.722,0.403
			c-0.164,0.459-0.397,1.016-0.699,1.672h1.332V25.391z M35.407,30.396h-0.984v-0.648h-2.579v0.648h-1.018v-4.212h4.581V30.396z
			 M34.423,28.831v-1.717h-2.579v1.717H34.423z M34.456,22.415h-2.539c0.324,0.675,0.595,1.367,0.811,2.075h0.884
			C34.041,23.628,34.322,22.937,34.456,22.415z M39.077,24.535c0.69,1.066,1.035,2.04,1.035,2.92c0,0.436-0.077,0.784-0.232,1.043
			c-0.155,0.259-0.342,0.432-0.562,0.517c-0.22,0.086-0.664,0.116-1.332,0.089l-0.285-0.984c0.31,0.03,0.63,0.045,0.962,0.045
			c0.13,0,0.239-0.046,0.325-0.137s0.128-0.305,0.128-0.64c0-0.847-0.358-1.738-1.074-2.674c0.358-0.947,0.679-1.982,0.962-3.104
			h-1.555v8.799h-0.962v-9.722h3.491v0.923C39.716,22.616,39.416,23.591,39.077,24.535z"/>
	</g>
</g>
</svg>
