<?xml version="1.0" encoding="utf-8"?>
<!-- Generator: Adobe Illustrator 16.0.0, SVG Export Plug-In . SVG Version: 6.00 Build 0)  -->
<!DOCTYPE svg PUBLIC "-//W3C//DTD SVG 1.1//EN" "http://www.w3.org/Graphics/SVG/1.1/DTD/svg11.dtd">
<svg version="1.1" id="圖層_1" xmlns="http://www.w3.org/2000/svg" xmlns:xlink="http://www.w3.org/1999/xlink" x="0px" y="0px"
	 width="86.662px" height="66.279px" viewBox="0 0 86.662 66.279" enable-background="new 0 0 86.662 66.279" xml:space="preserve">
<g>
	<g>
		<path fill="#666666" d="M62.978,5.333c1.098,3.31,5.291,7.267,5.291,7.267s0.996-5.679-0.102-8.99
			c-1.098-3.309-2.6-3.945-4.032-3.469C62.702,0.616,61.879,2.025,62.978,5.333z"/>
		<path fill="#666666" d="M56.679,16.713c3.416,0.703,8.939-0.951,8.939-0.951s-4.42-3.703-7.836-4.406
			c-3.414-0.703-4.717,0.278-5.021,1.758C52.457,14.594,53.265,16.008,56.679,16.713z"/>
		<path fill="#666666" d="M63.384,27.855c2.318-2.606,3.648-8.217,3.648-8.217s-5.418,1.977-7.734,4.583s-2.117,4.224-0.988,5.227
			C59.438,30.452,61.068,30.461,63.384,27.855z"/>
		<path fill="#666666" d="M76.388,27.621c-1.098-3.311-5.292-7.269-5.292-7.269s-0.995,5.681,0.103,8.989s2.598,3.945,4.031,3.471
			C76.663,32.336,77.485,30.928,76.388,27.621z"/>
		<path fill="#666666" d="M82.686,16.242c-3.415-0.705-8.939,0.949-8.939,0.949s4.421,3.703,7.837,4.406
			c3.414,0.703,4.715-0.279,5.02-1.758C86.907,18.359,86.101,16.943,82.686,16.242z"/>
		<path fill="#666666" d="M75.98,5.098c-2.317,2.605-3.647,8.217-3.647,8.217s5.418-1.977,7.734-4.583s2.117-4.224,0.987-5.227
			C79.927,2.5,78.296,2.492,75.98,5.098z"/>
		<path fill="#666666" d="M62.751,13.09c1.613,1.293,4.979,1.911,4.979,1.911s-1.334-3.148-2.949-4.442
			c-1.612-1.295-2.566-1.128-3.125-0.43C61.095,10.83,61.138,11.795,62.751,13.09z"/>
		<path fill="#666666" d="M63.283,20.785c1.927-0.751,4.146-3.355,4.146-3.355s-3.395-0.418-5.322,0.332s-2.26,1.66-1.934,2.494
			C60.497,21.09,61.356,21.535,63.283,20.785z"/>
		<path fill="#666666" d="M70.214,24.172c0.314-2.043-0.832-5.266-0.832-5.266s-2.061,2.729-2.373,4.773
			c-0.314,2.045,0.306,2.786,1.191,2.922C69.085,26.736,69.899,26.217,70.214,24.172z"/>
		<path fill="#666666" d="M76.613,19.864c-1.613-1.294-4.978-1.913-4.978-1.913s1.334,3.149,2.947,4.443
			c1.614,1.295,2.566,1.127,3.127,0.43C78.271,22.123,78.228,21.158,76.613,19.864z"/>
		<path fill="#666666" d="M76.081,12.168c-1.926,0.751-4.145,3.354-4.145,3.354s3.395,0.42,5.322-0.33s2.259-1.659,1.934-2.494
			C78.868,11.863,78.009,11.418,76.081,12.168z"/>
		<path fill="#666666" d="M69.151,8.779c-0.314,2.045,0.832,5.268,0.832,5.268s2.061-2.73,2.373-4.773
			c0.314-2.045-0.307-2.787-1.191-2.923S69.466,6.735,69.151,8.779z"/>
	</g>
	<g>
		<path fill="#666666" d="M7.56,28.498c0.808,2.434,3.894,5.346,3.894,5.346s0.733-4.179-0.075-6.613
			c-0.809-2.436-1.913-2.904-2.968-2.553C7.357,25.025,6.752,26.063,7.56,28.498z"/>
		<path fill="#666666" d="M2.926,36.871c2.513,0.518,6.577-0.701,6.577-0.701s-3.253-2.723-5.765-3.24
			c-2.513-0.518-3.47,0.204-3.695,1.293C-0.18,35.311,0.414,36.353,2.926,36.871z"/>
		<path fill="#666666" d="M7.86,45.068c1.705-1.918,2.684-6.045,2.684-6.045s-3.986,1.455-5.69,3.371
			c-1.705,1.918-1.558,3.108-0.727,3.848C4.957,46.98,6.156,46.986,7.86,45.068z"/>
		<path fill="#666666" d="M17.427,44.896c-0.808-2.436-3.894-5.348-3.894-5.348s-0.732,4.18,0.075,6.615
			c0.808,2.434,1.913,2.902,2.967,2.552C17.63,48.367,18.236,47.33,17.427,44.896z"/>
		<path fill="#666666" d="M22.061,36.523c-2.513-0.518-6.577,0.699-6.577,0.699s3.253,2.725,5.766,3.24
			c2.513,0.52,3.471-0.203,3.694-1.291C25.168,38.084,24.574,37.041,22.061,36.523z"/>
		<path fill="#666666" d="M17.128,28.324c-1.705,1.918-2.683,6.047-2.683,6.047s3.985-1.455,5.69-3.373
			c1.705-1.918,1.557-3.107,0.727-3.848C20.031,26.412,18.832,26.408,17.128,28.324z"/>
		<path fill="#666666" d="M7.395,34.205c1.187,0.951,3.661,1.406,3.661,1.406s-0.981-2.316-2.168-3.27
			c-1.187-0.951-1.888-0.828-2.3-0.314S6.208,33.252,7.395,34.205z"/>
		<path fill="#666666" d="M7.785,39.867c1.418-0.553,3.05-2.469,3.05-2.469s-2.497-0.309-3.916,0.244
			c-1.418,0.551-1.662,1.221-1.423,1.834C5.735,40.092,6.368,40.419,7.785,39.867z"/>
		<path fill="#666666" d="M12.885,42.359c0.231-1.504-0.612-3.875-0.612-3.875s-1.516,2.008-1.747,3.512
			c-0.231,1.505,0.226,2.051,0.877,2.15C12.054,44.248,12.654,43.863,12.885,42.359z"/>
		<path fill="#666666" d="M17.593,39.189c-1.187-0.953-3.663-1.406-3.663-1.406s0.982,2.316,2.169,3.269
			c1.188,0.951,1.888,0.827,2.301,0.315C18.813,40.852,18.781,40.143,17.593,39.189z"/>
		<path fill="#666666" d="M17.203,33.525c-1.418,0.553-3.05,2.469-3.05,2.469s2.497,0.309,3.916-0.243
			c1.418-0.552,1.662-1.22,1.423-1.835C19.252,33.302,18.621,32.975,17.203,33.525z"/>
		<path fill="#666666" d="M12.103,31.033c-0.231,1.506,0.612,3.875,0.612,3.875s1.516-2.008,1.747-3.512
			c0.231-1.506-0.226-2.051-0.877-2.15C12.933,29.146,12.334,29.529,12.103,31.033z"/>
	</g>
	<polygon fill="#666666" points="52.442,33.279 52.442,27.279 33.442,27.279 33.442,47.279 26.442,47.279 26.442,66.279 
		32.904,66.279 33.47,66.279 51.604,66.279 52.171,66.279 59.442,66.279 59.442,33.279 	"/>
	<rect x="34.442" y="21.279" fill="#666666" width="18" height="5"/>
	<rect x="34.442" y="30.279" fill="#FFFFFF" width="5" height="2"/>
	<rect x="40.442" y="30.279" fill="#FFFFFF" width="5" height="2"/>
	<rect x="46.442" y="30.279" fill="#FFFFFF" width="5" height="2"/>
	<rect x="34.442" y="33.279" fill="#FFFFFF" width="5" height="4"/>
	<rect x="40.442" y="33.279" fill="#FFFFFF" width="5" height="4"/>
	<rect x="46.442" y="33.279" fill="#FFFFFF" width="5" height="4"/>
	<rect x="34.442" y="38.279" fill="#FFFFFF" width="5" height="2"/>
	<rect x="40.442" y="38.279" fill="#FFFFFF" width="5" height="2"/>
	<rect x="46.442" y="38.279" fill="#FFFFFF" width="5" height="2"/>
	<rect x="34.442" y="41.279" fill="#FFFFFF" width="5" height="3"/>
	<rect x="40.442" y="41.279" fill="#FFFFFF" width="5" height="3"/>
	<rect x="46.442" y="41.279" fill="#FFFFFF" width="5" height="3"/>
	<rect x="34.442" y="45.279" fill="#FFFFFF" width="5" height="3"/>
	<rect x="40.442" y="45.279" fill="#FFFFFF" width="5" height="3"/>
	<rect x="46.442" y="45.279" fill="#FFFFFF" width="5" height="3"/>
	<rect x="34.442" y="50.279" fill="#FFFFFF" width="5" height="2"/>
	<rect x="40.442" y="50.279" fill="#FFFFFF" width="5" height="2"/>
	<rect x="46.442" y="50.279" fill="#FFFFFF" width="5" height="2"/>
	<rect x="34.442" y="53.279" fill="#FFFFFF" width="5" height="3"/>
	<rect x="40.442" y="53.279" fill="#FFFFFF" width="5" height="3"/>
	<rect x="46.442" y="53.279" fill="#FFFFFF" width="5" height="3"/>
	<rect x="34.442" y="57.279" fill="#FFFFFF" width="5" height="3"/>
	<rect x="40.442" y="57.279" fill="#FFFFFF" width="5" height="3"/>
	<rect x="46.442" y="57.279" fill="#FFFFFF" width="5" height="3"/>
	<rect x="34.442" y="62.279" fill="#FFFFFF" width="5" height="2"/>
	<rect x="27.442" y="50.279" fill="#FFFFFF" width="5" height="2"/>
	<rect x="27.442" y="53.279" fill="#FFFFFF" width="5" height="3"/>
	<rect x="27.442" y="57.279" fill="#FFFFFF" width="5" height="3"/>
	<rect x="27.442" y="62.279" fill="#FFFFFF" width="5" height="2"/>
	<rect x="40.442" y="62.279" fill="#FFFFFF" width="5" height="2"/>
	<rect x="46.442" y="62.279" fill="#FFFFFF" width="5" height="2"/>
	<rect x="53.442" y="38.279" fill="#FFFFFF" width="5" height="2"/>
	<rect x="53.442" y="41.279" fill="#FFFFFF" width="5" height="3"/>
	<rect x="53.442" y="45.279" fill="#FFFFFF" width="5" height="3"/>
	<rect x="53.442" y="50.279" fill="#FFFFFF" width="5" height="2"/>
	<rect x="53.442" y="53.279" fill="#FFFFFF" width="5" height="3"/>
	<rect x="53.442" y="57.279" fill="#FFFFFF" width="5" height="3"/>
	<rect x="53.442" y="62.279" fill="#FFFFFF" width="5" height="2"/>
	<rect x="41.442" y="0.279" fill="#666666" width="4" height="21"/>
</g>
</svg>
