<?xml version="1.0" encoding="utf-8"?>
<!-- Generator: Adobe Illustrator 16.0.0, SVG Export Plug-In . SVG Version: 6.00 Build 0)  -->
<!DOCTYPE svg PUBLIC "-//W3C//DTD SVG 1.1//EN" "http://www.w3.org/Graphics/SVG/1.1/DTD/svg11.dtd">
<svg version="1.1" id="圖層_1" xmlns="http://www.w3.org/2000/svg" xmlns:xlink="http://www.w3.org/1999/xlink" x="0px" y="0px"
	 width="52.072px" height="52.071px" viewBox="0 0 52.072 52.071" enable-background="new 0 0 52.072 52.071" xml:space="preserve">
<circle fill="#FFFFFF" stroke="#008A3A" stroke-width="1.0415" stroke-miterlimit="10" stroke-dasharray="2.6036" cx="26.036" cy="26.035" r="25.516"/>
<circle fill="#008A3A" cx="26.037" cy="26.035" r="20.829"/>
<g>
	<path fill="#FFFFFF" d="M16.298,28.64H9.442v-1.396l3.196-3.146c0.712-0.697,1.237-1.301,1.577-1.809
		c0.339-0.508,0.509-1.061,0.509-1.658c0-1.221-0.646-1.83-1.937-1.83c-0.969,0-1.898,0.406-2.791,1.218v-1.609
		c0.897-0.655,1.928-0.982,3.09-0.982c1.012,0,1.816,0.27,2.417,0.808c0.601,0.539,0.901,1.276,0.901,2.211
		c0,0.674-0.19,1.345-0.57,2.012c-0.379,0.666-1.041,1.455-1.986,2.367l-2.449,2.335v0.035h4.898V28.64z"/>
	<path fill="#FFFFFF" d="M17.971,23.336c0-1.937,0.331-3.405,0.993-4.407c0.662-1.001,1.622-1.502,2.88-1.502
		c2.397,0,3.595,1.882,3.595,5.646c0,1.842-0.327,3.261-0.982,4.258c-0.654,0.996-1.604,1.494-2.848,1.494
		c-1.2,0-2.107-0.469-2.719-1.409C18.276,26.476,17.971,25.115,17.971,23.336z M19.673,23.271c0,2.811,0.681,4.215,2.043,4.215
		c1.343,0,2.015-1.434,2.015-4.3c0-2.942-0.657-4.414-1.972-4.414C20.368,18.772,19.673,20.272,19.673,23.271z"/>
	<path fill="#FFFFFF" d="M26.656,23.336c0-1.937,0.331-3.405,0.993-4.407c0.662-1.001,1.622-1.502,2.88-1.502
		c2.397,0,3.595,1.882,3.595,5.646c0,1.842-0.327,3.261-0.982,4.258c-0.654,0.996-1.604,1.494-2.848,1.494
		c-1.2,0-2.107-0.469-2.719-1.409C26.962,26.476,26.656,25.115,26.656,23.336z M28.358,23.271c0,2.811,0.681,4.215,2.043,4.215
		c1.343,0,2.015-1.434,2.015-4.3c0-2.942-0.657-4.414-1.972-4.414C29.054,18.772,28.358,20.272,28.358,23.271z"/>
	<path fill="#FFFFFF" d="M42.354,28.64h-6.855v-1.396l3.196-3.146c0.712-0.697,1.237-1.301,1.577-1.809
		c0.339-0.508,0.509-1.061,0.509-1.658c0-1.221-0.646-1.83-1.937-1.83c-0.969,0-1.898,0.406-2.791,1.218v-1.609
		c0.897-0.655,1.928-0.982,3.09-0.982c1.012,0,1.816,0.27,2.417,0.808c0.601,0.539,0.901,1.276,0.901,2.211
		c0,0.674-0.19,1.345-0.57,2.012c-0.379,0.666-1.041,1.455-1.986,2.367l-2.449,2.335v0.035h4.898V28.64z"/>
</g>
<g>
	<g>
		<path fill="#FFFFFF" d="M30.837,39.954H27.11v2.248h-1.01v-2.248h-4.778v-0.955h1.446v-2.788h3.332v-1.606h-2.482
			c-0.602,0.726-1.166,1.339-1.692,1.837l-0.7-0.721c1.025-0.887,1.867-1.934,2.525-3.141l1.004,0.198
			c-0.106,0.296-0.263,0.591-0.469,0.886h6.166v0.94H27.11v1.606h3.092v0.94H27.11v1.848h3.727V39.954z M26.101,38.999v-1.848
			h-2.338v1.848H26.101z"/>
	</g>
</g>
</svg>
