<?xml version="1.0" encoding="utf-8"?>
<!-- Generator: Adobe Illustrator 16.0.0, SVG Export Plug-In . SVG Version: 6.00 Build 0)  -->
<!DOCTYPE svg PUBLIC "-//W3C//DTD SVG 1.1//EN" "http://www.w3.org/Graphics/SVG/1.1/DTD/svg11.dtd">
<svg version="1.1" id="圖層_1" xmlns="http://www.w3.org/2000/svg" xmlns:xlink="http://www.w3.org/1999/xlink" x="0px" y="0px"
	 width="52.072px" height="52.071px" viewBox="0 0 52.072 52.071" enable-background="new 0 0 52.072 52.071" xml:space="preserve">
<circle fill="#FFFFFF" stroke="#008A3A" stroke-width="1.0415" stroke-miterlimit="10" stroke-dasharray="2.6036" cx="26.036" cy="26.035" r="25.516"/>
<circle fill="#008A3A" cx="26.036" cy="26.035" r="20.829"/>
<g>
	<path fill="#FFFFFF" d="M16.297,28.64H9.441v-1.396l3.196-3.146c0.712-0.697,1.237-1.301,1.577-1.809
		c0.339-0.508,0.509-1.061,0.509-1.658c0-1.221-0.646-1.83-1.937-1.83c-0.969,0-1.898,0.406-2.791,1.218v-1.609
		c0.897-0.655,1.928-0.982,3.09-0.982c1.012,0,1.816,0.27,2.417,0.808c0.601,0.539,0.901,1.276,0.901,2.211
		c0,0.674-0.19,1.345-0.57,2.012c-0.379,0.666-1.041,1.455-1.986,2.367l-2.449,2.335v0.035h4.898V28.64z"/>
	<path fill="#FFFFFF" d="M17.97,23.336c0-1.937,0.331-3.405,0.993-4.407c0.662-1.001,1.622-1.502,2.88-1.502
		c2.397,0,3.595,1.882,3.595,5.646c0,1.842-0.327,3.261-0.982,4.258c-0.654,0.996-1.604,1.494-2.848,1.494
		c-1.2,0-2.107-0.469-2.719-1.409C18.275,26.476,17.97,25.115,17.97,23.336z M19.672,23.271c0,2.811,0.681,4.215,2.043,4.215
		c1.343,0,2.015-1.434,2.015-4.3c0-2.942-0.657-4.414-1.972-4.414C20.367,18.772,19.672,20.272,19.672,23.271z"/>
	<path fill="#FFFFFF" d="M33.867,28.64h-6.492v-1.396h2.413v-7.967l-2.478,0.67V18.48l4.15-1.09v9.854h2.406V28.64z"/>
	<path fill="#FFFFFF" d="M35.775,26.625c0.754,0.574,1.609,0.861,2.563,0.861c0.707,0,1.272-0.172,1.695-0.516
		c0.422-0.345,0.633-0.811,0.633-1.399c0-1.296-0.944-1.943-2.833-1.943h-0.94v-1.346h0.883c1.686,0,2.527-0.605,2.527-1.815
		c0-1.13-0.643-1.694-1.929-1.694c-0.76,0-1.485,0.256-2.179,0.769v-1.495c0.727-0.413,1.585-0.619,2.577-0.619
		c0.949,0,1.727,0.241,2.331,0.723c0.605,0.481,0.908,1.131,0.908,1.947c0,1.447-0.736,2.37-2.207,2.77v0.028
		c0.778,0.076,1.402,0.354,1.873,0.836c0.469,0.482,0.704,1.074,0.704,1.776c0,1.025-0.371,1.835-1.114,2.428
		c-0.742,0.594-1.709,0.89-2.9,0.89c-1.078,0-1.941-0.191-2.592-0.576V26.625z"/>
</g>
<g>
	<g>
		<path fill="#FFFFFF" d="M30.836,39.954h-3.727v2.248H26.1v-2.248h-4.778v-0.955h1.446v-2.788H26.1v-1.606h-2.482
			c-0.602,0.726-1.166,1.339-1.692,1.837l-0.7-0.721c1.025-0.887,1.867-1.934,2.525-3.141l1.004,0.198
			c-0.106,0.296-0.263,0.591-0.469,0.886h6.166v0.94h-3.342v1.606h3.092v0.94h-3.092v1.848h3.727V39.954z M26.1,38.999v-1.848
			h-2.338v1.848H26.1z"/>
	</g>
</g>
</svg>
