<?xml version="1.0" encoding="utf-8"?>
<!-- Generator: Adobe Illustrator 16.0.0, SVG Export Plug-In . SVG Version: 6.00 Build 0)  -->
<!DOCTYPE svg PUBLIC "-//W3C//DTD SVG 1.1//EN" "http://www.w3.org/Graphics/SVG/1.1/DTD/svg11.dtd">
<svg version="1.1" id="圖層_1" xmlns="http://www.w3.org/2000/svg" xmlns:xlink="http://www.w3.org/1999/xlink" x="0px" y="0px"
	 width="52.072px" height="52.071px" viewBox="0 0 52.072 52.071" enable-background="new 0 0 52.072 52.071" xml:space="preserve">
<circle fill="#FFFFFF" stroke="#008A3A" stroke-width="1.0415" stroke-miterlimit="10" stroke-dasharray="2.6036" cx="26.036" cy="26.035" r="25.516"/>
<circle fill="#008A3A" cx="26.037" cy="26.035" r="20.829"/>
<g>
	<path fill="#FFFFFF" d="M16.595,28.64H9.739v-1.396l3.197-3.146c0.712-0.697,1.237-1.301,1.577-1.809s0.509-1.061,0.509-1.658
		c0-1.221-0.646-1.83-1.937-1.83c-0.968,0-1.898,0.406-2.791,1.218v-1.609c0.897-0.655,1.927-0.982,3.089-0.982
		c1.011,0,1.817,0.27,2.417,0.808c0.601,0.539,0.901,1.276,0.901,2.211c0,0.674-0.19,1.345-0.57,2.012
		c-0.379,0.666-1.042,1.455-1.986,2.367l-2.449,2.335v0.035h4.898V28.64z"/>
	<path fill="#FFFFFF" d="M18.268,23.336c0-1.937,0.331-3.405,0.993-4.407c0.662-1.001,1.622-1.502,2.88-1.502
		c2.397,0,3.595,1.882,3.595,5.646c0,1.842-0.328,3.261-0.982,4.258c-0.655,0.996-1.604,1.494-2.848,1.494
		c-1.201,0-2.107-0.469-2.72-1.409C18.574,26.476,18.268,25.115,18.268,23.336z M19.97,23.271c0,2.811,0.681,4.215,2.043,4.215
		c1.343,0,2.015-1.434,2.015-4.3c0-2.942-0.657-4.414-1.972-4.414C20.665,18.772,19.97,20.272,19.97,23.271z"/>
	<path fill="#FFFFFF" d="M34.166,28.64h-6.493v-1.396h2.414v-7.967l-2.478,0.67V18.48l4.15-1.09v9.854h2.406V28.64z"/>
	<path fill="#FFFFFF" d="M42.403,19.229c-0.56-0.305-1.163-0.456-1.809-0.456c-0.949,0-1.698,0.402-2.246,1.206
		c-0.548,0.805-0.82,1.844-0.815,3.115h0.036c0.517-0.944,1.333-1.417,2.449-1.417c0.949,0,1.704,0.314,2.264,0.943
		s0.84,1.451,0.84,2.467c0,1.073-0.335,1.964-1.007,2.674c-0.671,0.709-1.532,1.063-2.581,1.063c-1.191,0-2.105-0.449-2.741-1.349
		c-0.636-0.899-0.954-2.137-0.954-3.713c0-1.865,0.413-3.388,1.239-4.566c0.826-1.18,1.974-1.77,3.446-1.77
		c0.792,0,1.419,0.104,1.879,0.313V19.229z M37.611,25.023c0,0.688,0.181,1.271,0.541,1.747c0.361,0.478,0.831,0.716,1.41,0.716
		c0.574,0,1.031-0.216,1.371-0.648c0.339-0.432,0.509-0.965,0.509-1.602c0-0.717-0.161-1.268-0.484-1.655
		c-0.323-0.387-0.792-0.58-1.41-0.58c-0.551,0-1.011,0.194-1.381,0.584C37.796,23.975,37.611,24.453,37.611,25.023z"/>
</g>
<g>
	<g>
		<path fill="#FFFFFF" d="M30.056,39.954h-3.727v2.248H25.32v-2.248h-4.779v-0.955h1.447v-2.788h3.332v-1.606h-2.483
			c-0.602,0.726-1.166,1.339-1.692,1.837l-0.7-0.721c1.025-0.887,1.867-1.934,2.525-3.141l1.004,0.198
			c-0.107,0.296-0.263,0.591-0.47,0.886h6.167v0.94h-3.342v1.606h3.091v0.94h-3.091v1.848h3.727V39.954z M25.32,38.999v-1.848
			h-2.339v1.848H25.32z"/>
	</g>
</g>
</svg>
