<?xml version="1.0" encoding="utf-8"?>
<!-- Generator: Adobe Illustrator 16.0.0, SVG Export Plug-In . SVG Version: 6.00 Build 0)  -->
<!DOCTYPE svg PUBLIC "-//W3C//DTD SVG 1.1//EN" "http://www.w3.org/Graphics/SVG/1.1/DTD/svg11.dtd">
<svg version="1.1" id="圖層_1" xmlns="http://www.w3.org/2000/svg" xmlns:xlink="http://www.w3.org/1999/xlink" x="0px" y="0px"
	 width="52.072px" height="52.071px" viewBox="0 0 52.072 52.071" enable-background="new 0 0 52.072 52.071" xml:space="preserve">
<circle fill="#FFFFFF" stroke="#008A3A" stroke-width="1.0415" stroke-miterlimit="10" stroke-dasharray="2.6036" cx="26.036" cy="26.035" r="25.516"/>
<circle fill="#008A3A" cx="26.037" cy="26.035" r="20.829"/>
<g>
	<path fill="#FFFFFF" d="M16.595,28.64H9.739v-1.396l3.197-3.146c0.712-0.697,1.237-1.301,1.577-1.809s0.509-1.061,0.509-1.658
		c0-1.221-0.646-1.83-1.937-1.83c-0.968,0-1.898,0.406-2.791,1.218v-1.609c0.897-0.655,1.927-0.982,3.089-0.982
		c1.011,0,1.817,0.27,2.417,0.808c0.601,0.539,0.901,1.276,0.901,2.211c0,0.674-0.19,1.345-0.57,2.012
		c-0.379,0.666-1.042,1.455-1.986,2.367l-2.449,2.335v0.035h4.898V28.64z"/>
	<path fill="#FFFFFF" d="M18.268,23.336c0-1.937,0.331-3.405,0.993-4.407c0.662-1.001,1.622-1.502,2.88-1.502
		c2.397,0,3.595,1.882,3.595,5.646c0,1.842-0.328,3.261-0.982,4.258c-0.655,0.996-1.604,1.494-2.848,1.494
		c-1.201,0-2.107-0.469-2.72-1.409C18.574,26.476,18.268,25.115,18.268,23.336z M19.97,23.271c0,2.811,0.681,4.215,2.043,4.215
		c1.343,0,2.015-1.434,2.015-4.3c0-2.942-0.657-4.414-1.972-4.414C20.665,18.772,19.97,20.272,19.97,23.271z"/>
	<path fill="#FFFFFF" d="M34.166,28.64h-6.493v-1.396h2.414v-7.967l-2.478,0.67V18.48l4.15-1.09v9.854h2.406V28.64z"/>
	<path fill="#FFFFFF" d="M36.309,26.945c0.612,0.36,1.279,0.541,2,0.541c0.963,0,1.704-0.365,2.221-1.097
		c0.517-0.73,0.776-1.756,0.776-3.075c-0.014,0-0.026-0.002-0.036-0.007c-0.479,0.863-1.272,1.296-2.377,1.296
		c-0.935,0-1.701-0.325-2.296-0.976c-0.596-0.65-0.894-1.464-0.894-2.442c0-1.101,0.338-2.003,1.014-2.705
		c0.677-0.702,1.558-1.054,2.645-1.054c1.144,0,2.03,0.441,2.659,1.324s0.943,2.136,0.943,3.759c0,1.975-0.396,3.521-1.189,4.639
		c-0.793,1.117-1.927,1.676-3.403,1.676c-0.792,0-1.48-0.128-2.064-0.384V26.945z M37.369,21.001c0,0.683,0.175,1.228,0.523,1.634
		c0.349,0.405,0.832,0.608,1.449,0.608c0.537,0,0.984-0.185,1.342-0.556c0.358-0.37,0.537-0.823,0.537-1.359
		c0-0.707-0.177-1.31-0.53-1.809c-0.354-0.498-0.829-0.747-1.427-0.747c-0.555,0-1.01,0.216-1.363,0.647
		C37.546,19.852,37.369,20.379,37.369,21.001z"/>
</g>
<g>
	<g>
		<path fill="#FFFFFF" d="M30.056,39.954h-3.727v2.248H25.32v-2.248h-4.779v-0.955h1.447v-2.788h3.332v-1.606h-2.483
			c-0.602,0.726-1.166,1.339-1.692,1.837l-0.7-0.721c1.025-0.887,1.867-1.934,2.525-3.141l1.004,0.198
			c-0.107,0.296-0.263,0.591-0.47,0.886h6.167v0.94h-3.342v1.606h3.091v0.94h-3.091v1.848h3.727V39.954z M25.32,38.999v-1.848
			h-2.339v1.848H25.32z"/>
	</g>
</g>
</svg>
