<?xml version="1.0" encoding="utf-8"?>
<!-- Generator: Adobe Illustrator 16.0.0, SVG Export Plug-In . SVG Version: 6.00 Build 0)  -->
<!DOCTYPE svg PUBLIC "-//W3C//DTD SVG 1.1//EN" "http://www.w3.org/Graphics/SVG/1.1/DTD/svg11.dtd">
<svg version="1.1" id="圖層_1" xmlns="http://www.w3.org/2000/svg" xmlns:xlink="http://www.w3.org/1999/xlink" x="0px" y="0px"
	 width="64px" height="54px" viewBox="0 0 64 54" enable-background="new 0 0 64 54" xml:space="preserve">
<g>
	<g>
		<g>
			<path fill="#008A3A" d="M10.47,49.514H6.625v2.227h-0.56v-2.227H1.484v-0.56h1.505v-2.848h3.076v-1.851H3.574
				c-0.516,0.78-1.092,1.409-1.729,1.887l-0.427-0.386c0.898-0.624,1.726-1.69,2.481-3.199l0.569,0.168
				c-0.233,0.458-0.417,0.787-0.549,0.986h6.112v0.544H6.625v1.851h3.239v0.544H6.625v2.304h3.845V49.514z M6.065,48.954V46.65
				H3.554v2.304H6.065z"/>
			<path fill="#008A3A" d="M14.802,42.775c-0.125,0.315-0.305,0.709-0.539,1.18l-0.346,0.697v7.027h-0.544v-6.123
				c-0.481,0.736-0.936,1.28-1.363,1.632l-0.259-0.539c0.938-0.857,1.781-2.202,2.527-4.032L14.802,42.775z M16.907,42.775
				c-0.59,1.495-1.292,2.645-2.105,3.448l-0.468-0.336c0.77-0.708,1.446-1.805,2.029-3.29L16.907,42.775z M20.131,46.442
				c0.011,0.305,0.016,0.6,0.016,0.885c0,0.888-0.043,1.703-0.13,2.445c-0.086,0.743-0.177,1.197-0.271,1.363
				c-0.096,0.166-0.244,0.303-0.448,0.409c-0.203,0.107-0.539,0.16-1.007,0.16c-0.21,0-0.408-0.012-0.595-0.035l-0.178-0.55
				c0.318,0.031,0.613,0.046,0.885,0.046c0.349,0,0.58-0.04,0.691-0.119c0.112-0.08,0.202-0.208,0.27-0.384
				c0.068-0.176,0.133-0.666,0.193-1.469c0.062-0.804,0.083-1.551,0.066-2.243h-2.08c-0.095,1.027-0.354,1.92-0.775,2.678
				s-1.102,1.455-2.037,2.093l-0.376-0.448c1.682-1.064,2.556-2.505,2.624-4.323h-2.055v-0.508H20.131z M20.996,45.796l-0.371,0.438
				c-0.787-0.604-1.476-1.571-2.065-2.903h-0.798v-0.524h1.144C19.469,44.189,20.165,45.186,20.996,45.796z"/>
			<path fill="#008A3A" d="M30.861,51.751h-0.544v-0.737H23.33v0.727h-0.56v-7.485h3.778v-1.617h0.544v1.617h3.769V51.751z
				 M26.549,47.307V44.82H23.33v2.487H26.549z M26.549,50.439v-2.568H23.33v2.568H26.549z M30.307,47.307V44.82h-3.214v2.487H30.307
				z M30.307,50.439v-2.568h-3.214v2.568H30.307z"/>
			<path fill="#008A3A" d="M41.86,51.054l-0.178,0.534h-3.301c-1.173,0-2.068-0.115-2.688-0.346
				c-0.618-0.23-1.105-0.539-1.462-0.925c-0.355,0.499-0.781,0.973-1.276,1.424l-0.387-0.402c1.177-1.091,1.873-2.2,2.091-3.325
				h-1.739v-0.499l1.688-2.125h-1.851V44.86h2.518v0.529l-1.653,2.115h1.592v0.509c-0.129,0.627-0.368,1.252-0.717,1.876
				c0.739,0.776,1.936,1.165,3.59,1.165H41.86z M34.903,44.148l-0.396,0.396c-0.325-0.454-0.812-0.954-1.459-1.5l0.387-0.392
				C34.078,43.206,34.568,43.705,34.903,44.148z M41.692,46.035h-1.698v4.668h-0.519v-4.668h-2.421
				c-0.078,1.983-0.459,3.444-1.144,4.384l-0.438-0.341c0.359-0.529,0.623-1.123,0.79-1.782c0.168-0.66,0.252-1.603,0.252-2.83
				v-2.182c1.679-0.129,3.099-0.336,4.262-0.62l0.3,0.498c-1.132,0.265-2.465,0.459-3.997,0.585v1.759h4.612V46.035z"/>
			<path fill="#008A3A" d="M52.168,51.512h-9.082v-0.549h4.251v-2.044h-3.366V48.39h3.366v-1.281h0.55v1.281h3.406v0.529h-3.406
				v2.044h4.281V51.512z M51.929,43.421h-4.216c-0.745,1.125-1.514,2.046-2.303,2.761c1.637-0.102,3.147-0.237,4.53-0.407
				c-0.383-0.441-0.761-0.829-1.134-1.165l0.479-0.305c1,0.943,1.812,1.86,2.436,2.751l-0.458,0.3
				c-0.233-0.318-0.525-0.683-0.875-1.094c-1.996,0.238-4.01,0.419-6.041,0.544l-0.147-0.396c0.946-0.546,1.887-1.542,2.822-2.99
				h-3.728v-0.539h8.635V43.421z"/>
			<path fill="#008A3A" d="M62.582,51.044l-0.122,0.555c-1.938,0-3.336-0.012-4.189-0.036c-0.854-0.023-1.534-0.143-2.039-0.358
				c-0.506-0.215-0.905-0.483-1.2-0.806c-0.326,0.468-0.725,0.938-1.195,1.408l-0.396-0.335c1.074-1.031,1.74-2.154,1.998-3.372
				h-1.688v-0.523c0.746-0.933,1.265-1.647,1.557-2.146h-1.765v-0.508h2.41v0.508c-0.387,0.59-0.894,1.298-1.521,2.125h1.551V48.1
				c-0.162,0.654-0.392,1.268-0.687,1.841c0.241,0.306,0.555,0.541,0.941,0.707s0.799,0.28,1.238,0.343
				c0.438,0.063,1.094,0.094,1.965,0.094C60.138,51.085,61.186,51.071,62.582,51.044z M55.626,44.184l-0.387,0.392
				c-0.284-0.427-0.766-0.916-1.444-1.464l0.352-0.366C54.756,43.203,55.25,43.683,55.626,44.184z M61.978,47.713h-2.329
				c-0.38,0.366-0.807,0.698-1.281,0.997v1.302c0.298-0.041,0.786-0.168,1.464-0.381l0.076,0.508
				c-0.664,0.207-1.353,0.392-2.064,0.555l-0.162-0.483c0.108-0.098,0.162-0.195,0.162-0.29v-0.905
				c-0.549,0.292-0.977,0.49-1.281,0.595l-0.311-0.448c1.167-0.437,2.045-0.92,2.635-1.449h-1.907v-1.927h4.999V47.713z
				 M62.445,45.14h-6.036v-0.519h2.776v-0.763h-2.415V43.34h2.415v-0.687h0.534l-0.011,0.687h2.416v0.519h-2.416v0.763h2.736V45.14z
				 M61.418,47.169v-0.864h-3.916v0.864H61.418z M62.333,50.246l-0.376,0.371c-0.735-0.743-1.518-1.359-2.345-1.852l0.336-0.386
				c0.21,0.109,0.472,0.275,0.783,0.499c0.349-0.214,0.698-0.502,1.048-0.864l0.396,0.366c-0.329,0.319-0.665,0.59-1.007,0.814
				C61.792,49.732,62.181,50.083,62.333,50.246z"/>
		</g>
	</g>
	<g>
		<path fill="#008A3A" d="M33,6.25V4.193c0-1.104-0.896-2-2-2c-1.105,0-2,0.896-2,2V7H19V4.193c0-1.104-0.896-2-2-2
			c-1.105,0-2,0.896-2,2V6.25c-5,0.526-9,4.801-9,9.998v10.891C6,32.691,10.414,38,15.967,38h15.891C37.412,38,42,32.691,42,27.139
			V16.248C42,11.051,38,6.776,33,6.25z M38,25.308C38,29.662,34.383,34,30.027,34H17.799C13.443,34,10,29.662,10,25.308v-9.229
			c0-3.335,2-6.181,5-7.333v2.447c0,1.104,0.895,2,2,2c1.104,0,2-0.896,2-2V9h10v2.193c0,1.104,0.895,2,2,2c1.104,0,2-0.896,2-2
			V8.746c3,1.152,5,3.998,5,7.333V25.308z"/>
		<rect x="14" y="15" fill="#008A3A" width="6" height="4"/>
		<rect x="21" y="15" fill="#008A3A" width="6" height="4"/>
		<rect x="28" y="15" fill="#008A3A" width="6" height="4"/>
		<rect x="14" y="20" fill="#008A3A" width="6" height="4"/>
		<rect x="21" y="20" fill="#008A3A" width="6" height="4"/>
		<rect x="28" y="20" fill="#008A3A" width="6" height="4"/>
		<rect x="14" y="25" fill="#008A3A" width="6" height="4"/>
		<rect x="21" y="25" fill="#008A3A" width="6" height="4"/>
		<rect x="28" y="25" fill="#008A3A" width="6" height="4"/>
		<polygon fill="#008A3A" points="59.121,20 53.328,9.967 47.537,20 50,20 50,32 57,32 57,20 		"/>
	</g>
</g>
</svg>
