<?xml version="1.0" encoding="utf-8"?>
<!-- Generator: Adobe Illustrator 16.0.0, SVG Export Plug-In . SVG Version: 6.00 Build 0)  -->
<!DOCTYPE svg PUBLIC "-//W3C//DTD SVG 1.1//EN" "http://www.w3.org/Graphics/SVG/1.1/DTD/svg11.dtd">
<svg version="1.1" id="圖層_1" xmlns="http://www.w3.org/2000/svg" xmlns:xlink="http://www.w3.org/1999/xlink" x="0px" y="0px"
	 width="64px" height="54px" viewBox="0 0 64 54" enable-background="new 0 0 64 54" xml:space="preserve">
<g>
	<g>
		<g>
			<path fill="#008A3A" d="M10.416,49.576H6.571v2.227H6.012v-2.227H1.43v-0.56h1.505v-2.848h3.077v-1.851H3.521
				c-0.516,0.78-1.092,1.409-1.729,1.887l-0.427-0.386c0.898-0.624,1.726-1.69,2.481-3.199l0.569,0.168
				c-0.234,0.458-0.417,0.787-0.549,0.986h6.112v0.544H6.571v1.851h3.239v0.544H6.571v2.304h3.845V49.576z M6.012,49.017v-2.304H3.5
				v2.304H6.012z"/>
			<path fill="#008A3A" d="M14.749,42.838c-0.125,0.315-0.305,0.709-0.539,1.18l-0.346,0.697v7.027h-0.544V45.62
				c-0.481,0.736-0.936,1.28-1.363,1.632l-0.259-0.539c0.939-0.857,1.781-2.202,2.527-4.032L14.749,42.838z M16.854,42.838
				c-0.59,1.495-1.292,2.645-2.105,3.448L14.28,45.95c0.77-0.708,1.446-1.805,2.029-3.29L16.854,42.838z M20.078,46.504
				c0.01,0.305,0.015,0.6,0.015,0.885c0,0.888-0.043,1.703-0.129,2.445c-0.086,0.743-0.177,1.197-0.272,1.363
				c-0.095,0.166-0.244,0.303-0.447,0.409c-0.204,0.107-0.539,0.16-1.007,0.16c-0.21,0-0.409-0.012-0.595-0.035l-0.178-0.55
				c0.318,0.031,0.613,0.046,0.885,0.046c0.349,0,0.58-0.04,0.691-0.119c0.112-0.08,0.202-0.208,0.27-0.384s0.132-0.666,0.193-1.469
				c0.061-0.804,0.083-1.551,0.066-2.243h-2.08c-0.095,1.027-0.354,1.92-0.775,2.678c-0.422,0.758-1.101,1.455-2.037,2.093
				l-0.376-0.448c1.682-1.064,2.556-2.505,2.624-4.323H14.87v-0.508H20.078z M20.942,45.858l-0.371,0.438
				c-0.787-0.604-1.475-1.571-2.064-2.903h-0.798v-0.524h1.144C19.415,44.252,20.111,45.249,20.942,45.858z"/>
			<path fill="#008A3A" d="M30.808,51.813h-0.544v-0.737h-6.987v0.727h-0.56v-7.485h3.778v-1.617h0.544v1.617h3.769V51.813z
				 M26.495,47.369v-2.487h-3.219v2.487H26.495z M26.495,50.501v-2.568h-3.219v2.568H26.495z M30.253,47.369v-2.487h-3.214v2.487
				H30.253z M30.253,50.501v-2.568h-3.214v2.568H30.253z"/>
			<path fill="#008A3A" d="M41.7,51.106l-0.122,0.555c-1.939,0-3.335-0.012-4.19-0.036c-0.854-0.023-1.534-0.143-2.039-0.358
				c-0.505-0.215-0.905-0.483-1.2-0.806c-0.326,0.468-0.724,0.938-1.195,1.408l-0.396-0.335c1.075-1.031,1.741-2.154,1.999-3.372
				h-1.688v-0.523c0.746-0.933,1.265-1.647,1.556-2.146h-1.765v-0.508h2.411v0.508c-0.387,0.59-0.894,1.298-1.521,2.125h1.551v0.544
				c-0.163,0.654-0.391,1.268-0.687,1.841c0.241,0.306,0.555,0.541,0.941,0.707c0.387,0.166,0.799,0.28,1.238,0.343
				s1.094,0.094,1.965,0.094C39.255,51.147,40.303,51.134,41.7,51.106z M34.743,44.247l-0.386,0.392
				c-0.285-0.427-0.766-0.916-1.444-1.464l0.351-0.366C33.874,43.265,34.367,43.745,34.743,44.247z M41.095,47.776h-2.329
				c-0.38,0.366-0.807,0.698-1.281,0.997v1.302c0.298-0.041,0.786-0.168,1.464-0.381l0.076,0.508
				c-0.665,0.207-1.353,0.392-2.064,0.555l-0.163-0.483c0.108-0.098,0.163-0.195,0.163-0.29v-0.905
				c-0.549,0.292-0.976,0.49-1.281,0.595l-0.311-0.448c1.167-0.437,2.044-0.92,2.634-1.449h-1.907v-1.927h4.999V47.776z
				 M41.563,45.203h-6.036v-0.519h2.776v-0.763h-2.415v-0.519h2.415v-0.687h0.534l-0.01,0.687h2.416v0.519h-2.416v0.763h2.736
				V45.203z M40.535,47.231v-0.864H36.62v0.864H40.535z M41.451,50.309l-0.376,0.371c-0.735-0.743-1.517-1.359-2.344-1.852
				l0.336-0.386c0.21,0.109,0.471,0.275,0.783,0.499c0.35-0.214,0.699-0.502,1.048-0.864l0.396,0.366
				c-0.329,0.319-0.665,0.59-1.007,0.814C40.91,49.795,41.298,50.146,41.451,50.309z"/>
			<path fill="#008A3A" d="M52.114,51.574h-9.082v-0.549h4.251v-2.044h-3.366v-0.529h3.366v-1.281h0.549v1.281h3.407v0.529h-3.407
				v2.044h4.282V51.574z M51.875,43.484H47.66c-0.746,1.125-1.514,2.046-2.304,2.761c1.638-0.102,3.148-0.237,4.531-0.407
				c-0.383-0.441-0.761-0.829-1.134-1.165l0.478-0.305c1,0.943,1.812,1.86,2.436,2.751l-0.458,0.3
				c-0.234-0.318-0.525-0.683-0.875-1.094c-1.997,0.238-4.011,0.419-6.041,0.544l-0.147-0.396c0.946-0.546,1.886-1.542,2.822-2.99
				h-3.728v-0.539h8.635V43.484z"/>
			<path fill="#008A3A" d="M62.636,51.117l-0.178,0.534h-3.3c-1.173,0-2.069-0.115-2.688-0.346s-1.106-0.539-1.462-0.925
				c-0.356,0.499-0.781,0.973-1.276,1.424l-0.387-0.402c1.177-1.091,1.873-2.2,2.09-3.325h-1.739v-0.499l1.688-2.125h-1.851v-0.529
				h2.517v0.529l-1.653,2.115h1.592v0.509c-0.129,0.627-0.368,1.252-0.717,1.876c0.739,0.776,1.936,1.165,3.59,1.165H62.636z
				 M55.679,44.211l-0.396,0.396c-0.325-0.454-0.812-0.954-1.459-1.5l0.387-0.392C54.854,43.269,55.343,43.767,55.679,44.211z
				 M62.468,46.098h-1.699v4.668H60.25v-4.668h-2.42c-0.078,1.983-0.459,3.444-1.144,4.384l-0.438-0.341
				c0.359-0.529,0.623-1.123,0.791-1.782c0.168-0.66,0.252-1.603,0.252-2.83v-2.182c1.678-0.129,3.099-0.336,4.261-0.62l0.3,0.498
				c-1.132,0.265-2.465,0.459-3.997,0.585v1.759h4.612V46.098z"/>
		</g>
	</g>
	<g>
		<path fill="#008A3A" d="M32,6.188V4.131c0-1.104-0.896-2-2-2c-1.105,0-2,0.896-2,2V7H18V4.131c0-1.104-0.896-2-2-2
			c-1.105,0-2,0.896-2,2v2.057c-5,0.526-9,4.801-9,9.998v10.891C5,32.629,9.822,38,15.375,38h15.891C36.82,38,41,32.629,41,27.076
			V16.186C41,10.988,37,6.714,32,6.188z M37,25.245C37,29.6,33.791,34,29.436,34H17.207C12.852,34,9,29.6,9,25.245v-9.229
			c0-3.335,2-6.181,5-7.333v2.447c0,1.104,0.895,2,2,2c1.104,0,2-0.896,2-2V9h10v2.131c0,1.104,0.895,2,2,2c1.104,0,2-0.896,2-2
			V8.684c3,1.152,5,3.998,5,7.333V25.245z"/>
		<rect x="13" y="15" fill="#008A3A" width="6" height="4"/>
		<rect x="20" y="15" fill="#008A3A" width="6" height="4"/>
		<rect x="27" y="15" fill="#008A3A" width="6" height="4"/>
		<rect x="13" y="20" fill="#008A3A" width="6" height="4"/>
		<rect x="20" y="20" fill="#008A3A" width="6" height="4"/>
		<rect x="27" y="20" fill="#008A3A" width="6" height="4"/>
		<rect x="13" y="25" fill="#008A3A" width="6" height="4"/>
		<rect x="20" y="25" fill="#008A3A" width="6" height="4"/>
		<rect x="27" y="25" fill="#008A3A" width="6" height="4"/>
		<polygon fill="#008A3A" points="46.945,22 52.738,32.033 58.529,22 56,22 56,10 49,10 49,22 		"/>
	</g>
</g>
</svg>
