<?xml version="1.0" encoding="utf-8"?>
<!-- Generator: Adobe Illustrator 16.0.0, SVG Export Plug-In . SVG Version: 6.00 Build 0)  -->
<!DOCTYPE svg PUBLIC "-//W3C//DTD SVG 1.1//EN" "http://www.w3.org/Graphics/SVG/1.1/DTD/svg11.dtd">
<svg version="1.1" id="圖層_1" xmlns="http://www.w3.org/2000/svg" xmlns:xlink="http://www.w3.org/1999/xlink" x="0px" y="0px"
	 width="64px" height="54px" viewBox="0 0 64 54" enable-background="new 0 0 64 54" xml:space="preserve">
<g>
	<g>
		<g>
			<path fill="#666666" d="M11.951,27.414l0.807-2.291l5.03-15.5l0.536-1.734c0.155-0.51,0.373-1.242,0.652-2.196
				c1.141,0.021,1.973,0.032,2.498,0.032c0.914,0,1.76-0.012,2.539-0.032l1.418,6.636l2.887,12.763l0.564,2.323
				c-1.123-0.021-1.805-0.031-2.045-0.031c-0.545,0-1.346,0.01-2.404,0.031c-0.285-1.75-0.695-3.809-1.234-6.174h-4.895
				c-0.564,1.867-1.146,3.926-1.75,6.174c-1.207-0.021-1.947-0.031-2.219-0.031C13.842,27.383,13.047,27.393,11.951,27.414z
				 M19.48,16.609h3.021c-0.751-3.738-1.161-5.799-1.233-6.18c-0.428,1.557-0.791,2.832-1.088,3.828L19.48,16.609z"/>
			<path fill="#666666" d="M29.807,27.414c0.162-2.504,0.279-4.545,0.352-6.127c0.137-2.885,0.239-5.752,0.308-8.602
				c0.069-2.848,0.103-5.179,0.103-6.993c0.881,0.021,1.662,0.032,2.342,0.032c0.461,0,1.121-0.012,1.982-0.032l-0.234,5.761
				l-0.293,9.006l-0.039,2.213c1.117,0.031,1.842,0.048,2.18,0.048c1.706,0,2.998-0.038,3.873-0.112l-0.215,4.807
				c-1.705-0.021-3.328-0.031-4.872-0.031C33.204,27.383,31.375,27.393,29.807,27.414z"/>
			<path fill="#666666" d="M41.477,27.414c0.164-2.504,0.281-4.545,0.354-6.127c0.137-2.885,0.238-5.752,0.307-8.602
				c0.068-2.848,0.104-5.179,0.104-6.993c0.88,0.021,1.661,0.032,2.341,0.032c0.46,0,1.122-0.012,1.983-0.032l-0.234,5.761
				l-0.293,9.006l-0.04,2.213c1.116,0.031,1.843,0.048,2.181,0.048c1.705,0,2.996-0.038,3.871-0.112l-0.213,4.807
				c-1.705-0.021-3.33-0.031-4.873-0.031C44.875,27.383,43.047,27.393,41.477,27.414z"/>
		</g>
	</g>
	<g>
		<g>
			<path fill="#666666" d="M31.313,42.363l-0.295,0.488c-1.987-0.874-3.399-1.829-4.236-2.862c-0.824,1.125-2.255,2.08-4.292,2.862
				l-0.28-0.519c1.783-0.63,3.078-1.425,3.885-2.385h-1.012v-0.534h1.978C27.828,40.539,29.245,41.522,31.313,42.363z
				 M31.063,48.099H22.47V47.58h4.033v-1.998h-2.868v-0.524h2.868v-1.927h-2.853v-0.509h6.234v0.509h-2.842v1.927h2.833v0.524
				h-2.833v1.998h4.022V48.099z"/>
			<path fill="#666666" d="M38,43.634h-5.284V43.12h1.459c-0.125-0.586-0.327-1.22-0.605-1.901l0.407-0.305h-1.042v-0.519h2.304
				c-0.112-0.281-0.307-0.632-0.585-1.052l0.488-0.188c0.227,0.309,0.447,0.722,0.661,1.24h2.019v0.519H36.77l0.396,0.274
				c-0.193,0.685-0.426,1.329-0.697,1.932H38V43.634z M37.385,48.308H36.83V47.61h-2.903v0.697h-0.544v-3.642h4.002V48.308z
				 M36.83,47.082v-1.887h-2.903v1.887H36.83z M36.652,40.914h-2.604c0.305,0.766,0.532,1.501,0.681,2.207h1.185
				C36.22,42.49,36.466,41.754,36.652,40.914z M40.644,43.228c0.705,0.868,1.058,1.737,1.058,2.608c0,0.451-0.106,0.78-0.318,0.986
				c-0.212,0.207-0.64,0.311-1.284,0.311c-0.112,0-0.226-0.003-0.341-0.01l-0.147-0.554c0.163,0.021,0.359,0.03,0.59,0.03
				c0.302,0,0.505-0.019,0.61-0.056s0.194-0.119,0.267-0.244c0.073-0.125,0.109-0.309,0.109-0.549c0-0.773-0.366-1.583-1.099-2.431
				c0.366-1.041,0.68-2.112,0.941-3.214h-1.994v8.203h-0.508v-8.727h3.021v0.524C41.265,41.214,40.963,42.254,40.644,43.228z"/>
		</g>
	</g>
</g>
</svg>
