<?xml version="1.0" encoding="utf-8"?>
<!-- Generator: Adobe Illustrator 16.0.0, SVG Export Plug-In . SVG Version: 6.00 Build 0)  -->
<!DOCTYPE svg PUBLIC "-//W3C//DTD SVG 1.1//EN" "http://www.w3.org/Graphics/SVG/1.1/DTD/svg11.dtd">
<svg version="1.1" id="圖層_1" xmlns="http://www.w3.org/2000/svg" xmlns:xlink="http://www.w3.org/1999/xlink" x="0px" y="0px"
	 width="367.201px" height="58.57px" viewBox="0 0 367.201 58.57" enable-background="new 0 0 367.201 58.57" xml:space="preserve">
<g>
	<g>
		<path fill="#008A3A" d="M22.833,48.765c0.071,0.013,0.101,0.015,0.126,0.021c0.387,0.116,0.76,0.001,1.127-0.08
			c0.132-0.027,0.265-0.106,0.365-0.197c0.527-0.485,1.05-0.978,1.566-1.477c0.327-0.318,0.648-0.646,0.957-0.984
			c0.444-0.486,0.895-0.975,1.311-1.487c0.498-0.616,0.977-1.251,1.438-1.893c0.425-0.591,0.81-1.21,1.228-1.805
			c0.226-0.319,0.401-0.665,0.6-0.998c0.193-0.328,0.368-0.669,0.549-1.007c0.242-0.451,0.498-0.898,0.719-1.36
			c0.283-0.587,0.551-1.184,0.799-1.787c0.309-0.75,0.605-1.505,0.878-2.271c0.21-0.587,0.38-1.188,0.558-1.787
			c0.101-0.339,0.183-0.685,0.271-1.028c0.068-0.267,0.176-0.311,0.387-0.141c0.349,0.279,2.871,2.26,3.207,2.524
			c0.125,0.099,0.151,0.221,0.122,0.375c-0.11,0.567-0.21,1.139-0.317,1.706c-0.074,0.394-0.143,0.79-0.24,1.179
			c-0.187,0.751-0.372,1.504-0.594,2.243c-0.242,0.813-0.512,1.619-0.794,2.419c-0.235,0.668-0.488,1.332-0.765,1.982
			c-0.305,0.712-0.639,1.412-0.973,2.109c-0.177,0.371-0.378,0.729-0.578,1.088c-0.321,0.578-0.64,1.16-0.984,1.727
			c-0.313,0.52-0.647,1.024-0.991,1.524c-0.311,0.454-0.631,0.905-0.977,1.333c-0.207,0.255-0.803,0.956-0.882,1.059
			c-0.61,0.795-1.333,1.484-2.072,2.156c-0.263,0.238-0.527,0.473-0.791,0.71c-0.265,0.237-0.333,0.231-0.581-0.013
			c-0.537-0.529-4.889-4.848-5.166-5.125c-0.138-0.141-0.135-0.213,0-0.354c0.091-0.094,0.181-0.191,0.285-0.27
			C22.69,48.807,22.784,48.786,22.833,48.765z"/>
		<path fill="#008A3A" d="M33.277,5.662c0,0.217-0.442,0.647-0.59,0.635c-0.045-0.003-0.092-0.021-0.133-0.042
			c-0.752-0.37-1.457-0.222-2.109,0.227c-0.336,0.232-0.63,0.526-0.928,0.81c-0.397,0.379-0.786,0.769-1.165,1.166
			c-0.191,0.2-0.641,0.693-0.662,0.711c-0.454,0.446-0.778,0.897-1.159,1.391c-0.068,0.088-0.141,0.172-0.211,0.259
			c-0.223,0.276-0.46,0.541-0.663,0.832c-0.414,0.586-0.815,1.183-1.208,1.784c-0.26,0.398-0.51,0.804-0.742,1.219
			c-0.34,0.61-0.658,1.233-0.988,1.85c-0.173,0.319-0.363,0.629-0.521,0.957c-0.274,0.571-0.538,1.147-0.79,1.729
			c-0.271,0.625-0.519,1.259-0.784,1.886c-0.347,0.819-0.544,1.685-0.815,2.529c-0.056,0.168-0.072,0.348-0.127,0.516
			c-0.074,0.229-0.186,0.263-0.373,0.117c-0.185-0.142-2.927-2.492-3.039-2.557c-0.146-0.085-0.181-0.195-0.148-0.353
			c0.083-0.392,0.15-0.787,0.235-1.179c0.146-0.693,0.29-1.387,0.459-2.076c0.153-0.624,0.325-1.245,0.513-1.86
			c0.25-0.821,0.517-1.637,0.792-2.451c0.126-0.37,0.275-0.734,0.436-1.09c0.397-0.885,0.783-1.775,1.22-2.643
			c0.426-0.85,0.885-1.685,1.367-2.505c0.571-0.972,1.196-1.913,1.865-2.824c0.688-0.935,1.451-1.803,2.227-2.664
			c0.445-0.494,0.942-0.93,1.435-1.37c0.189-0.168,0.368-0.347,0.554-0.516c0.224-0.206,0.331-0.198,0.547,0.011
			c0.744,0.721,4.988,4.868,5.346,5.223C33.201,5.471,33.244,5.602,33.277,5.662z"/>
		<path fill="#008A3A" d="M6.165,22.863c-0.013,0.068-0.028,0.132-0.038,0.197c-0.064,0.442-0.034,0.876,0.102,1.301
			c0.121,0.379,0.303,0.658,0.574,0.931c0.43,0.571,0.83,1.038,1.258,1.447c0.816,0.905,1.765,1.485,2.744,2.202
			c0.762,0.556,1.544,1.083,2.329,1.603c0.862,0.57,1.759,1.092,2.681,1.561c0.829,0.422,1.673,0.818,2.522,1.198
			c0.673,0.301,1.357,0.581,2.05,0.831c0.743,0.269,1.503,0.5,2.26,0.73c0.499,0.153,1.007,0.277,1.511,0.413
			c0.199,0.054,0.257,0.151,0.146,0.327c-0.108,0.17-2.315,2.824-2.504,3.077c-0.062,0.083-0.392,0.374-0.61,0.3
			c-0.244-0.081-1.496-0.285-1.861-0.359c-0.484-0.096-0.967-0.199-1.449-0.316c-0.467-0.117-0.931-0.256-1.397-0.385
			c-0.207-0.058-0.416-0.107-0.619-0.174c-0.666-0.212-1.336-0.408-1.99-0.648c-0.873-0.32-1.738-0.665-2.599-1.018
			c-0.88-0.357-1.737-0.77-2.566-1.237c-0.82-0.462-1.64-0.927-2.437-1.429c-0.541-0.34-1.076-0.697-1.572-1.108
			c-0.588-0.488-1.207-0.937-1.786-1.435c-0.522-0.449-1.015-0.937-1.511-1.418c-0.434-0.421-0.854-0.859-1.283-1.285
			c-0.166-0.165-0.161-0.281,0.031-0.469c0.42-0.408,5.238-5.373,5.297-5.455c0.066-0.095,0.166-0.123,0.238-0.046
			c0.16,0.167,0.301,0.353,0.442,0.534C6.154,22.766,6.153,22.819,6.165,22.863z"/>
		<path fill="#008A3A" d="M33.893,15.754c0.679,0.125,1.359,0.236,2.035,0.378c0.656,0.138,1.314,0.285,1.96,0.469
			c0.698,0.197,1.384,0.442,2.074,0.668c0.214,0.069,0.424,0.149,0.638,0.217c1.051,0.338,2.048,0.81,3.045,1.274
			c0.76,0.354,1.515,0.724,2.246,1.132c0.814,0.455,1.604,0.954,2.395,1.447c0.77,0.481,1.492,1.026,2.184,1.612
			c0.447,0.379,0.916,0.735,1.352,1.126c0.414,0.372,0.807,0.77,1.193,1.172c0.433,0.451,0.847,0.918,1.27,1.378
			c0.019,0.021,0.039,0.04,0.055,0.062c0.248,0.318,0.238,0.321-0.049,0.617c-0.676,0.698-5.209,5.518-5.328,5.619
			c-0.166,0.142-0.285,0.127-0.438-0.033c-0.07-0.074-0.136-0.154-0.205-0.23c-0.178-0.201-0.18-0.266-0.057-0.521
			c0.229-0.476,0.254-0.971,0.106-1.475c-0.106-0.362-0.28-0.678-0.552-0.955c-0.266-0.271-0.48-0.592-0.735-0.875
			c-0.224-0.249-0.495-0.457-0.707-0.712c-0.543-0.65-1.231-1.141-1.849-1.708c-0.377-0.347-0.796-0.648-1.203-0.96
			c-0.593-0.453-1.188-0.905-1.789-1.345c-0.309-0.224-0.637-0.425-0.959-0.63c-0.42-0.264-0.836-0.53-1.267-0.773
			c-0.487-0.274-0.981-0.54-1.487-0.78c-0.664-0.316-1.339-0.613-2.016-0.903c-0.686-0.296-1.375-0.585-2.07-0.856
			c-0.461-0.18-0.935-0.326-1.406-0.476c-0.346-0.112-0.699-0.205-1.047-0.307c-0.037-0.009-0.074-0.02-0.107-0.033
			c-0.216-0.081-0.243-0.208-0.087-0.373c0.156-0.164,2.192-2.842,2.437-3.09C33.566,15.788,33.75,15.719,33.893,15.754z"/>
		<path fill="#008A3A" d="M24.961,34.522c-0.082-0.031-0.123,0.04-0.234,0.002c-0.912-0.303-1.898-0.709-2.808-1.022
			c-0.573-0.199-1.144-0.406-1.7-0.647c-0.848-0.367-1.691-0.744-2.515-1.16c-0.823-0.415-1.634-0.855-2.421-1.335
			c-0.838-0.507-1.641-1.069-2.457-1.609c-0.859-0.566-1.652-1.223-2.449-1.87c-0.426-0.345-0.818-0.735-1.213-1.117
			c-0.322-0.311-0.632-0.633-0.934-0.964c-0.303-0.33-0.598-0.666-0.879-1.014c-0.449-0.558-0.887-1.128-1.326-1.693
			c-0.173-0.221-0.165-0.274,0.031-0.473c0.743-0.748,5.679-5.684,6.402-6.425c0.039-0.041,0.075-0.084,0.117-0.121
			c0.148-0.131,0.176-0.128,0.32,0.015c0.08,0.079,0.164,0.154,0.248,0.228c0.235,0.211,0.258,0.324,0.049,0.568
			c-0.24,0.28-0.411,0.595-0.551,0.934c-0.295,0.717-0.39,1.454-0.231,2.217c0.112,0.547,0.341,1.051,0.624,1.524
			c0.155,0.26,0.389,0.476,0.596,0.702c0.595,0.645,1.186,1.293,1.796,1.925c0.336,0.349,0.702,0.666,1.061,0.995
			c0.246,0.228,0.486,0.463,0.748,0.675c0.455,0.367,0.918,0.73,1.391,1.074c0.453,0.328,0.923,0.63,1.387,0.941
			c0.356,0.238,0.71,0.481,1.074,0.707c0.763,0.47,1.525,0.942,2.337,1.324c0.711,0.333,1.402,0.707,2.123,1.014
			c0.693,0.295,1.37,0.643,2.117,0.802c0.188,0.04,0.24,0.187,0.119,0.36C27.668,31.245,25.176,34.524,24.961,34.522z"/>
		<path fill="#008A3A" d="M15.028,42.5c0.016-0.04,0.022-0.103,0.056-0.139c0.141-0.149,0.285-0.295,0.437-0.434
			c0.118-0.107,0.188-0.108,0.318,0.007c0.255,0.225,0.534,0.406,0.835,0.561c0.588,0.299,1.211,0.416,1.865,0.379
			c0.411-0.022,0.812-0.09,1.204-0.229c0.36-0.13,0.664-0.338,0.944-0.587c0.992-0.881,1.93-1.818,2.855-2.768
			c0.79-0.81,1.51-1.679,2.199-2.574c0.77-0.999,1.473-2.045,2.131-3.119c0.447-0.729,0.852-1.489,1.254-2.246
			c0.277-0.518,0.537-1.044,0.775-1.578c0.335-0.75,0.643-1.512,0.961-2.27c0.05-0.121,0.076-0.25,0.115-0.375
			c0.079-0.239,0.188-0.276,0.387-0.117c0.137,0.11,0.264,0.235,0.402,0.347c0.621,0.507,1.241,1.015,1.865,1.518
			c0.174,0.14,0.365,0.26,0.541,0.396c0.261,0.205,0.299,0.318,0.201,0.631c-0.187,0.598-0.377,1.192-0.571,1.787
			c-0.142,0.434-0.277,0.87-0.44,1.296c-0.205,0.529-0.434,1.05-0.655,1.572c-0.188,0.448-0.366,0.901-0.581,1.337
			c-0.375,0.764-0.758,1.52-1.164,2.268c-0.336,0.622-0.695,1.234-1.069,1.837c-0.388,0.624-0.787,1.241-1.219,1.836
			c-0.464,0.64-0.955,1.259-1.461,1.866c-0.578,0.696-1.169,1.385-1.783,2.047c-0.508,0.547-1.046,1.065-1.596,1.569
			c-0.498,0.454-1.025,0.867-1.541,1.301c-0.077,0.066-0.145,0.144-0.218,0.215c-0.144,0.138-0.263,0.15-0.427,0.042
			c-0.038-0.025-0.072-0.058-0.105-0.091c-0.268-0.261-5.743-5.63-6.479-6.224C15.054,42.55,15.045,42.53,15.028,42.5z"/>
		<path fill="#008A3A" d="M20.506,25.009c0.015-0.049,0.028-0.095,0.044-0.138c0.16-0.448,0.326-0.894,0.483-1.344
			c0.169-0.485,0.302-0.983,0.499-1.456c0.359-0.857,0.739-1.709,1.142-2.547c0.374-0.781,0.774-1.551,1.19-2.31
			c0.367-0.67,0.793-1.312,1.159-1.983c0.259-0.477,0.582-0.909,0.886-1.353c0.479-0.7,1.01-1.363,1.521-2.042
			c0.039-0.052,0.334-0.482,0.829-1.032c0.575-0.637,1.376-1.424,1.694-1.763c0.775-0.824,1.631-1.558,2.535-2.237
			c0.291-0.219,0.57-0.453,0.861-0.671c0.216-0.16,0.328-0.141,0.512,0.042c0.492,0.498,5.949,5.939,6.238,6.23
			c0.178,0.18,0.173,0.292-0.005,0.479c-0.092,0.094-0.179,0.192-0.274,0.279c-0.141,0.127-0.227,0.109-0.344-0.043
			c-0.119-0.154-0.229-0.322-0.375-0.446c-0.479-0.408-1.039-0.647-1.662-0.742c-0.388-0.061-0.775-0.089-1.166-0.022
			c-0.669,0.115-1.301,0.323-1.84,0.75c-0.203,0.162-0.383,0.244-0.571,0.424c-0.391,0.375-0.663,0.618-1.052,0.995
			c-0.148,0.144-0.45,0.4-0.858,0.898c-0.413,0.396-1.101,1.307-1.43,1.696c-0.247,0.293-0.475,0.601-0.709,0.903
			c-0.359,0.463-0.722,0.927-1.075,1.395c-0.175,0.229-0.34,0.468-0.5,0.708c-0.195,0.286-0.38,0.576-0.563,0.868
			c-0.233,0.37-0.472,0.738-0.688,1.118c-0.375,0.654-0.745,1.313-1.098,1.983c-0.209,0.396-0.376,0.812-0.566,1.218
			c-0.055,0.118-0.295,0.677-0.371,0.834c-0.112,0.234-0.408,0.981-0.424,1.032c-0.143,0.402-0.33,0.804-0.48,1.203
			c-0.055,0.147-0.145,0.15-0.256,0.048c-0.295-0.271-2.883-2.45-3.06-2.572C20.588,25.31,20.545,25.162,20.506,25.009z"/>
		<path fill="#008A3A" d="M41.816,39.966c-0.102-0.094-0.196-0.197-0.295-0.297c-0.162-0.166-0.16-0.367,0.004-0.543
			c0.568-0.608,0.936-1.319,1.066-2.148c0.194-1.223-0.102-2.344-0.854-3.311c-0.363-0.604-0.383-0.572-0.643-0.877
			c-0.219-0.255-0.639-0.715-0.863-0.965c-0.498-0.558-0.988-0.881-1.549-1.378c-0.559-0.496-1.135-0.972-1.734-1.417
			c-0.523-0.389-1.064-0.755-1.604-1.123c-0.463-0.315-0.927-0.63-1.404-0.919c-0.584-0.351-1.179-0.685-1.779-1.006
			c-0.584-0.313-1.174-0.619-1.773-0.896c-0.711-0.33-1.432-0.636-2.157-0.934c-0.273-0.113-0.566-0.179-0.854-0.261
			c-0.204-0.06-0.25-0.182-0.107-0.345c0.286-0.332,2.579-3.095,2.686-3.225c0.073-0.088,0.163-0.101,0.277-0.06
			c0.79,0.285,1.588,0.55,2.373,0.849c0.67,0.255,1.327,0.545,1.989,0.821c0.268,0.112,0.534,0.219,0.797,0.342
			c0.209,0.099,0.41,0.217,0.614,0.328c0.543,0.291,1.089,0.577,1.627,0.876c0.278,0.153,0.545,0.326,0.812,0.499
			c0.555,0.36,1.109,0.723,1.66,1.09c0.87,0.582,1.671,1.252,2.471,1.924c0.457,0.384,0.926,0.753,1.359,1.162
			c0.766,0.727,1.539,1.443,2.218,2.255c0.323,0.385,0.672,0.75,0.989,1.139c0.235,0.29,0.441,0.603,0.656,0.908
			c0.139,0.198,0.273,0.402,0.408,0.604c0.182,0.273,0.164,0.444-0.057,0.674c-0.284,0.297-0.564,0.599-0.848,0.895
			c-0.382,0.396-0.77,0.785-1.149,1.184c-0.327,0.344-0.644,0.699-0.97,1.047c-0.513,0.541-1.03,1.08-1.545,1.621
			c-0.398,0.418-0.798,0.834-1.193,1.257c-0.06,0.063-0.213,0.237-0.347,0.288C41.966,40.071,41.854,40,41.816,39.966z"/>
	</g>
	<g>
		<path d="M87.521,58.57c-0.06-0.997-0.164-1.915-0.158-2.831c0.014-2.465,0.057-4.932,0.127-7.395
			c0.055-2.067,0.173-4.131,0.245-6.198c0.059-1.683-0.713-2.255-2.294-1.702c-0.589,0.206-1.172,0.441-1.727,0.724
			c-1.568,0.794-3.154,1.495-4.926,1.732c-0.537,0.071-1.051,0.401-1.543,0.672c-1.475,0.815-3.973,0.601-5.197-0.537
			c-0.232-0.216-0.398-0.677-0.34-0.973c0.043-0.208,0.508-0.438,0.804-0.472c2.576-0.271,5.163-0.465,7.735-0.769
			c0.758-0.089,1.489-0.442,2.227-0.692c0.938-0.32,1.848-0.791,2.812-0.96c2.003-0.351,3.106-2.403,2.069-4.189
			c-0.178-0.308-0.867-0.558-1.236-0.472c-2.827,0.652-5.636,1.39-8.445,2.119c-1.633,0.422-3.271,0.828-4.878,1.33
			c-1.827,0.569-3.616,1.261-5.438,1.848c-0.422,0.137-0.976,0.224-1.355,0.063c-0.824-0.349-1.608-0.824-2.347-1.337
			c-0.675-0.469-0.376-1.572,0.544-1.787c1.088-0.253,2.218-0.358,3.336-0.444c1.168-0.091,2.354,0.013,3.514-0.133
			c2.607-0.329,5.22-0.669,7.797-1.173c2.374-0.466,2.071-1.283,1.813-3.314c-0.074-0.579-0.549-0.832-1.131-0.701
			c-0.518,0.116-1.025,0.284-1.53,0.451c-2.307,0.77-4.521,0.248-6.708-0.506c-0.762-0.262-1.027-0.98-0.705-1.783
			c0.293-0.73,0.804-0.967,1.584-0.648c1.965,0.804,4.009,0.887,6.08,0.532c0.987-0.169,1.344-0.635,1.027-1.583
			c-0.608-1.823-1.428-3.491-3.564-4.006c-0.533-0.128-1.038-0.435-1.51-0.731c-0.756-0.476-0.71-1.342,0.119-1.682
			c0.566-0.233,1.217-0.254,1.822-0.401c1.177-0.289,2.356-0.565,3.518-0.91c0.76-0.227,1.051-0.876,0.801-1.569
			C80,16.882,79.486,15.57,78.022,15.14c-0.669-0.196-1.41-0.292-2.102-0.235c-1.018,0.088-2.019,0.375-3.034,0.533
			c-0.455,0.071-1.05,0.204-1.351-0.011c-0.229-0.166-0.266-0.922-0.087-1.257c0.213-0.396,0.711-0.787,1.15-0.884
			c0.875-0.194,1.801-0.14,2.693-0.271c1.098-0.163,1.332-0.673,0.795-1.624c-0.35-0.62-0.784-1.195-1.112-1.825
			c-0.183-0.352-0.282-0.771-0.316-1.168c-0.092-1.054,0.242-1.144,1.271-0.907c2.123,0.489,2.975,1.903,3.283,3.876
			c0.059,0.379,0.304,0.75,0.526,1.083c0.797,1.195,1.608,2.382,2.44,3.552c0.364,0.513,0.318,0.925-0.036,1.441
			c-0.667,0.972-0.403,1.612,0.768,1.601c1.396-0.015,2.798-0.232,4.18-0.474c0.778-0.136,0.735-0.833,0.446-1.353
			c-0.683-1.226-0.35-2.116,0.459-3.22c1.374-1.876,2.297-4.012,2.37-6.425c0.026-0.882-0.461-1.445-0.979-2.049
			c-0.238-0.278-0.318-0.692-0.471-1.045c0.374-0.062,0.75-0.192,1.119-0.175c1.089,0.049,2.158,0.194,2.65,1.388
			c0.09,0.218,0.181,0.498,0.12,0.703c-0.247,0.834-0.562,1.648-0.833,2.476c-0.087,0.264-0.153,0.546-0.172,0.823
			c-0.068,1.082,0.515,1.513,1.523,1.169c1.033-0.351,2.059-0.739,3.117-0.988c0.389-0.093,0.98,0.041,1.256,0.304
			c0.213,0.202,0.155,0.786,0.078,1.173c-0.153,0.768-0.67,1.202-1.434,1.453c-1.614,0.527-3.104,1.444-4.926,1.255
			c-0.76-0.08-1.342,0.396-1.654,1.161c-0.177,0.43-0.489,0.801-0.713,1.215c-0.444,0.819-0.195,1.233,0.727,1.274
			c1.107,0.049,1.979-0.416,2.797-1.124c0.264-0.23,0.729-0.232,1.102-0.337c-0.011,0.41,0.136,0.934-0.063,1.21
			c-0.493,0.69-0.961,1.449-2.006,1.533c-0.832,0.066-1.653,0.324-2.47,0.534c-0.948,0.246-0.845,1.079-0.854,1.763
			c-0.015,1.123,0.038,2.251,0.146,3.37c0.035,0.358,0.254,0.794,0.531,1.012c0.537,0.423,2.635,0.013,3.082-0.519
			c0.622-0.741,0.441-1.484-0.473-2.241c-0.252-0.208-0.545-0.573-0.533-0.854c0.045-1.047,0.635-1.312,1.506-0.699
			c0.316,0.223,0.576,0.558,0.789,0.889c0.621,0.969,1.354,1.191,2.484,1.016c0.603-0.093,1.678,0.002,1.822,0.327
			c0.371,0.838-0.659,0.905-1.152,1.255c-0.1,0.072-0.223,0.116-0.338,0.163c-1.544,0.606-2.003,1.409-1.716,3.004
			c0.211,1.175,1.163,1.658,2.223,1.085c0.437-0.236,0.781-0.643,1.219-0.873c0.685-0.36,1.391-0.711,2.128-0.925
			c0.771-0.225,1.369,0.111,1.551,0.941c0.181,0.828-0.423,1.288-1.025,1.456c-3.002,0.839-6.022,1.625-9.053,2.351
			c-1.252,0.3-2.176,1.01-2.426,2.17c-0.145,0.668,0.269,1.566,0.683,2.195c0.181,0.275,1.064,0.33,1.5,0.155
			c1.53-0.612,3.017-1.341,4.493-2.077c1.2-0.598,2.355-1.285,3.549-1.896c0.211-0.107,0.621-0.15,0.74-0.027
			c0.152,0.156,0.217,0.566,0.114,0.766c-0.579,1.143-1.125,2.321-1.87,3.354c-0.541,0.744-1.492,0.786-2.417,0.729
			c-0.634-0.039-1.304,0.027-1.916,0.199c-1.015,0.285-1.987,0.713-2.991,1.041c-1.097,0.359-1.285,0.663-1.263,1.828
			c0.048,2.245-0.016,4.496,0.086,6.74c0.049,1.045,0.539,2.074,0.552,3.115c0.025,2-0.114,4-0.255,5.998
			C89.996,57.168,88.709,58.282,87.521,58.57z M86.606,23.255c0.104-2.065-0.823-2.872-2.356-2.278
			c-0.356,0.136-0.667,0.45-0.938,0.739c-0.905,0.967-1.83,1.82-3.239,2.066c-1.174,0.205-1.455,1.397-0.646,2.266
			c0.148,0.159,0.297,0.322,0.424,0.499c0.936,1.303,1.301,1.381,2.719,0.546c0.932-0.547,1.802-1.142,2.985-1.174
			c1.011-0.027,1.276-0.539,1.183-1.628C86.699,23.858,86.627,23.425,86.606,23.255z M87.238,28.894c-0.002,0-0.006,0-0.01,0
			c0.014-0.249,0.047-0.498,0.041-0.748c-0.029-1.504-0.844-2.031-2.074-1.22c-1.218,0.803-2.318,1.782-3.485,2.665
			c-1.053,0.796-1.118,1.478-0.252,3.165c0.44,0.856,1.264,1.147,2.321,0.801c0.648-0.213,1.301-0.424,1.934-0.677
			c0.642-0.257,1.296-0.532,1.351-1.377C87.122,30.632,87.181,29.764,87.238,28.894z M92.43,27.836
			c-0.177-0.216-0.324-0.575-0.542-0.626c-0.53-0.121-1.13-0.238-1.636-0.105c-1.334,0.352-1.58,0.944-1.125,2.25
			c0.082,0.231,0.052,0.504,0.151,0.724c0.198,0.44,0.565,1.247,0.665,1.219c0.614-0.179,1.398-0.405,1.698-0.886
			C92.083,29.702,92.166,28.772,92.43,27.836z"/>
		<path d="M122.895,10.214c0.742,0.319,1.524,0.566,2.211,0.977c0.63,0.379,1.172,0.916,1.721,1.419
			c0.63,0.575,1.279,0.553,1.989,0.188c2.915-1.496,5.797-3.062,8.771-4.427c0.833-0.383,1.968-0.316,2.914-0.159
			c0.454,0.077,0.953,0.792,1.141,1.322c0.227,0.642-0.248,1.113-0.826,1.513c-0.92,0.635-1.861,1.052-2.986,1.241
			c-0.867,0.145-1.641,0.762-2.498,1.033c-1.51,0.476-3.06,0.828-4.579,1.273c-0.986,0.29-1.985,0.582-2.915,1.008
			c-0.752,0.343-0.949,1.077-0.649,1.843c0.282,0.721,0.787,1.143,1.624,0.789c1.253-0.53,2.491-1.104,3.764-1.585
			c0.344-0.13,0.786,0.002,1.182,0.015c-0.111,0.338-0.122,0.797-0.354,0.986c-0.449,0.365-0.994,0.67-1.549,0.833
			c-1.108,0.325-2.131,0.98-3.4,0.761c-0.412-0.071-1.059,0.227-1.33,0.569c-0.332,0.416-0.53,1.066-0.496,1.595
			c0.019,0.277,0.627,0.602,1.027,0.751c1.271,0.474,2.419,0.159,3.571-0.527c0.956-0.567,2.039-0.922,3.063-1.375
			c0.71-0.314,1.397-0.692,2.131-0.929c0.389-0.125,0.857-0.011,1.287-0.005c-0.156,0.394-0.202,0.961-0.492,1.148
			c-0.936,0.602-1.96,1.072-2.955,1.581c-0.668,0.341-1.387,0.599-2.007,1.008c-0.541,0.359-0.621,0.945,0.027,1.277
			c1.051,0.54,2.148,0.996,3.245,1.442c0.777,0.316,1.579,0.586,2.384,0.831c1.955,0.597,3.917,1.17,5.879,1.747
			c1.16,0.339,2.351,0.596,3.479,1.02c0.811,0.307,0.823,0.944,0.148,1.504c-1.785,1.473-3.934,1.382-5.766-0.023
			c-1.053-0.807-2.281-1.415-3.498-1.966c-0.982-0.445-1.908,0.262-1.923,1.367c-0.034,2.465-0.043,4.93-0.05,7.394
			c-0.003,1.124-0.916,1.554-1.648,2c-2.145,1.308-4.43,2.282-7,2.375c-0.25,0.009-0.5,0.057-0.746,0.101
			c-1.848,0.334-2.709-0.309-3.086-2.17c-0.297-1.463-0.664-2.918-1.078-4.354c-0.352-1.215-1.098-1.261-2.08-0.444
			c-1.28,1.065-2.593,2.028-4.357,2.405c-1.41,0.302-2.679,1.26-4.013,1.921c-0.779,0.388-1.547,0.808-2.353,1.134
			c-0.684,0.275-1.564-0.097-1.762-0.646c-0.295-0.818-0.016-1.465,0.75-1.858c1.001-0.518,1.971-1.098,2.979-1.598
			c1.558-0.772,3.307-1.276,4.661-2.304c1.484-1.125,2.699-2.652,3.86-4.139c0.529-0.678-0.068-1.345-1.159-1.528
			c-0.52-0.087-1.117-0.096-1.521-0.373c-0.367-0.251-0.633-0.798-0.706-1.254c-0.022-0.155,0.691-0.626,1.049-0.606
			c1.556,0.085,2.931-0.532,4.364-0.937c0.738-0.208,1.043-0.758,1.16-1.445c0.132-0.772-0.314-1.051-1.086-0.908
			c-0.945,0.176-1.922,0.25-2.879,0.216c-0.333-0.012-0.801-0.428-0.92-0.76c-0.094-0.258,0.175-0.765,0.429-1.008
			c0.989-0.954,2.33-0.964,3.579-1.22c0.512-0.107,1.035-0.229,1.52-0.43c0.689-0.284,0.799-0.944,0.549-1.502
			c-0.237-0.53-0.703-0.931-1.451-0.647c-2.13,0.802-4.271,1.572-6.417,2.328c-0.845,0.297-1.647,0.49-2.589,0.017
			c-0.871-0.44-1.925-0.504-2.881-0.793c-0.591-0.178-1.18-0.415-1.707-0.729c-0.226-0.135-0.45-0.58-0.389-0.809
			c0.062-0.234,0.461-0.511,0.734-0.531c0.775-0.06,1.561,0.03,2.342,0.005c1.434-0.045,2.869-0.18,4.301-0.187
			c1.892-0.006,3.708-0.372,5.499-0.924c0.327-0.102,0.654-0.211,0.968-0.351c1.99-0.883,2.164-1.685,0.77-3.4
			c-0.437-0.538-0.842-1.103-1.263-1.656C122.698,10.5,122.795,10.357,122.895,10.214z M128.789,40.171
			c0.891-0.16,1.851-0.173,2.654-0.531c0.65-0.289,1.498-0.934,1.594-1.529c0.322-2.025,0.424-4.096,0.457-6.152
			c0.014-0.908-0.751-1.27-1.541-0.816c-1.926,1.102-4.091,1.165-6.183,1.568c-0.462,0.09-1.107,0.367-1.245,0.722
			c-0.179,0.464-0.098,1.188,0.162,1.624c0.362,0.612,1.072,0.646,1.773,0.438c1.41-0.42,2.823-0.831,4.25-1.17
			c0.224-0.053,0.78,0.308,0.771,0.451c-0.051,0.763,0.019,1.741-0.832,2.042c-0.668,0.235-1.488,0.112-2.231,0.047
			c-0.544-0.049-1.073-0.349-1.614-0.36c-0.248-0.006-0.677,0.377-0.73,0.641C125.827,38.376,127.521,40.179,128.789,40.171z
			 M124.583,30.462c1.889,0.016,7.095-1.735,8.308-2.663c0.847-0.647,0.869-1.458-0.077-1.928c-1.336-0.665-2.716-1.282-4.138-1.724
			c-1.614-0.502-3.623,0.853-4.022,2.494c-0.13,0.527-0.284,1.145-0.646,1.496c-0.458,0.442-0.701,0.872-0.386,1.375
			C123.902,29.96,124.391,30.277,124.583,30.462z"/>
		<path d="M260.918,30.492c-1.051,0.642-2.091,1.298-3.15,1.921c-0.754,0.443-1.566,0.795-2.281,1.293
			c-0.318,0.219-0.52,0.672-0.661,1.063c-0.146,0.406-0.148,0.861-0.222,1.293c-0.094,0.55-0.246,1.127-0.949,1.045
			c-0.693-0.078-1.281-0.412-1.29-1.233c-0.016-1.721-0.03-3.44,0.009-5.161c0.021-0.995,0.201-1.99,0.182-2.984
			c-0.006-0.352-0.316-0.838-0.625-0.993c-0.208-0.105-0.726,0.19-0.972,0.438c-0.22,0.219-0.288,0.614-0.365,0.944
			c-0.366,1.522-1.312,2.563-2.591,3.423c-0.615,0.416-1.041,1.112-1.556,1.674c-0.474,0.518-0.954,1.025-1.431,1.538
			c-0.463-0.517-1.037-0.973-1.365-1.563c-0.723-1.309-0.568-1.752,0.561-2.729c1.041-0.898,2.139-1.754,3.049-2.774
			c0.719-0.804,1.326-1.772,1.732-2.77c0.586-1.438,0.977-2.961,1.377-4.469c0.217-0.821-0.09-1.142-0.941-0.959
			c-0.93,0.201-1.822,0.563-2.738,0.833c-0.447,0.132-0.912,0.201-1.364,0.321c-0.389,0.103-0.813,0.167-1.147,0.369
			c-2.098,1.276-4.152,0.806-6.193-0.12c-0.247-0.11-0.461-0.326-0.642-0.535c-0.859-0.986-0.663-1.357,0.559-1.85
			c1.755-0.708,3.528-0.152,5.281-0.305c1.709-0.15,3.413-0.373,5.11-0.614c0.749-0.105,0.969-0.714,0.811-1.35
			c-0.203-0.813-0.591-1.578-0.814-2.388c-0.123-0.453-0.264-1.101-0.044-1.389c0.211-0.275,0.899-0.318,1.347-0.249
			c0.925,0.143,1.867,0.335,2.722,0.694c0.437,0.184,0.808,0.73,1.019,1.199c0.459,1.022,0.98,1.363,2.043,1.05
			c2.187-0.645,4.402-1.221,6.543-1.999c2.551-0.928,5.023-2.073,7.563-3.042c0.584-0.223,1.296-0.111,1.949-0.153
			c-0.076,0.588-0.08,1.197-0.241,1.763c-0.548,1.92-1.814,2.88-3.845,3.153c-2.285,0.309-4.527,0.926-6.789,1.401
			c-0.49,0.103-0.998,0.132-1.479,0.264c-0.984,0.271-1.957,0.589-2.934,0.887c-0.921,0.281-1.867,0.497-2.759,0.852
			c-1.534,0.613-1.823,1.742-1.059,3.264c1.059,2.108,2.503,1.79,4.058,1.017c1.564-0.777,3.141-1.539,4.756-2.201
			c2.098-0.856,4.097,0.171,4.238,2.757c0.01,0.157,0.02,0.314,0.01,0.471c-0.096,1.684-0.275,3.365-0.277,5.047
			c-0.002,2.153,0.111,4.307,0.225,6.458c0.045,0.9,0.252,1.791,0.328,2.692c0.086,1.04-0.729,1.76-1.632,1.321
			c-0.99-0.481-1.896-1.175-2.748-1.881c-0.179-0.149-0.136-0.936,0.081-1.135c1.275-1.183,1.372-2.668,1.264-4.234
			c-0.154-2.279-0.303-4.558-0.476-6.836c-0.027-0.37-0.143-0.739-0.253-1.096c-0.281-0.904-1.359-1.758-2.427-1.278
			c-1.103,0.495-2.276,0.834-3.427,1.224c-0.729,0.25-1.475,0.491-1.529,1.423c-0.041,0.678,0.896,1.699,1.714,1.77
			c0.67,0.059,1.358-0.107,2.042-0.144c0.355-0.02,0.74-0.039,1.07,0.068c0.173,0.057,0.365,0.394,0.352,0.59
			c-0.014,0.177-0.268,0.41-0.466,0.485c-0.786,0.303-1.596,0.543-2.392,0.831c-0.291,0.104-0.711,0.204-0.805,0.422
			c-0.201,0.466-0.23,1.009-0.328,1.52c0.443,0.084,0.92,0.316,1.322,0.224c0.971-0.223,1.902-0.614,2.86-0.901
			c0.272-0.082,0.581-0.039,0.872-0.056C260.813,30.234,260.865,30.362,260.918,30.492z"/>
		<path d="M311.396,29.972c0.781-0.194,1.564-0.383,2.343-0.584c0.745-0.191,1.122,0.072,1.037,0.84
			c-0.139,1.262-0.736,2.336-1.67,3.166c-0.658,0.586-1.41,0.256-2.11-0.061c-1.597-0.717-3.187-1.445-4.796-2.132
			c-1.105-0.474-2.076-0.157-2.782,0.839c-0.651,0.916-1.259,1.869-1.958,2.746c-0.846,1.063-1.841,2.01-2.636,3.104
			c-0.779,1.07-1.399,2.259-2.068,3.408c-0.17,0.295-0.19,0.694-0.401,0.945c-0.227,0.264-0.582,0.534-0.9,0.559
			c-0.218,0.016-0.486-0.369-0.698-0.607c-0.447-0.5-0.897-1.003-1.3-1.541c-0.288-0.383-0.651-0.803-0.718-1.244
			c-0.25-1.703-0.456-3.418-0.555-5.135c-0.06-1.053,0.126-2.117,0.169-3.177c0.099-2.407,0.121-4.82,0.275-7.222
			c0.237-3.581,0.638-7.15,0.801-10.732c0.041-0.929-0.453-1.922-0.85-2.82c-0.375-0.845-0.323-1.281,0.541-1.609
			c0.406-0.156,0.84-0.254,1.27-0.335c3.441-0.646,6.863-1.346,10.085-2.805c0.26-0.118,0.739-0.102,0.924,0.065
			c0.173,0.157,0.231,0.692,0.096,0.898c-1.407,2.137-1.415,4.544-1.448,6.959c-0.015,1.311-0.115,2.619-0.156,3.928
			c-0.021,0.654-0.37,0.982-0.946,1.246c-2.069,0.949-4.118,1.94-6.163,2.933c-0.277,0.133-0.531,0.341-0.748,0.562
			c-0.814,0.831-0.695,1.248,0.376,1.678c1.416,0.569,2.828,1.151,4.211,1.794c0.624,0.291,1.07,0.161,1.521-0.272
			c1.518-1.46,2.876-3.045,3.875-4.913c0.059-0.111,0.129-0.216,0.209-0.313c0.414-0.503,0.884-0.967,1.592-0.633
			c0.579,0.273,0.846,1.499,0.362,2.016c-0.928,0.993-1.96,1.89-2.967,2.807c-0.46,0.419-1.015,0.744-1.431,1.199
			c-0.699,0.763-0.631,1.729,0.307,2.114c2.072,0.851,4.219,1.514,6.344,2.225c0.281,0.092,0.621,0.013,0.934,0.013
			C311.375,29.911,311.386,29.94,311.396,29.972z M294.802,36.361c0.009,0.001,0.016,0.001,0.022,0.002
			c-0.014,0.124-0.072,0.263-0.036,0.371c0.128,0.397,0.185,0.958,0.464,1.128c0.264,0.158,0.895,0.031,1.162-0.202
			c0.764-0.665,1.436-1.44,2.127-2.186c0.233-0.251,0.395-0.569,0.637-0.807c1.059-1.042,2.164-2.038,3.199-3.103
			c1.074-1.102,1.047-1.814-0.043-2.866c-0.215-0.207-0.525-0.313-0.794-0.461c-1.08-0.599-2.226-1.105-3.216-1.825
			c-0.622-0.454-1.154-0.911-1.914-0.561c-0.75,0.346-1.031,1.021-1.074,1.84C295.174,30.584,294.981,33.474,294.802,36.361z
			 M296.318,12.166c0.008,1.519,0.916,2.182,2.338,1.658c0.67-0.248,1.291-0.623,1.948-0.905c1.18-0.504,1.374-0.931,1.027-2.153
			c-0.283-0.999-1.081-1.115-1.905-1.19C297.898,9.407,296.313,10.624,296.318,12.166z M297.283,19.231
			c1.547-0.606,3.041-1.016,4.126-2.157c0.246-0.26,0.227-0.88,0.147-1.3c-0.045-0.227-0.465-0.523-0.734-0.542
			c-1.697-0.118-3.141,0.554-4.287,1.74c-0.319,0.33-0.408,1.058-0.309,1.544C296.285,18.812,296.905,18.993,297.283,19.231z"/>
		<path d="M214.466,32.722c0.337,0.169,0.56,0.373,0.792,0.385c1.642,0.073,3.287,0.176,4.927,0.135
			c1.991-0.047,3.978-0.221,5.966-0.354c1.395-0.094,2.822-0.061,4.172-0.361c1.09-0.244,2.071-0.947,3.136-1.358
			c0.373-0.144,1.013-0.204,1.24,0.01c0.554,0.521,0.476,1.307-0.077,1.758c-1.427,1.163-2.878,2.325-4.452,3.269
			c-0.648,0.389-1.634,0.268-2.47,0.291c-1.997,0.059-3.996,0.113-5.992,0.08c-2.651-0.042-5.302-0.201-7.952-0.248
			c-2.686-0.05-5.373-0.023-8.059-0.034c-2.817-0.011-5.632-0.049-8.446-0.024c-0.932,0.009-1.871,0.134-2.791,0.287
			c-0.821,0.135-1.592-0.259-1.729-0.998c-0.121-0.645,0.529-1.355,1.333-1.372c2.462-0.056,4.926-0.046,7.389-0.124
			c2.844-0.09,5.688-0.246,8.531-0.373c0.094-0.005,0.2-0.003,0.276-0.047c0.498-0.278,0.99-0.569,1.484-0.854
			c-0.331-0.53-0.589-1.13-1.008-1.576c-0.743-0.788-1.612-1.457-2.376-2.231c-0.541-0.551-0.323-1.307,0.405-1.576
			c2.011-0.743,4.043-1.433,6.035-2.225c1.12-0.444,2.2-1.005,3.259-1.588c1.002-0.552,1.647-0.314,1.946,0.812
			c0.234,0.872,0.651,1.732,0.684,2.609c0.036,0.963-0.22,1.955-0.474,2.901c-0.063,0.232-0.611,0.346-0.946,0.492
			c-1.05,0.458-2.113,0.885-3.152,1.363C215.596,32.011,215.117,32.341,214.466,32.722z M218.902,26.998
			c-0.029-0.768-0.392-1.211-1.123-1.109c-2.201,0.306-3.877,1.802-5.825,2.686c-0.196,0.09-0.321,0.833-0.172,1.103
			c0.672,1.207,1.822,1.459,3.049,0.816c0.606-0.316,1.255-0.546,1.87-0.847C217.563,29.228,219.012,27.998,218.902,26.998z"/>
		<path d="M157.998,23.73c1.497,0.075,2.994,0.204,4.49,0.204c0.665,0,1.326-0.283,1.996-0.395c0.762-0.128,1.547-0.15,2.299-0.322
			c1.309-0.299,2.586-0.889,3.901-0.978c2.478-0.167,4.519-1.587,6.855-2.094c1.403-0.305,2.826-0.519,4.22-0.859
			c0.883-0.215,1.698-0.558,2.602-0.014c0.59,0.355,0.917,0.764,0.742,1.443c-0.215,0.838-0.469,1.667-0.717,2.496
			c-0.236,0.785-0.882,0.869-1.519,0.738c-0.662-0.135-1.192-0.508-1.277-1.285c-0.16-1.46-1.054-1.908-2.339-1.248
			c-0.75,0.385-1.557,0.65-2.332,0.989c-0.276,0.122-0.584,0.258-0.772,0.477c-0.18,0.212-0.367,0.6-0.285,0.803
			c0.08,0.2,0.496,0.375,0.763,0.372c2.089-0.024,1.646,0.517,1.185,1.872c-0.492,1.444-0.393,1.653,0.928,2.473
			c0.189,0.12,0.456,0.407,0.416,0.534c-0.079,0.262-0.297,0.592-0.535,0.678c-1.809,0.651-3.643,1.232-5.455,1.873
			c-0.928,0.328-1.816,0.77-2.746,1.093c-0.836,0.292-1.597,0.124-2.217-0.565c-0.711-0.789-1.478-1.53-2.158-2.346
			c-0.999-1.196-0.697-2.012,0.809-2.229c0.834-0.122,1.682-0.179,2.525-0.221c1.811-0.088,3.416-0.769,4.875-1.772
			c0.291-0.199,0.483-0.833,0.398-1.19c-0.056-0.233-0.689-0.337-1.069-0.481c-0.079-0.03-0.188,0.006-0.276,0.034
			c-2.102,0.648-4.184,1.37-6.311,1.923c-1.252,0.325-2.57,0.422-3.867,0.549c-1.752,0.173-1.989,0.41-2.405,2.121
			c-0.315,1.298-0.775,2.561-1.203,3.829c-0.086,0.252-0.272,0.525-0.492,0.664c-0.346,0.215-0.759,0.324-1.143,0.478
			c-0.149-0.458-0.49-0.95-0.416-1.37c0.374-2.14-0.191-4.025-1.435-5.721c-0.567-0.773-0.185-1.405,0.175-1.979
			c0.188-0.302,0.735-0.4,1.139-0.539c0.195-0.067,0.433-0.012,0.652-0.012C157.998,23.744,157.998,23.737,157.998,23.73z
			 M176.195,28.46c0.008-0.88-0.516-1.4-1.174-1.254c-0.908,0.198-1.88,0.376-2.645,0.85c-0.468,0.29-0.598,1.124-0.879,1.713
			c0.396,0.174,0.855,0.57,1.18,0.48c1.014-0.277,1.993-0.705,2.95-1.15C175.916,28.965,176.086,28.586,176.195,28.46z"/>
		<path d="M364.186,21.941c0.053-1.311-0.044-2.631,0.051-3.939c0.183-2.462,0.453-4.917,0.694-7.374
			c0.077-0.78-0.491-1.498-1.302-1.517c-0.461-0.01-0.932,0.065-1.388,0.158c-1.622,0.333-3.236,0.702-4.858,1.026
			c-0.925,0.185-2.441-0.561-2.84-1.346c-0.305-0.6,0.172-1.57,0.914-1.642c0.67-0.064,1.359,0.108,2.04,0.128
			c0.994,0.028,1.989,0.026,2.981,0.013c0.594-0.008,1.19-0.025,1.778-0.099c1.017-0.125,2.047-0.219,3.034-0.472
			c1.194-0.303,2.003,0.293,1.901,1.502c-0.146,1.707-0.246,3.418-0.382,5.125c-0.145,1.805-0.342,3.605-0.459,5.411
			c-0.211,3.244-0.326,6.496-0.582,9.736c-0.195,2.452-0.611,4.886-0.803,7.339c-0.098,1.26,0.182,2.549,0.096,3.813
			c-0.065,0.932-0.396,1.861-0.721,2.752c-0.084,0.227-0.668,0.488-0.901,0.404c-0.767-0.282-1.506-0.67-2.204-1.102
			c-2.02-1.245-3.9-2.736-6.267-3.323c-0.997-0.247-2.005-0.468-2.968-0.817c-0.299-0.11-0.459-0.602-0.684-0.918
			c0.362-0.141,0.761-0.457,1.082-0.393c2.292,0.463,4.561,1.047,6.854,1.502c0.941,0.186,1.933,0.232,2.89,0.168
			c0.381-0.025,0.988-0.47,1.053-0.807c0.35-1.865,0.564-3.758,0.826-5.641C363.93,31.62,364.057,25.161,364.186,21.941z"/>
		<path d="M209.732,25.642c-0.323-0.16-0.887-0.35-1.338-0.688c-0.51-0.383-0.33-1.464,0.299-1.729
			c1.088-0.458,2.234-0.783,3.327-1.236c0.893-0.37,1.776-0.786,2.596-1.294c0.616-0.382,1.2-1,0.881-1.79
			c-0.33-0.815-1.133-0.857-1.854-0.544c-1.31,0.568-2.611,1.161-3.864,1.84c-0.986,0.534-1.56,0.405-2.121-0.571
			c-0.822-1.428-1.712-2.813-2.537-4.237c-0.119-0.204-0.131-0.568-0.027-0.776c0.233-0.47,0.555-0.901,0.871-1.326
			c0.394-0.531,0.912-0.812,1.545-0.451c0.707,0.406,1.414,0.816,1.247,1.871c-0.101,0.637-0.116,1.316-0.007,1.948
			c0.165,0.959,0.875,1.279,1.752,0.869c1.156-0.54,2.306-1.097,3.445-1.671c0.928-0.467,1.209-1.651,0.566-2.469
			c-0.518-0.658-1.156-1.226-1.638-1.908c-0.506-0.717-0.277-1.199,0.569-1.474c1.848-0.6,3.31,0.202,3.765,2.075
			c0.089,0.364,0.104,0.747,0.198,1.109c0.201,0.77,0.871,1,1.502,0.531c0.301-0.224,0.563-0.546,0.9-0.664
			c0.268-0.093,0.617,0.06,0.932,0.104c-0.052,0.316-0.031,0.673-0.176,0.934c-0.125,0.218-0.426,0.391-0.684,0.47
			c-1.326,0.403-2.139,1.463-3.099,2.343c-0.551,0.504-0.392,0.986-0.073,1.506c0.32,0.524,0.728,0.869,1.389,0.656
			c1.098-0.353,2.184-0.754,3.297-1.051c0.318-0.084,0.713,0.123,1.072,0.194c-0.119,0.288-0.168,0.647-0.371,0.852
			c-1.311,1.316-2.713,2.291-4.712,2.589c-1.413,0.212-2.759,1.224-4.013,2.06C212.293,24.436,211.424,25.48,209.732,25.642z"/>
		<path d="M178.189,16c-0.784-0.723-1.228-0.798-2.165-0.242c-1.948,1.157-4.041,1.683-6.323,1.729
			c-2.493,0.051-4.918,0.463-6.808,2.401c-0.378,0.387-1.06,0.477-1.6,0.704c0.089-0.549,0.013-1.215,0.302-1.622
			c0.657-0.927,1.491-1.732,2.265-2.576c0.624-0.682,1.349-1.292,1.87-2.043c0.408-0.591,0.282-1.289-0.18-1.927
			c-0.727-1.002-0.647-2.217,0.109-3.01c0.565-0.59,2.215-0.679,2.984-0.003c0.354,0.311,0.637,0.987,0.566,1.437
			c-0.145,0.91-0.6,1.768-0.828,2.671c-0.111,0.44-0.164,1.052,0.062,1.368c0.178,0.248,0.86,0.3,1.253,0.194
			c0.965-0.256,1.885-0.366,2.846-0.014c0.663,0.243,1.231,0.015,1.689-0.5c0.455-0.515,0.927-1.018,1.352-1.559
			c0.686-0.871,0.888-1.79,0.143-2.747c-0.059-0.074-0.126-0.156-0.142-0.242c-0.093-0.53-0.171-1.06-0.255-1.591
			c0.505,0.12,1.014,0.232,1.515,0.367c0.21,0.056,0.407,0.163,0.605,0.255c1.308,0.601,1.695,1.477,1.162,2.798
			c-0.228,0.566-0.474,1.195,0.195,1.462c0.738,0.294,1.588,0.341,2.394,0.389c0.066,0.003,0.281-0.808,0.254-1.228
			c-0.089-1.323,0.739-2.354,1.965-2.341c0.953,0.011,1.41,0.639,0.981,1.494c-0.282,0.563-0.761,1.026-1.141,1.54
			c-0.197,0.267-0.374,0.548-0.559,0.822c0.272,0.169,0.53,0.376,0.822,0.497c0.511,0.209,1.261,0.298,1.114,1.011
			c-0.124,0.607-0.729,0.842-1.415,0.816c-1.269-0.045-2.539-0.012-3.81-0.012C179.385,16.423,178.505,16.292,178.189,16z"/>
		<path d="M170.107,34.522c2.422-0.666,4.857-1.293,7.279-1.963c0.6-0.166,1.164-0.455,1.754-0.662
			c0.381-0.131,0.788-0.325,1.166-0.291c0.492,0.044,1.087,0.17,1.395,0.492c0.158,0.166-0.115,0.898-0.356,1.265
			c-0.837,1.269-0.896,2.635-0.644,4.054c0.236,1.335,0.252,1.34-1.025,1.635c-1.002,0.231-2.082,0.277-2.996,0.693
			c-1.378,0.627-2.672,1.457-3.947,2.285c-1.752,1.138-2.285,0.994-3.279-0.223c-0.748-0.914-1.615-1.75-2.512-2.52
			c-0.697-0.596-1.508-1.072-2.306-1.533c-0.576-0.332-1.409-0.609-1.05-1.369c0.216-0.458,1.049-0.625,1.604-0.922
			C165.25,35.608,169.093,34.802,170.107,34.522z M172.988,39.318c2.023-0.812,3.979-1.533,5.863-2.411
			c0.285-0.132,0.451-1.071,0.28-1.469c-0.165-0.387-0.814-0.708-1.293-0.779c-0.528-0.078-1.102,0.162-1.659,0.259
			c-1.533,0.263-2.981,0.681-4.063,1.925c-0.374,0.432-0.973,0.827-0.594,1.414C171.804,38.69,172.406,38.915,172.988,39.318z"/>
		<path d="M285.699,14.905c0.092-1.274-0.291-1.706-1.43-2.211c-0.334-0.148-0.758-0.603-0.74-0.891
			c0.016-0.296,0.535-0.806,0.819-0.796c0.946,0.037,1.943,0.117,2.81,0.458c0.789,0.312,0.766,1.214,0.691,1.986
			c-0.191,1.994-0.406,3.984-0.577,5.978c-0.067,0.778-0.06,1.564-0.063,2.346c-0.011,1.459-0.382,1.831-1.82,1.791
			c-1.84-0.051-2.469,0.779-2.26,2.66c0.098,0.856-0.058,1.781-0.298,2.617c-0.188,0.651-0.913,0.828-1.495,0.578
			c-0.375-0.161-0.729-0.619-0.868-1.02c-0.313-0.913-0.548-1.863-0.696-2.816c-0.078-0.494-0.033-1.076,0.163-1.529
			c0.86-2.006,0.772-2.46-0.708-3.991c-0.337-0.348-0.617-1.022-0.508-1.436c0.082-0.307,0.818-0.498,1.295-0.628
			c0.411-0.113,0.871-0.038,1.304-0.095c1.134-0.149,1.946,0.544,1.97,1.696c0.008,0.436-0.076,0.917,0.084,1.293
			c0.143,0.333,0.537,0.709,0.869,0.765c0.279,0.046,0.836-0.281,0.911-0.546c0.218-0.766,0.255-1.584,0.364-2.381
			C285.426,18.72,285.611,16.173,285.699,14.905z"/>
		<path d="M333.289,29.636c-0.184-0.095-0.521-0.245-0.837-0.434c-1.144-0.686-1.614-0.606-2.732,0.107
			c-2.038,1.299-4.121,2.529-6.202,3.761c-0.598,0.353-1.383-0.155-1.591-0.993c-0.274-1.119-0.591-2.236-0.765-3.372
			c-0.074-0.469,0.007-1.152,0.307-1.449c0.822-0.82,1.795-1.489,2.71-2.219c0.412-0.328,0.831-0.65,1.237-0.99
			c0.932-0.783,1.836-1.6,2.801-2.345c0.217-0.168,0.723-0.252,0.916-0.118c2.318,1.606,4.488,3.383,5.716,6.022
			C335.276,28.526,334.461,29.661,333.289,29.636z M331.813,26.651c-0.332-0.404-0.607-0.801-0.949-1.131
			c-0.288-0.277-0.723-0.422-0.969-0.724c-0.851-1.049-1.766-0.79-2.552,0.098c-0.88,0.993-1.601,2.142-2.284,3.287
			c-0.188,0.316-0.116,0.925,0.07,1.275c0.104,0.191,0.748,0.261,1.059,0.145c1.648-0.617,3.271-1.309,4.904-1.978
			c0.057-0.023,0.13-0.045,0.16-0.092C331.418,27.285,331.572,27.032,331.813,26.651z"/>
		<path d="M353.891,29.096c-0.498,0-1.004-0.05-1.496,0.009c-1.651,0.201-1.768,0.398-2.229,2.007
			c-0.139,0.485-0.73,0.842-1.112,1.256c-0.394-0.365-0.954-0.658-1.152-1.109c-0.733-1.656-1.333-3.37-2.012-5.05
			c-0.276-0.681-0.744-1.302-0.904-2.001c-0.196-0.85,0.345-1.395,1.224-1.256c2.035,0.316,3.958-0.261,5.918-0.595
			c1.339-0.23,2.696-0.352,4.047-0.525c0.92-0.119,1.268,0.415,1.271,1.208c0.001,0.65-0.091,1.306-0.198,1.949
			c-0.15,0.891-0.424,1.765-0.521,2.659c-0.1,0.913-0.586,1.347-1.426,1.443c-0.464,0.054-0.938,0.011-1.406,0.011
			C353.891,29.099,353.891,29.098,353.891,29.096z M351.361,27.881c1.951-0.366,3.26-0.644,3.572-2.421
			c0.152-0.863-0.286-1.611-1.133-1.57c-1.133,0.054-2.266,0.272-3.382,0.506c-0.692,0.146-1.222,0.575-1.048,1.403
			C349.613,26.944,350.556,27.899,351.361,27.881z"/>
		<path d="M198.502,22.947c0.738-0.075,1.476-0.162,2.215-0.224c1.084-0.092,2.064,0.056,2.991,0.771
			c0.888,0.686,1.024,1.539,0.897,2.487c-0.127,0.942-0.695,1.228-1.623,0.922c-1.379-0.452-2.889-0.574-4.027-1.64
			c-0.186-0.174-0.52-0.26-0.786-0.263c-0.801-0.009-1.04-0.457-0.985-1.156C197.244,23.042,197.788,22.825,198.502,22.947z"/>
		<path d="M357.413,14.463c0.312-0.023,0.632-0.109,0.931-0.055c0.236,0.042,0.569,0.216,0.623,0.401
			c0.057,0.193-0.1,0.584-0.28,0.69c-2.048,1.212-4.204,2.22-6.636,2.137c-1.124-0.039-2.237-0.477-3.344-0.78
			c-0.189-0.053-0.443-0.342-0.436-0.512c0.01-0.233,0.188-0.551,0.389-0.665c0.283-0.161,0.65-0.185,0.986-0.237
			c1.876-0.289,3.753-0.575,5.631-0.845c0.705-0.103,1.416-0.157,2.124-0.235C357.405,14.396,357.408,14.431,357.413,14.463z"/>
		<path d="M202.553,31.96c-1.513-0.725-2.971-1.396-4.396-2.135c-0.173-0.089-0.296-0.72-0.21-0.785
			c0.318-0.235,0.744-0.483,1.113-0.462c1.275,0.078,2.544,0.263,3.814,0.412c0.434,0.05,0.876,0.073,1.294,0.184
			c0.804,0.219,0.982,0.785,0.371,1.35C203.982,31.041,203.305,31.427,202.553,31.96z"/>
		<path d="M316.414,18.761c0.004-0.719,0.246-1,0.861-0.641c0.939,0.548,1.932,0.614,2.979,0.436c0.29-0.049,0.62,0.024,0.912,0.112
			c0.831,0.244,0.919,0.532,0.313,1.119c-0.636,0.618-1.305,1.208-2.002,1.752c-0.178,0.137-0.643,0.182-0.773,0.059
			c-0.764-0.725-1.479-1.504-2.18-2.293C316.403,19.166,316.438,18.889,316.414,18.761z"/>
		<path d="M332,16.888c0.42,0.056,0.953,0.085,1.467,0.206c0.852,0.199,1.02,0.747,0.49,1.455c-1.033,1.383-3.482,1.177-4.279-0.378
			c-0.326-0.635,0.114-0.964,0.63-1.097C330.814,16.942,331.358,16.951,332,16.888z"/>
		<path d="M157.516,14.668c0.073-0.104,0.211-0.534,0.445-0.599c0.764-0.207,1.561-0.322,2.351-0.371
			c0.159-0.011,0.517,0.446,0.489,0.648c-0.1,0.737-0.263,1.48-0.521,2.177c-0.18,0.483-0.582,0.813-1.199,0.574
			C158.469,16.86,157.537,15.57,157.516,14.668z"/>
		<path d="M174.471,11.496c-0.037,0.922-1.398,1.969-2.062,1.807c-0.597-0.146-0.798-0.716-0.409-1.242
			c0.26-0.35,0.539-0.704,0.877-0.971c0.289-0.228,0.785-0.552,0.988-0.447C174.189,10.81,174.346,11.301,174.471,11.496z"/>
	</g>
</g>
</svg>
