<?xml version="1.0" encoding="UTF-8"?>
<svg id="_圖層_1" data-name="圖層_1" xmlns="http://www.w3.org/2000/svg" xmlns:xlink="http://www.w3.org/1999/xlink" version="1.1" viewBox="0 0 566.93 566.93">
  <!-- Generator: Adobe Illustrator 29.0.0, SVG Export Plug-In . SVG Version: 2.1.0 Build 186)  -->
  <defs>
    <style>
      .st0 {
        fill: none;
      }

      .st1 {
        fill: url(#_未命名漸層_45);
      }

      .st2 {
        fill: #fbfbe2;
      }

      .st3 {
        fill: #fff;
      }

      .st4 {
        fill: url(#_未命名漸層_251);
      }

      .st5 {
        fill: url(#_未命名漸層_255);
      }

      .st6 {
        fill: #8bc777;
      }

      .st7 {
        fill: #142c31;
      }
    </style>
    <linearGradient id="_未命名漸層_45" data-name="未命名漸層 45" x1="68.29" y1="319.48" x2="515.24" y2="250.77" gradientUnits="userSpaceOnUse">
      <stop offset="0" stop-color="#e72918"/>
      <stop offset=".14" stop-color="#e72e19"/>
      <stop offset=".31" stop-color="#e93e1f"/>
      <stop offset=".5" stop-color="#ec5928"/>
      <stop offset=".71" stop-color="#f17e35"/>
      <stop offset=".93" stop-color="#f7ad45"/>
      <stop offset="1" stop-color="#f9bd4b"/>
    </linearGradient>
    <linearGradient id="_未命名漸層_251" data-name="未命名漸層 251" x1="255.06" y1="130.77" x2="237.67" y2="125.05" gradientUnits="userSpaceOnUse">
      <stop offset="0" stop-color="#e6e2d0"/>
      <stop offset=".28" stop-color="#ded1b5"/>
      <stop offset=".88" stop-color="#cca871"/>
      <stop offset="1" stop-color="#c9a063"/>
    </linearGradient>
    <linearGradient id="_未命名漸層_255" data-name="未命名漸層 255" x1="370.66" y1="220.56" x2="217.8" y2="315.75" gradientUnits="userSpaceOnUse">
      <stop offset="0" stop-color="#e6e2d0"/>
      <stop offset=".21" stop-color="#e5dfcc"/>
      <stop offset=".4" stop-color="#e2d9c1"/>
      <stop offset=".58" stop-color="#ddceaf"/>
      <stop offset=".75" stop-color="#d6be95"/>
      <stop offset=".92" stop-color="#cdaa74"/>
      <stop offset="1" stop-color="#c9a063"/>
    </linearGradient>
  </defs>
  <circle class="st7" cx="283.46" cy="283.46" r="283.46"/>
  <g>
    <circle class="st7" cx="283.46" cy="283.46" r="219.8"/>
    <path class="st3" d="M283.46,63.66c121.39,0,219.8,98.41,219.8,219.8s-98.41,219.8-219.8,219.8S63.66,404.86,63.66,283.46,162.07,63.66,283.46,63.66M283.46,55.31c-60.94,0-118.23,23.73-161.33,66.82-43.09,43.09-66.82,100.39-66.82,161.33s23.73,118.23,66.82,161.33,100.39,66.82,161.33,66.82,118.23-23.73,161.33-66.82c43.09-43.09,66.82-100.39,66.82-161.33s-23.73-118.23-66.82-161.33c-43.09-43.09-100.39-66.82-161.33-66.82h0Z"/>
  </g>
  <g>
    <path class="st1" d="M471.31,345.55c-.86-8.49-2.03-11.09-3.89-17.19,0,0,0,.03,0,.05-2-7.45-5.6-13.93-7.52-18.41,1.4-6.09,1.87-12.62,1.17-20.48-1.6-18.05-8.72-29.96-17.57-40.28-6.07-7.08-16.62-15.91-23.85-21.08-5.15-9.22-12.89-18.06-24.38-25.82-13.32-9-23.26-12.03-27.18-12.85-5.22-1.09-10.22-1.98-13.85-3.06-.31-.1-.62-.2-.93-.3-.29-.1-.6-.19-.86-.29-.05-.02-.06,0-.09,0-10.91-3.25-26.45-6.32-32.8-18.18-8.07-15.09-14.03-22.37-25.53-30.9-1.49-1.1-3.25-2.21-5.17-3.29,1.39-5.47,3.56-16.74,2.28-30.5-1.8-19.37-7.39-26.37-8.2-27.4-1.34-1.69-1.95-1.75-3.72-.81-1.48.79-9.5,4.7-16.51,16.18-3.16-15.22-4.5-15.97-6.31-16.3-5.17-.96-29,13.1-40.84,30.74-8.67,12.9-12.83,23.88-12.33,41.5-4.19,2.3-24.74,13.67-41.66,31.18-23.59,24.41-34.79,47.57-42.12,75.18,0,.01,0,.02,0,.03-2.31,3.52-4.56,7.13-6.7,10.87-33.07,57.76-22.7,114.22-.33,147.3,25.82,38.17,66.82,61.08,73.69,64.21,26.74,15.45,57.78,23.02,88.61,24.27,2.63.11,5.24.16,7.85.16,56.67,0,111.35-22.16,136.33-60.68,7.35-1.56,30.77-11.65,42.31-33.93,3.99-8.6,4.48-12.69,5.91-22.5,1.06-7.22,2.06-12.7,2.92-18.31,1.51-9.81,1.98-12.17,1.28-19.12ZM295.22,302.98c-1.97-3.97-3.87-7.39-5.71-10.71-5.72-10.3-10.92-19.74-11.19-32.95-.35-17.73,12.68-22.79,23.99-23.47,2.98-.18,6.14-.2,9.48-.21,11.96-.06,25.51-.13,37.84-7.89,11.41-7.18,18.5-16.49,20.19-23.42,2.02,11.19,2.32,17.42,1.58,25.86-.47,5.33-2.2,8.74-3.37,12.99-.42,1.54-1.38,4.42-1.28,8.12-1.98-1.7-4.24-3.21-6.84-4.58-.98-.51-8.17-4.96-9-3.38-.49.94.98,3.99,1.09,10.2.08,4.71-.21,8.84-.42,13.47-.07,1.44-.06,2.67,0,3.79-1.13-1.22-1.93-1.94-2.03-2.02-1.02-.88-4.28-4.03-5.26-3.12-.66.61-.34,2.4-.26,5.85,0,.14.49,10.79-4.88,19.87-1.54,2.61-4.17,5.94-5.81,7.63-3.97,4.1-8.99,6.9-13.87,17.8-6.04,13.5.66,30.59,2.46,35.05-3.74,2.47-8.22,4.78-12.29,6.56.53-20.36-6.43-39.34-14.41-55.43Z"/>
    <g>
      <path class="st3" d="M296.81,188.41c-4.08,0-8.94.66-14.52-1.29-6.77-2.36-9.56-5.6-13.48-7.81-2.1-1.18-6.42-3.6-6.42-3.6,0,0,4.07,2.74,6.51,5.2,3.7,3.73,5.72,6.54,12.51,8.81,6.51,2.18,9.91.58,15.03.13,4.62-.41,8.25-.52,8.25-.52,0,0-3.81-.91-7.89-.92Z"/>
      <path class="st7" d="M282.29,187.12c5.58,1.94,10.44,1.28,14.52,1.29,4.08,0,7.89.92,7.89.92,0,0-7.42-11.33-15.13-14.82-7.71-3.5-13.1-.76-19.69.53-3.92.77-7.49.68-7.49.68,0,0,4.32,2.42,6.42,3.6,3.92,2.21,6.71,5.46,13.48,7.81Z"/>
    </g>
    <g>
      <path class="st3" d="M255.49,82.66c-.19-1.05-.38-1.96-.6-2.59-5.77,3.35-20.49,11.47-32.1,28.38-11.32,16.5-15.41,28.81-14.5,55.49.05,1.45.22,4.79-.18,6.03,1.92-3.95,1.94-32.19,14.73-52.87,12.32-19.92,27.8-31.22,32.65-34.45Z"/>
      <path class="st3" d="M148.88,235.24c28.57-34.87,59.89-55.26,56.35-55.9h0c1.25.6-2.75,2.82-6.63,5.36-2.99,1.96-7.83,5.43-7.83,5.43-25.36,18.88-47.6,37.37-66.85,71-24.44,42.7-25.63,86.06-16.19,118.75-5.8-78.98,18.41-116.89,41.15-144.65Z"/>
      <path class="st3" d="M204.15,158.99c-.26-2.24-.48-4.4-.64-6.46-3.36,2.04-20.04,12.5-35.86,29.5-14.53,15.62-25.8,30.58-34.64,52.79,1.3-1.59,2.62-3.14,3.95-4.67,7.22-11.16,19.13-28.57,29.91-39.78,20.24-21.06,34.38-29.71,37.28-31.37Z"/>
      <path class="st3" d="M280.04,82.79c-3.82,3.04-11.14,8.9-15.72,19.45.17,2.34.26,4.96.21,7.79,6.17-12.33,9.33-17.55,16.53-25.11-.36-.84-.71-1.55-1.03-2.13Z"/>
      <path class="st3" d="M396.53,239.7c-1.56-24.63-20.53-40.55-26.14-44.75-.02,0-.05-.01-.07-.02,10.17,11.2,16.26,18.57,20.48,33.41,3.7,13.01,1.34,32.71-6.59,47.21-3.11,5.69-6.26,9.26-9.59,13.03-3.24,3.67-5.28,6.44-10.35,13.77-6.37,9.22-11.64,19.9-15.06,30.45-1.23,3.8-2.7,7.49-4.36,11.07,14.83-25.07,20.64-35.07,30.93-47.45,16.26-19.55,22.52-28.78,20.75-56.73Z"/>
      <path class="st3" d="M252.96,405.17c51.81,6.37,77.74-32.55,87.8-53.47-16.47,28.45-46.54,47.8-79.44,47.8-45.7,0-85.07-35.19-87.52-79.43,0,.04-2.39,75.07,79.15,85.09Z"/>
      <path class="st3" d="M206.95,306.76c11.82,30.73,33.1,46.48,49.59,53.85.38.12.75.24,1.13.35-20.9-10.32-38.94-30.64-46.68-57.86-6.6-23.22-7-46.07.62-66.5.29-.77.85-2.35,1.52-3.78l-.11.11s-20.12,37.28-6.07,73.82Z"/>
      <path class="st3" d="M226.89,361.54c54.02,38.83,96.62-.28,106.61-10.89.1-.16.22-.31.32-.47-15.79,13.77-35.8,21.97-56.29,21.97-48.13,0-85.69-40.68-85.9-93.21-.07-16.46,3.84-32.34,11.69-46.21-10.74,18.01-41.8,81.82,23.57,128.81Z"/>
      <path class="st3" d="M229.72,442.08c50.7,16.98,84.7-10.66,96.36-24.32,19.06-.11,43.46-8.88,51.71-23.95,12.89-23.53,12.89-29.27,22.89-47.41,7.27-13.2,21.95-19.56,27.25-39.95,3.94-15.14,2.78-26.01,1.63-31.43-.03-.06-.07-.12-.1-.18-.02,8.16-.92,15.24-3.76,24.91-3.56,12.11-11.43,22.43-23.82,36.14-7.66,8.48-19.17,32.93-23.91,44.4-.97,3.01-2.21,5.85-3.75,8.52-7.45,12.9-16.76,19.89-30.4,23.98-5.89,1.77-12.08,2.42-16.87,2.42-1.72,0-3.45-.12-5.18-.29-16.78,16.97-38.54,26.73-61.59,26.73-58.91,0-104.53-57.08-105.65-136.54-.06-4.12.05-8.21.3-12.25-2.49,24.73-6.8,121.86,74.9,149.22Z"/>
      <path class="st3" d="M362.52,382.16c7.99-9.13,10.57-23.12,11.38-32.25-1.66,7.46-3.99,14.92-7.21,20.28-7.16,11.95-14.11,16.64-27.56,21.27-.87,1.59-1.78,3.15-2.72,4.68,5.89-1.42,18.53-5.32,26.11-13.98Z"/>
      <path class="st3" d="M344.6,293.51c-2.26,4.25-4.78,7.28-7.18,10.26-3.34,4.15-6.95,6.27-11.35,16.1-4.18,9.35-1.95,21.83-.33,28.21,1.41-1.08,2.79-2.21,4.14-3.38-1.25-4.73-3.12-14.36-.07-21.81,5.18-12.65,14.21-18.17,18.41-32.33,1.55-5.22,1.45-10.32.94-14.24,0-.01-.01-.03-.02-.04-.7,5.37-.7,10.04-4.53,17.25Z"/>
      <path class="st3" d="M355.15,193.71c-1.66.29-3.29.7-4.74,1.25-3.3-.6-6.89-1.33-9.78-2.14-11-3.08-20.54-7.03-29.15-20.29-6.96-10.72-11.17-16.06-20.01-22.57-8.18-6.03-22.61-11.02-31.85-13.91.45-1.14.88-2.29,1.27-3.48.37-1.13.71-2.26,1.01-3.38,4.04,1.46,20.6,7.61,29.13,12.87,11.22,6.9,16.98,13.8,24.42,27.71,7.73,14.45,23.99,19.18,35.35,22.61l4.34,1.35Z"/>
    </g>
    <g>
      <path class="st0" d="M364.32,284.7c.1,0,.21,0,.31,0,6.09-.36,9.36-10.91,6.92-18.06-2.44-7.15-7.42-11.3-14.85-16.03,0,0,.45,9.17.24,17.42.12,6.65,1.56,16.67,7.36,16.67Z"/>
      <path class="st0" d="M311.81,238.98c-3.29.02-6.4.03-9.29.21-14.08.85-21.1,7.6-20.85,20.07.25,12.44,5.12,21.22,10.77,31.39,1.86,3.34,3.77,6.8,5.78,10.84,9.47,19.1,14.22,35.68,14.74,51.67,1.71-.86,3.34-1.76,4.86-2.67-5.05-13.73-5.54-25.8-1.4-35.05,4.12-9.2,8.48-13.17,11.99-16.36.9-.82,1.76-1.6,2.54-2.4,1.46-1.51,3.91-4.61,5.33-7.01,4.73-7.99,4.43-17.62,4.42-18.08-.02-.85-.06-1.59-.09-2.23-.12-2.59-.22-4.64,1.42-6.15.73-.68,1.7-1.05,2.73-1.05,1.24,0,2.44.53,3.66,1.36.17-3.32.31-6.48.26-9.93-.05-3.19-.5-5.44-.82-7.07-.36-1.83-.65-3.28.12-4.73.7-1.33,2.09-2.12,3.71-2.12,2.21,0,5.17,1.45,9.23,3.78.26.15.46.27.57.32.9.47,1.75.96,2.57,1.46.22-.97.45-1.79.64-2.45l.14-.48c.38-1.39.82-2.68,1.24-3.92.89-2.66,1.74-5.17,2.03-8.47.46-5.19.48-9.5-.01-14.53-3.93,5.49-9.73,10.85-16.65,15.21-13.13,8.27-27.19,8.34-39.6,8.41Z"/>
      <polygon class="st0" points="344.73 265.5 344.73 265.5 344.73 265.5 344.73 265.5"/>
      <path class="st0" d="M337.42,303.77c-3.34,4.15-6.95,6.27-11.35,16.1-4.18,9.35-1.95,21.83-.33,28.21,1.41-1.08,2.79-2.21,4.14-3.38,4.84-4.21,9.27-9.06,13.19-14.51,2.6-7.83,6.38-15.37,10.44-22.6,2.46-7.84,1.61-14.29-.47-21.43-.65-2.25-2.79-8.05-3.88-9.85,0-.01-.01-.03-.02-.04-.7,5.37-.7,10.04-4.53,17.25-2.26,4.25-4.78,7.28-7.18,10.26Z"/>
      <path class="st0" d="M368.35,385.61c4.87-8.87,6.75-17.58,5.56-35.73,0,.02,0,.03-.01.05-1.66,7.46-3.99,14.92-7.21,20.28-7.16,11.95-14.11,16.64-27.56,21.27-.87,1.59-1.78,3.15-2.72,4.68-2.71,4.42-5.69,8.58-8.9,12.43,3.91.02,7.56-.58,11.75-1.77,13.74-3.91,23.53-11.04,29.1-21.21Z"/>
      <path class="st0" d="M376.05,415.12c-4.25,4.91-5.68,8.55-8.77,14.16-.58,1.06-1.22,2.12-1.89,3.19,4.69-.29,15.5-1.15,22.1-3.13,9.87-2.96,17.66-5.36,25.24-12.12,10.97-9.79,16.88-22.72,20-34.36,1.1-6.22,1.98-12.62,2.96-19.8l.66-4.82c.41-2.98.82-5.8,1.2-8.49,2.61-18.19,4.34-30.2,1.67-47.56-1.93-12.53-6.07-20.67-9.65-27.16-.03-.06-.07-.12-.1-.18-.02,8.16-.92,15.24-3.76,24.91-3.56,12.11-11.43,22.43-23.82,36.14-7.66,8.48-19.17,32.93-23.91,44.4-.97,3.01-2.21,5.85-3.75,8.52-7.45,12.9-16.76,19.89-30.4,23.98-5.89,1.77-12.08,2.42-16.87,2.42-1.72,0-3.45-.12-5.18-.29-16.78,16.97-38.54,26.73-61.59,26.73-58.91,0-104.53-57.08-105.65-136.54-.06-4.12.05-8.21.3-12.25.45-7.43,1.4-14.7,2.82-21.77-9.3,19.31-14.18,40.72-14.18,62.84,0,75.38,56.8,133.47,126.71,133.47,36.58,0,64.38-8.79,84.14-32.23,2.67-3.17,5.41-6.91,7.23-9.94,3.05-5.08,6.27-10.25,12.8-14.82,1.5-1.05,5.46-3.14,7.12-1.91,1.61,1.19-2.49,3.24-5.41,6.62Z"/>
      <path class="st0" d="M352.4,185.85s-.03,0-.04,0c.02,0,.04-.02.09,0-.02,0-.03,0-.05,0Z"/>
      <path class="st0" d="M446.08,351.3c-3.14,11.44-3.89,23.29-3.89,23.29,6.55-9.76,17.61-13.37,21.16-26.1,3.56-12.73-5-30.72-5-30.72,0,0-2.5,8.2-4.88,14.76-2.24,6.17-4.82,9.38-7.39,18.77Z"/>
      <path class="st0" d="M429.12,264.22c.98,1.73,2.31,3.66,3.41,5.64,3.84,6.89,11.91,19.14,14.27,34.03,1.7,10.74,1.43,18.53.41,26.55,7.24-14.45,8.13-29.12,6.8-42.89-1.38-14.3-6.5-24.27-15.4-34.1-4.92-5.44-9.86-10.22-13.91-13.93,2.69,7.81,3.92,15.7,4.34,23.28.03.49.05.95.08,1.42Z"/>
      <path class="st0" d="M236.78,161.43c4.92-5.16,13.66-18.53,17.77-30.97,4.11-12.43,4.94-28.11,4.06-35.19-4.92,5.16-14.16,18.06-18.27,30.49s-4.44,28.58-3.57,35.66Z"/>
      <path class="st0" d="M439.43,391.38c-5.84,11.82-5.48,18.66-11.35,33.21,0,0,18.62-7.16,27.21-23.91,7.44-14.8,5.19-28.71,9.78-39.81,0,0-18.28,15.63-25.63,30.51Z"/>
      <path class="st0" d="M166.33,242.59c10.44-24.97,27.27-45.61,48.42-58.57,3-1.84,7.23-3.58,8.83-2.88,1.42.63-3.35,3.91-8.59,7.96-32.11,24.84-53.79,67.06-53.79,116.01,0,70.49,44.93,127.84,100.16,127.84,38.25,0,67.76-25.06,83.38-68.52,1.72-4.79,3.94-12.21,4.87-12.87,1.74-1.24,2.37,4.64.3,12.61-1.66,6.37-3.78,12.42-6.28,18.15,9.26-4.86,14.81-9.43,19.25-17.09,5.89-10.18,6.62-16.89,7.77-26.61.91-7.69.22-10.75.68-11.8,1.05-2.37,2.79.32,4.36,5.8,2.76,9.62,4.36,18.52,4.72,26.67,4.17-9.93,9.81-21.45,16.91-29.74,11.39-13.31,18.32-23.31,21.52-34.2,3.88-13.21,4.26-21.61,2.8-35.05-1.84-16.9-5.71-33.03-24.5-50.2-9.01-8.23-21.85-13.92-26.75-15.13-.02,0-.05-.01-.07-.02,10.17,11.2,16.26,18.57,20.48,33.41,3.7,13.01,1.34,32.71-6.59,47.21-3.11,5.69-6.26,9.26-9.59,13.03-3.24,3.67-5.28,6.44-10.35,13.77-6.37,9.22-11.64,19.9-15.06,30.45-1.23,3.8-2.7,7.49-4.36,11.07-1.25,2.68-2.61,5.29-4.08,7.83-16.47,28.45-46.54,47.8-79.44,47.8-45.7,0-85.07-35.19-87.52-79.43,0,0,0,0,0,0-.4-7.27.57-14.02,2.15-13.07,1.28.77,1.52,8.02,2.56,14.18,7.29,42.92,41.03,69.21,83.37,69.21,29.48,0,56.17-15.35,71.6-39.75.1-.16.22-.31.32-.47-15.79,13.77-35.8,21.97-56.29,21.97-48.13,0-85.69-40.68-85.9-93.21-.07-16.46,3.84-32.34,11.69-46.21,1.98-3.5,4.2-6.88,6.69-10.1,2.32-3.01,5.24-6.08,6-4.22.41,1.02-1.48,3.86-4.11,8.2-9.71,16.04-13.6,33.16-13.6,52.33,0,38.7,24.65,71.41,58.24,81.67.38.12.75.24,1.13.35-20.9-10.32-38.94-30.64-46.68-57.86-6.6-23.22-7-46.07.62-66.5.29-.77.85-2.35,1.52-3.78.84-1.79,1.84-3.33,2.65-2.7,17.47-34.12,56.74-31.37,66.11-30.19,3.01.23,6.28.63,9.98,1.11,14.09,1.83,24.18,5.11,36.67,5.14,6.62.02,13.53-1.27,18.14-2.35-1.03-2.65-1.29-5.02-.46-6.13,1.62-2.16,5.22-3.35,8.94-4.01-1.46-.47-2.98-.94-4.34-1.35-11.36-3.43-27.63-8.16-35.35-22.61-7.44-13.91-13.2-20.81-24.42-27.71-8.53-5.25-25.09-11.41-29.13-12.87-.31,1.12-.64,2.25-1.01,3.38-.39,1.19-.82,2.34-1.27,3.48-7.36,18.73-21.46,30.46-22.07,31-.8.71-2.6,2.02-3.62,1.85-.84-.14-1.46-2.52-1.74-3.63-.21-.84-5.04-20.85,1.82-41.6,6.11-18.48,19.28-30.92,22.58-33.82-.37-2.32-.71-5.05-1.09-7.18-.19-1.05-.38-1.96-.6-2.59-5.77,3.35-20.49,11.47-32.1,28.38-11.32,16.5-15.41,28.81-14.5,55.49.05,1.45.22,4.79-.18,6.03-.11.34-.26.53-.46.48-.08-.02-.16-.06-.24-.1-1.73-.86-2.52-5.67-2.8-7.72-.17-1.25-.32-2.45-.46-3.64-.26-2.24-.48-4.4-.64-6.46-3.36,2.04-20.04,12.5-35.86,29.5-14.53,15.62-25.8,30.58-34.64,52.79,1.3-1.59,2.62-3.14,3.95-4.67,15.54-17.92,32.68-31.98,48.38-42.04,4.45-2.85,4.42-2.84,7.77-4.8s10.01-4.98,12.11-3.97c0,0,0,0,0,0,1.25.6-2.75,2.82-6.63,5.36-2.99,1.96-7.83,5.43-7.83,5.43-25.36,18.88-47.6,37.37-66.85,71-24.44,42.7-25.63,86.06-16.19,118.75,2.82,9.77,6.58,18.59,10.96,26.15,3.82,6.59,9.14,13.16,15.21,19.51-13.62-21.89-20.54-46.4-20.54-70.96,0-40.02,19.38-83,52.96-112Z"/>
      <path class="st0" d="M390.7,437.07c-13.64,3.98-27.07,4.15-27.92,4.18-.02,0-2.03.03-3.87-.22-21.02,23.96-50.81,36.14-88.65,36.14-73.59,0-136.48-61.51-133.46-143.24.94-25.56,6.5-50.26,18.17-72.09-22.98,26.46-34.95,61.07-34.28,92.87.79,37.49,16.42,71.91,47.85,98.85,29.79,25.54,67.62,35.71,106.32,37.28,65.81,2.68,126.9-25.89,147.79-73.22-9.16,10.54-20.13,15.99-31.95,19.45Z"/>
      <path class="st0" d="M376.05,259.92c4.25,2.57,7.29-.94,8.94-6.31.67-3.17,1.15-6.42,1.4-9.68,0-.14,0-.28,0-.41,0-15.69-5.75-26.98-10.46-33.4,0,0,3.54,16.87-1.87,31.82-1.95,6.59-1.69,15.76,1.98,17.98Z"/>
      <path class="st0" d="M263.81,119.75c3.66,1.05,12.72,3.8,20.6,7.56.71-5.94,1.36-15.2.39-25.54-.78-8.33-2.35-13.63-3.73-16.84-.36-.84-.71-1.55-1.03-2.13-3.82,3.04-11.14,8.9-15.72,19.45.17,2.34.26,4.96.21,7.79-.05,3.04-.26,6.3-.73,9.71Z"/>
      <path class="st7" d="M346.21,197.71c-.83,1.11-.57,3.49.46,6.13,1.52,3.9,4.72,8.4,8.7,10.33,3.82-4.44,5.88-8.93,6.51-12.22.46-2.38.25-4.38-.56-5.5-.21-.29-.72-.62-1.43-.96-1.18-.57-2.91-1.19-4.73-1.78-3.72.66-7.32,1.84-8.94,4.01Z"/>
      <path class="st7" d="M474.63,345.22c-.76-7.46-1.77-10.68-3.18-15.14-.26-.83-.54-1.72-.84-2.69l-.29-.97c-.12-.41-.24-.82-.37-1.22l-.05-.18h0c-1.51-4.74-3.51-8.98-5.17-12.49-.48-1.01-.94-1.99-1.34-2.87,1.35-6.39,1.67-12.92,1-20.43-1.82-20.51-10.77-33.3-18.37-42.16-6.14-7.16-16.51-15.88-23.84-21.19-5.81-10.15-14.24-19-25.05-26.3-14.75-9.96-25.44-12.74-28.36-13.35-1.35-.28-2.68-.55-3.98-.81-3.63-.73-7.05-1.42-9.6-2.18l-.06-.02c-.28-.09-.56-.18-.84-.27l-.18-.06c-.17-.06-.35-.11-.5-.17l-.56-.21h-.21c-1.14-.34-2.33-.68-3.55-1.02-10.24-2.89-21.85-6.17-26.79-15.4-8.4-15.71-14.59-23.18-26.49-32.01-.98-.72-2.09-1.47-3.34-2.24,1.38-6.27,2.94-16.78,1.79-29.18-1.7-18.33-6.8-26.5-8.91-29.16-.7-.88-2.13-2.69-4.6-2.69-1.26,0-2.34.48-3.32,1.01l-.18.09c-5.53,2.9-9.87,7-13.14,10.98-2.14-8.6-3.85-10.91-7.34-11.53-.35-.06-.74-.1-1.15-.1-8.06,0-31.52,15.08-43.06,32.26-8.07,12.01-13.08,23.24-12.94,41.42-9.7,5.47-26.4,16.02-40.69,30.8-21.72,22.48-34.54,45.28-42.81,76.16-2.44,3.73-4.57,7.19-6.51,10.58-15.33,26.78-22.44,56.21-20.55,85.12,1.58,24.13,9.4,47.71,22.03,66.38,25.2,37.26,63.91,60.32,73.24,64.64,25.62,14.77,56.74,23.29,90,24.64,2.65.11,5.33.16,7.99.16,28.85,0,56.99-5.59,81.38-16.17,24.9-10.8,44.58-26.31,57.02-44.91,10.29-2.74,32.21-14.08,43.21-35.33l.03-.06.03-.06c4.05-8.71,4.71-13.26,6.03-22.31l.16-1.11c.62-4.27,1.22-7.88,1.8-11.38.39-2.36.76-4.63,1.12-6.91l.25-1.6c1.32-8.52,1.76-11.39,1.05-18.37ZM463.35,348.49c-3.56,12.73-14.61,16.33-21.16,26.1,0,0,.76-11.85,3.89-23.29,2.57-9.39,5.15-12.6,7.39-18.77,2.38-6.56,4.88-14.76,4.88-14.76,0,0,8.55,17.99,5,30.72ZM438.62,253.44c8.9,9.84,14.03,19.8,15.4,34.1,1.32,13.77.44,28.44-6.8,42.89,1.02-8.02,1.29-15.8-.41-26.55-2.36-14.89-10.43-27.14-14.27-34.03-1.1-1.97-2.43-3.91-3.41-5.64-.03-.47-.05-.94-.08-1.42-.42-7.59-1.65-15.48-4.34-23.28,4.05,3.71,8.98,8.49,13.91,13.93ZM381.46,408.5c-1.66-1.23-5.63.86-7.12,1.91-6.53,4.56-9.74,9.74-12.8,14.82-1.83,3.04-4.56,6.78-7.23,9.94-19.75,23.44-47.56,32.23-84.14,32.23-69.91,0-126.71-58.1-126.71-133.47,0-22.12,4.88-43.53,14.18-62.84-1.42,7.07-2.37,14.35-2.82,21.77-.25,4.04-.35,8.13-.3,12.25,1.12,79.46,46.74,136.54,105.65,136.54,23.04,0,44.81-9.75,61.59-26.73,1.73.17,3.46.29,5.18.29,4.79,0,10.97-.65,16.87-2.42,13.64-4.09,22.95-11.07,30.4-23.98,1.54-2.67,2.79-5.51,3.75-8.52,4.75-11.48,16.25-35.92,23.91-44.4,12.39-13.72,20.26-24.03,23.82-36.14,2.84-9.67,3.74-16.75,3.76-24.91.03.06.07.12.1.18,3.59,6.5,7.72,14.63,9.65,27.16,2.67,17.36.95,29.37-1.67,47.56-.39,2.69-.79,5.51-1.2,8.49l-.66,4.82c-.98,7.18-1.86,13.58-2.96,19.8-3.12,11.64-9.02,24.57-20,34.36-7.58,6.76-15.36,9.16-25.24,12.12-6.59,1.98-17.4,2.83-22.1,3.13.67-1.06,1.3-2.12,1.89-3.19,3.09-5.62,4.53-9.25,8.77-14.16,2.92-3.37,7.03-5.42,5.41-6.62ZM327.51,408.58c3.21-3.86,6.19-8.01,8.9-12.43.94-1.53,1.85-3.09,2.72-4.68,13.45-4.63,20.4-9.31,27.56-21.27,3.21-5.36,5.55-12.82,7.21-20.28,0-.02,0-.03.01-.05,1.19,18.16-.7,26.86-5.56,35.73-5.57,10.16-15.36,17.29-29.1,21.21-4.18,1.19-7.84,1.79-11.75,1.77ZM356.71,250.61c7.42,4.72,12.41,8.88,14.85,16.03,2.44,7.15-.84,17.7-6.92,18.06-.11,0-.21,0-.31,0-5.81,0-7.24-10.02-7.36-16.67.21-8.25-.24-17.42-.24-17.42ZM368.06,215.37c.5,5.03.47,9.34.01,14.53-.29,3.3-1.14,5.81-2.03,8.47-.42,1.25-.85,2.53-1.24,3.92l-.14.48c-.19.66-.42,1.48-.64,2.45-.82-.5-1.68-.99-2.57-1.46-.11-.06-.31-.17-.57-.32-4.06-2.33-7.02-3.78-9.23-3.78-1.63,0-3.02.79-3.71,2.12-.76,1.45-.48,2.9-.12,4.73.32,1.64.77,3.88.82,7.07.06,3.45-.09,6.61-.26,9.93-1.22-.83-2.42-1.36-3.66-1.36-1.03,0-2,.37-2.73,1.05-1.64,1.51-1.54,3.56-1.42,6.15.03.65.07,1.39.09,2.23.02.46.31,10.1-4.42,18.08-1.42,2.4-3.87,5.5-5.33,7.01-.78.8-1.63,1.58-2.54,2.4-3.5,3.19-7.87,7.16-11.99,16.36-4.14,9.25-3.65,21.32,1.4,35.05-1.52.91-3.16,1.81-4.86,2.67-.52-15.99-5.26-32.56-14.74-51.67-2.01-4.05-3.92-7.5-5.78-10.84-5.64-10.17-10.52-18.96-10.77-31.39-.25-12.47,6.77-19.22,20.85-20.07,2.89-.18,6-.19,9.29-.21,12.4-.06,26.46-.14,39.6-8.41,6.92-4.36,12.72-9.72,16.65-15.21ZM349.12,276.27s.01.03.02.04c1.09,1.79,3.23,7.6,3.88,9.85,2.08,7.14,2.93,13.59.47,21.43-4.07,7.23-7.84,14.77-10.44,22.6-3.91,5.45-8.35,10.29-13.19,14.51-1.35,1.17-2.72,2.31-4.14,3.38-1.62-6.38-3.85-18.86.33-28.21,4.4-9.83,8.01-11.95,11.35-16.1,2.4-2.98,4.92-6.01,7.18-10.26,3.83-7.21,3.83-11.88,4.53-17.25ZM344.73,265.5s0,0,0,0c0,0,0,0,0,0,0,0,0,0,0,0ZM352.4,185.85s.03,0,.05,0c-.05-.02-.06,0-.09,0,.01,0,.02,0,.04,0ZM264.32,102.25c4.58-10.55,11.9-16.41,15.72-19.45.32.57.66,1.28,1.03,2.13,1.38,3.21,2.96,8.51,3.73,16.84.96,10.35.32,19.61-.39,25.54-7.88-3.76-16.94-6.51-20.6-7.56.46-3.41.68-6.68.73-9.71.05-2.83-.05-5.45-.21-7.79ZM258.61,95.27c.87,7.08.05,22.76-4.06,35.19-4.11,12.43-12.85,25.8-17.77,30.97-.87-7.08-.55-23.23,3.57-35.66s13.35-25.33,18.27-30.49ZM118.7,406.04c-4.38-7.55-8.14-16.38-10.96-26.15-9.44-32.68-8.25-76.05,16.19-118.75,19.25-33.63,41.48-52.12,66.85-71,0,0,4.84-3.47,7.83-5.43,3.88-2.55,7.87-4.76,6.63-5.36,0,0,0,0,0,0-2.1-1.01-8.76,2.02-12.11,3.97s-3.32,1.94-7.77,4.8c-15.7,10.06-32.84,24.12-48.38,42.04-1.33,1.53-2.65,3.08-3.95,4.67,8.84-22.21,20.1-37.17,34.64-52.79,15.82-17,32.5-27.47,35.86-29.5.16,2.06.37,4.22.64,6.46.14,1.19.29,2.39.46,3.64.28,2.05,1.07,6.86,2.8,7.72.08.04.16.08.24.1.21.05.35-.14.46-.48.4-1.24.23-4.59.18-6.03-.91-26.69,3.18-39,14.5-55.49,11.61-16.91,26.33-25.03,32.1-28.38.21.63.41,1.55.6,2.59.38,2.13.73,4.86,1.09,7.18-3.3,2.9-16.47,15.35-22.58,33.82-6.86,20.75-2.03,40.76-1.82,41.6.28,1.11.9,3.49,1.74,3.63,1.02.17,2.82-1.15,3.62-1.85.61-.54,14.71-12.27,22.07-31,.45-1.14.88-2.29,1.27-3.48.37-1.13.71-2.26,1.01-3.38,4.04,1.46,20.6,7.61,29.13,12.87,11.22,6.9,16.98,13.8,24.42,27.71,7.73,14.45,23.99,19.18,35.35,22.61,1.36.41,2.88.87,4.34,1.35,1.83.59,3.56,1.21,4.73,1.78.7.34,1.21.67,1.43.96.81,1.12,1.02,3.12.56,5.5-.64,3.3-2.69,7.79-6.51,12.22-2.38,2.77-5.45,5.51-9.29,7.93-10.71,6.74-22.71,6.81-34.31,6.87-3.43.02-6.68.03-9.85.23-13.74.83-29.63,9.78-29.18,32.26.3,14.86,5.23,23.76,10.95,34.06,1.8,3.25,3.66,6.6,5.56,10.43,2.65,5.34,4.84,11.34,6.56,17.73,3.11,11.59,4.62,24.46,4.21,36.99-33,7.21-68.95-18.53-82.67-59.67-7.15-21.46-8.69-40.03-3.68-59.69,1.55-6.09,3.17-10.37,2.13-11.18h0c-.81-.63-1.81.91-2.65,2.7-.67,1.43-1.23,3.01-1.52,3.78-7.62,20.43-7.22,43.28-.62,66.5,7.74,27.21,25.79,47.54,46.68,57.86-.38-.11-.75-.24-1.13-.35-33.6-10.26-58.24-42.97-58.24-81.67,0-19.17,3.89-36.29,13.6-52.33,2.62-4.34,4.52-7.19,4.11-8.2-.76-1.85-3.68,1.22-6,4.22-2.49,3.22-4.71,6.6-6.69,10.1-7.85,13.87-11.76,29.75-11.69,46.21.21,52.53,37.76,93.21,85.9,93.21,20.49,0,40.51-8.2,56.29-21.97-.1.16-.21.31-.32.47-15.43,24.39-42.12,39.75-71.6,39.75-42.35,0-76.09-26.3-83.37-69.21-1.05-6.16-1.28-13.41-2.56-14.18-1.58-.95-2.56,5.8-2.15,13.07,0,0,0,0,0,0,2.45,44.24,41.82,79.43,87.52,79.43,32.9,0,62.97-19.35,79.44-47.8,1.47-2.54,2.84-5.15,4.08-7.83,1.67-3.58,3.13-7.27,4.36-11.07,3.42-10.55,8.69-21.23,15.06-30.45,5.07-7.33,7.11-10.1,10.35-13.77,3.33-3.78,6.48-7.34,9.59-13.03,7.93-14.5,10.29-34.2,6.59-47.21-4.22-14.85-10.3-22.21-20.48-33.41.02,0,.05.01.07.02,4.9,1.21,17.74,6.9,26.75,15.13,18.8,17.16,22.67,33.3,24.5,50.2,1.46,13.44,1.09,21.84-2.8,35.05-3.2,10.89-10.14,20.89-21.52,34.2-7.1,8.29-12.74,19.81-16.91,29.74-.36-8.15-1.96-17.05-4.72-26.67-1.57-5.47-3.32-8.16-4.36-5.8-.47,1.05.23,4.11-.68,11.8-1.15,9.72-1.88,16.43-7.77,26.61-4.44,7.66-9.99,12.24-19.25,17.09,2.51-5.73,4.63-11.78,6.28-18.15,2.07-7.97,1.44-13.85-.3-12.61-.93.67-3.15,8.08-4.87,12.87-15.62,43.46-45.13,68.52-83.38,68.52-55.23,0-100.16-57.35-100.16-127.84,0-48.94,21.68-91.17,53.79-116.01,5.24-4.05,10.01-7.34,8.59-7.96-1.6-.7-5.83,1.03-8.83,2.88-21.15,12.97-37.98,33.6-48.42,58.57-33.58,29-52.96,71.98-52.96,112,0,24.56,6.92,49.08,20.54,70.96-6.07-6.35-11.39-12.92-15.21-19.51ZM375.95,210.12c4.71,6.42,10.46,17.71,10.46,33.4,0,.14,0,.28,0,.41-.26,3.26-.74,6.51-1.4,9.68-1.65,5.37-4.69,8.88-8.94,6.31-3.67-2.22-3.92-11.39-1.98-17.98,5.41-14.95,1.87-31.82,1.87-31.82ZM274.85,490.84c-38.69-1.57-76.53-11.74-106.32-37.28-31.42-26.94-47.06-61.36-47.85-98.85-.67-31.8,11.29-66.41,34.28-92.87-11.67,21.82-17.23,46.53-18.17,72.09-3.01,81.72,59.87,143.24,133.46,143.24,37.83,0,67.63-12.18,88.65-36.14,1.85.25,3.86.22,3.87.22.85-.03,14.28-.19,27.92-4.18,11.82-3.45,22.79-8.91,31.95-19.45-20.9,47.32-81.99,75.9-147.79,73.22ZM455.29,400.67c-8.59,16.75-27.21,23.91-27.21,23.91,5.87-14.54,5.51-21.39,11.35-33.21,7.36-14.88,25.63-30.51,25.63-30.51-4.59,11.1-2.34,25.01-9.78,39.81Z"/>
    </g>
    <g>
      <path class="st4" d="M258.61,95.27c-4.92,5.16-14.16,18.06-18.27,30.49s-4.44,28.58-3.57,35.66c4.92-5.16,13.66-18.53,17.77-30.97,4.11-12.43,4.94-28.11,4.06-35.19Z"/>
      <path class="st5" d="M228.51,246.17c3.9-18.33,14.32-32.62,27.86-40.69,9-5.36,15.88-6.29,25.5-5.54-9.37-1.19-48.64-3.93-66.11,30.19h0s0,0,0,0c1.04.81-.58,5.09-2.13,11.18-5.01,19.66-3.47,38.23,3.68,59.69,13.72,41.15,49.68,66.88,82.67,59.67.41-12.53-1.09-25.4-4.21-36.99-18.53-.95-32.99-8.33-45.89-17.79-15.94-11.69-26.83-34.17-21.4-59.72Z"/>
      <path class="st2" d="M346.66,203.85c-4.61,1.08-11.52,2.36-18.14,2.35-12.49-.04-22.58-3.32-36.67-5.14-3.7-.48-6.97-.87-9.98-1.11-9.63-.75-16.51.18-25.5,5.54-13.55,8.07-23.97,22.35-27.86,40.69-5.43,25.55,5.46,48.03,21.4,59.72,12.9,9.46,27.36,16.84,45.89,17.79-1.71-6.38-3.91-12.39-6.56-17.73-1.9-3.83-3.76-7.19-5.56-10.43-5.72-10.3-10.65-19.2-10.95-34.06-.45-22.48,15.44-31.43,29.18-32.26,3.17-.19,6.41-.21,9.85-.23,11.6-.06,23.6-.12,34.31-6.87,3.85-2.42,6.91-5.17,9.29-7.93-3.97-1.93-7.18-6.42-8.7-10.33Z"/>
    </g>
  </g>
  <g>
    <path class="st6" d="M86.56,253.22v-67.51c-1.15,2.31-2.27,4.64-3.34,6.99v60.52c.55-.05,1.08-.12,1.65-.12s1.13.05,1.69.11Z"/>
    <path class="st6" d="M83.22,374.29c1.07,2.37,2.19,4.69,3.34,6.99v-61.17h-3.34v54.18Z"/>
    <path class="st6" d="M84.87,283.33c-.56,0-1.11-.04-1.65-.11v6.96h3.34v-6.96c-.55.06-1.12.11-1.69.11Z"/>
    <path class="st6" d="M106.85,229.04c.57,0,1.13.05,1.69.11v-7.45h-3.34v7.46c.55-.05,1.08-.12,1.65-.12Z"/>
    <path class="st6" d="M108.54,150.37c-1.13,1.48-2.24,2.98-3.34,4.5v36.92h3.34v-41.42Z"/>
    <path class="st6" d="M108.54,259.16c-.55.06-1.12.11-1.69.11s-1.11-.04-1.65-.11v12.07c1.06-2.14,2.18-4.26,3.34-6.37v-5.7Z"/>
    <path class="st6" d="M127.18,188.44v14.8h3.34v-14.8c-.55.06-1.12.11-1.69.11s-1.11-.04-1.65-.11Z"/>
    <path class="st6" d="M130.52,158.43v-32.82c-1.12,1.09-2.24,2.19-3.34,3.3v29.52c.55-.05,1.08-.12,1.65-.12s1.13.05,1.69.11Z"/>
    <path class="st6" d="M152.5,167.58h-3.34v19.34c1.09-1.31,2.2-2.62,3.34-3.92v-15.43Z"/>
    <path class="st6" d="M152.5,106.93c-1.12.83-2.23,1.68-3.34,2.54v28.19h3.34v-30.73Z"/>
    <path class="st6" d="M174.48,154.86c-.55.06-1.12.11-1.69.11s-1.11-.04-1.65-.11v9.82c1.12-.93,2.23-1.83,3.34-2.71v-7.1Z"/>
    <path class="st6" d="M174.48,124.85v-32.31c-1.12.64-2.23,1.3-3.34,1.96v30.35c.55-.05,1.08-.12,1.65-.12s1.13.05,1.69.11Z"/>
    <path class="st6" d="M196.46,115.35c-.55.06-1.12.11-1.69.11s-1.11-.04-1.65-.11v33.57c1.16-.72,2.28-1.39,3.34-2.02v-31.56Z"/>
    <path class="st6" d="M196.46,85.34v-3.78c-1.12.48-2.23.96-3.34,1.46v2.32c.55-.05,1.08-.12,1.65-.12s1.13.05,1.69.11Z"/>
    <path class="st6" d="M218.44,73.44c-1.12.35-2.23.71-3.34,1.07v25.8c1.04-1.36,2.17-2.7,3.34-4.01v-22.86Z"/>
    <path class="st6" d="M240.42,67.89c-1.12.22-2.23.46-3.34.69v11.38c1.13-.77,2.24-1.5,3.34-2.19v-9.88Z"/>
    <path class="st6" d="M262.4,76.6v-11.93c-1.12.11-2.23.22-3.34.35v7.07c1.32.75,2.36,2.09,3.34,4.51Z"/>
    <path class="st6" d="M281.67,259.26c.11,5.5,1.13,10.29,2.72,14.8v-26.3c-1.9,3.04-2.81,6.88-2.72,11.5Z"/>
    <path class="st6" d="M284.38,63.67c-.31,0-.61-.01-.92-.01-.81,0-1.61.02-2.42.03v7.14c1.46.03,2.55.68,3.34,1.39v-8.55Z"/>
    <path class="st6" d="M306.38,245.86v-6.81c-1.14.03-2.26.06-3.34.12v6.69h3.34Z"/>
    <path class="st6" d="M306.38,142.91v-21.74c-.56.06-1.12.11-1.69.11s-1.11-.04-1.65-.11v18.59c1.16,1.03,2.27,2.08,3.34,3.15Z"/>
    <path class="st6" d="M306.38,91.15v-26.31c-1.11-.11-2.22-.21-3.34-.31v26.62c.55-.05,1.08-.12,1.65-.12s1.13.05,1.69.11Z"/>
    <path class="st6" d="M303.04,275.78v36.2c1.24,2.92,2.34,5.77,3.34,8.58v-44.79h-3.34Z"/>
    <path class="st6" d="M326.66,262.47c.57,0,1.13.05,1.69.11v-24.32c-1.12.13-2.23.23-3.34.32v24.01c.55-.05,1.08-.12,1.65-.12Z"/>
    <path class="st6" d="M328.34,172.79v-26.31h-3.34v23.2c1,1.15,2.12,2.18,3.34,3.11Z"/>
    <path class="st6" d="M326.66,292.7c-.56,0-1.11-.04-1.65-.11v9.72c1.17-1.21,2.29-2.24,3.34-3.19v-6.53c-.55.06-1.12.11-1.69.11Z"/>
    <path class="st6" d="M328.34,68.25c-1.11-.23-2.22-.44-3.34-.65v48.96h3.34v-48.31Z"/>
    <path class="st6" d="M350.32,74.03c-1.11-.35-2.22-.7-3.34-1.03v18.39h3.34v-17.35Z"/>
    <path class="st6" d="M348.64,142.86c.57,0,1.13.05,1.69.11v-21.68h-3.34v21.68c.55-.05,1.08-.12,1.65-.12Z"/>
    <path class="st6" d="M350.32,181.8v-8.82c-.55.06-1.12.11-1.69.11s-1.11-.04-1.65-.11v7.87c.77.22,1.55.44,2.31.66.35.1.68.2,1.03.29Z"/>
    <path class="st6" d="M346.98,233.03v29.69c.47.22.94.48,1.41.8.17-3.32.31-6.48.26-9.93-.05-3.19-.5-5.44-.82-7.07-.36-1.83-.65-3.28.12-4.73.5-.94,1.35-1.6,2.38-1.91v-8.66c-1.11.66-2.22,1.27-3.34,1.82Z"/>
    <path class="st6" d="M372.3,82.37c-1.11-.49-2.22-.99-3.34-1.46v45.6h3.34v-44.14Z"/>
    <path class="st6" d="M372.3,156.42h-3.34v29.86c.73.16,1.85.43,3.34.88v-30.74Z"/>
    <path class="st6" d="M394.28,189.93c-.55.06-1.12.11-1.69.11s-1.11-.04-1.65-.11v5.74c1.09.64,2.19,1.31,3.34,2.04v-7.78Z"/>
    <path class="st6" d="M394.28,112.95v-19.33c-1.11-.65-2.22-1.28-3.34-1.91v21.25c.55-.05,1.08-.12,1.65-.12s1.13.05,1.69.11Z"/>
    <path class="st6" d="M390.95,142.96v16.97c.55-.05,1.08-.12,1.65-.12s1.13.05,1.69.11v-16.96c-.55.06-1.12.11-1.69.11s-1.11-.04-1.65-.11Z"/>
    <path class="st6" d="M416.27,182.09h-3.34v31.12c1.16,1.29,2.28,2.61,3.34,3.96v-35.08Z"/>
    <path class="st6" d="M416.27,108.32c-1.1-.84-2.22-1.66-3.34-2.48v46.34h3.34v-43.86Z"/>
    <path class="st6" d="M438.25,157.5v-30.09c-1.1-1.09-2.21-2.18-3.34-3.25v33.35c.55-.05,1.08-.12,1.65-.12s1.13.05,1.69.11Z"/>
    <path class="st6" d="M438.25,231.58c-.56.06-1.12.11-1.69.11s-1.11-.04-1.65-.11v4.53c1.13.99,2.25,2,3.34,3.02v-7.54Z"/>
    <path class="st6" d="M434.91,187.51v14.07c.55-.05,1.08-.12,1.65-.12s1.13.05,1.69.11v-14.06c-.56.06-1.12.11-1.69.11s-1.11-.04-1.65-.11Z"/>
    <path class="st6" d="M460.23,223.74h-3.34v39.11c1.21,2.34,2.34,4.86,3.34,7.57v-46.69Z"/>
    <path class="st6" d="M460.23,152.81c-1.1-1.48-2.21-2.95-3.34-4.4v45.41h3.34v-41.01Z"/>
    <path class="st6" d="M482.21,236.43v-46.95c-1.08-2.27-2.19-4.53-3.34-6.76v53.72c.55-.05,1.08-.12,1.65-.12s1.13.05,1.69.11Z"/>
    <path class="st6" d="M480.52,266.55c-.56,0-1.11-.04-1.65-.11v14.28h3.34v-14.28c-.55.06-1.12.11-1.69.11Z"/>
    <path class="st6" d="M478.87,355.55v28.4c1.15-2.18,2.26-4.39,3.34-6.62v-21.78c-.55.06-1.12.11-1.69.11s-1.11-.04-1.65-.11Z"/>
    <path class="st6" d="M480.52,325.43c.57,0,1.13.05,1.69.11v-14.9h-3.34v14.9c.55-.05,1.08-.12,1.65-.12Z"/>
    <path class="st6" d="M93.88,273.58c.51-1.5.77-3.28.77-5.36s-.26-3.76-.77-5.24c-.51-1.48-1.22-2.71-2.12-3.68-.9-.97-1.94-1.69-3.12-2.16-1.18-.47-2.44-.7-3.77-.7-1.4,0-2.7.19-3.89.58-1.19.39-2.23,1.03-3.1,1.95-.88.91-1.56,2.12-2.05,3.63-.49,1.51-.74,3.38-.74,5.63,0,2.01.26,3.76.77,5.24.51,1.48,1.22,2.71,2.12,3.68s1.94,1.69,3.12,2.16c1.18.47,2.44.7,3.77.7s2.58-.22,3.75-.67c1.17-.44,2.21-1.14,3.12-2.09s1.62-2.17,2.14-3.66ZM88.95,271.65c-.27,1.07-.73,1.92-1.38,2.54-.65.62-1.57.93-2.73.93s-2.05-.31-2.7-.93c-.65-.62-1.11-1.45-1.37-2.51-.26-1.05-.39-2.22-.39-3.51s.13-2.44.39-3.47c.26-1.03.71-1.85,1.37-2.45.65-.61,1.55-.91,2.7-.91s2.08.3,2.73.89c.65.6,1.12,1.4,1.38,2.4.27,1,.4,2.15.4,3.43s-.14,2.5-.4,3.58Z"/>
    <path class="st6" d="M99.96,253.08c.9.97,1.94,1.69,3.12,2.16,1.18.47,2.44.7,3.77.7s2.58-.22,3.75-.67c1.17-.44,2.21-1.14,3.12-2.09s1.62-2.17,2.14-3.66c.51-1.5.77-3.28.77-5.36s-.26-3.76-.77-5.24c-.51-1.48-1.22-2.71-2.12-3.68-.9-.97-1.94-1.69-3.12-2.16-1.18-.47-2.44-.7-3.77-.7-1.4,0-2.7.19-3.89.58-1.19.39-2.23,1.03-3.1,1.95-.88.91-1.56,2.12-2.05,3.63-.49,1.51-.74,3.38-.74,5.63,0,2.01.26,3.76.77,5.24.51,1.48,1.22,2.71,2.12,3.68ZM102.75,240.65c.26-1.03.71-1.85,1.37-2.45.65-.61,1.55-.91,2.7-.91s2.08.3,2.73.89c.65.6,1.12,1.4,1.38,2.4.27,1,.4,2.15.4,3.43s-.14,2.5-.4,3.58c-.27,1.07-.73,1.92-1.38,2.54-.65.62-1.57.93-2.73.93s-2.05-.31-2.7-.93c-.65-.62-1.11-1.45-1.37-2.51-.26-1.05-.39-2.22-.39-3.51s.13-2.44.39-3.47Z"/>
    <path class="st6" d="M121.94,182.36c.9.97,1.94,1.69,3.12,2.16,1.18.47,2.44.7,3.77.7s2.58-.22,3.75-.67c1.17-.44,2.21-1.14,3.12-2.09s1.62-2.17,2.14-3.66c.51-1.5.77-3.28.77-5.36s-.26-3.76-.77-5.24c-.51-1.48-1.22-2.71-2.12-3.68-.9-.97-1.94-1.69-3.12-2.16-1.18-.47-2.44-.7-3.77-.7-1.4,0-2.7.19-3.89.58-1.19.39-2.23,1.03-3.1,1.95-.88.91-1.56,2.12-2.05,3.63-.49,1.51-.74,3.38-.74,5.63,0,2.01.26,3.76.77,5.24.51,1.48,1.22,2.71,2.12,3.68ZM124.73,169.93c.26-1.03.71-1.85,1.37-2.45.65-.61,1.55-.91,2.7-.91s2.08.3,2.73.89c.65.6,1.12,1.4,1.38,2.4.27,1,.4,2.15.4,3.43s-.14,2.5-.4,3.58c-.27,1.07-.73,1.92-1.38,2.54-.65.62-1.57.93-2.73.93s-2.05-.31-2.7-.93c-.65-.62-1.11-1.45-1.37-2.51-.26-1.05-.39-2.22-.39-3.51s.13-2.44.39-3.47Z"/>
    <path class="st6" d="M165.9,148.77c.9.97,1.94,1.69,3.12,2.16,1.18.47,2.44.7,3.77.7s2.58-.22,3.75-.67c1.17-.44,2.21-1.14,3.12-2.09s1.62-2.17,2.14-3.66c.51-1.5.77-3.28.77-5.36s-.26-3.76-.77-5.24c-.51-1.48-1.22-2.71-2.12-3.68-.9-.97-1.94-1.69-3.12-2.16-1.18-.47-2.44-.7-3.77-.7-1.4,0-2.7.19-3.89.58-1.19.39-2.23,1.03-3.1,1.95-.88.91-1.56,2.12-2.05,3.63-.49,1.51-.74,3.38-.74,5.63,0,2.01.26,3.76.77,5.24.51,1.48,1.22,2.71,2.12,3.68ZM168.69,136.35c.26-1.03.71-1.85,1.37-2.45.65-.61,1.55-.91,2.7-.91s2.08.3,2.73.89c.65.6,1.12,1.4,1.38,2.4.27,1,.4,2.15.4,3.43s-.14,2.5-.4,3.58c-.27,1.07-.73,1.92-1.38,2.54-.65.62-1.57.93-2.73.93s-2.05-.31-2.7-.93c-.65-.62-1.11-1.45-1.37-2.51-.26-1.05-.39-2.22-.39-3.51s.13-2.44.39-3.47Z"/>
    <path class="st6" d="M187.88,109.27c.9.97,1.94,1.69,3.12,2.16,1.18.47,2.44.7,3.77.7s2.58-.22,3.75-.67c1.17-.44,2.21-1.14,3.12-2.09s1.62-2.17,2.14-3.66c.51-1.5.77-3.28.77-5.36s-.26-3.76-.77-5.24c-.51-1.48-1.22-2.71-2.12-3.68-.9-.97-1.94-1.69-3.12-2.16-1.18-.47-2.44-.7-3.77-.7-1.4,0-2.7.19-3.89.58-1.19.39-2.23,1.03-3.1,1.95-.88.91-1.56,2.12-2.05,3.63-.49,1.51-.74,3.38-.74,5.63,0,2.01.26,3.76.77,5.24.51,1.48,1.22,2.71,2.12,3.68ZM190.67,96.84c.26-1.03.71-1.85,1.37-2.45.65-.61,1.55-.91,2.7-.91s2.08.3,2.73.89c.65.6,1.12,1.4,1.38,2.4.27,1,.4,2.15.4,3.43s-.14,2.5-.4,3.58c-.27,1.07-.73,1.92-1.38,2.54-.65.62-1.57.93-2.73.93s-2.05-.31-2.7-.93c-.65-.62-1.11-1.45-1.37-2.51-.26-1.05-.39-2.22-.39-3.51s.13-2.44.39-3.47Z"/>
    <path class="st6" d="M297.8,115.08c.9.97,1.94,1.69,3.12,2.16,1.18.47,2.44.7,3.77.7s2.58-.22,3.75-.67c1.17-.44,2.21-1.14,3.12-2.09s1.62-2.17,2.14-3.66c.51-1.5.77-3.28.77-5.36s-.26-3.76-.77-5.24c-.52-1.48-1.22-2.71-2.12-3.68-.9-.97-1.94-1.69-3.12-2.16-1.18-.47-2.44-.7-3.77-.7-1.4,0-2.7.19-3.89.58s-2.22,1.03-3.1,1.95-1.56,2.12-2.05,3.63c-.49,1.51-.74,3.38-.74,5.63,0,2.01.26,3.76.77,5.24.52,1.48,1.22,2.71,2.12,3.68ZM300.59,102.65c.26-1.03.71-1.85,1.37-2.45.65-.61,1.55-.91,2.7-.91s2.08.3,2.73.89c.65.6,1.11,1.4,1.38,2.4s.4,2.15.4,3.43-.14,2.5-.4,3.58c-.27,1.07-.73,1.92-1.38,2.54-.66.62-1.57.93-2.73.93s-2.05-.31-2.7-.93c-.66-.62-1.11-1.45-1.37-2.51s-.39-2.22-.39-3.51.13-2.44.39-3.47Z"/>
    <path class="st6" d="M333.54,268.67c-.9-.97-1.94-1.69-3.12-2.16-1.18-.47-2.44-.7-3.77-.7-1.4,0-2.7.19-3.89.58-1.19.39-2.23,1.03-3.1,1.95-.88.91-1.56,2.12-2.05,3.63-.49,1.51-.74,3.38-.74,5.63,0,2.01.26,3.76.77,5.24.51,1.48,1.22,2.71,2.12,3.68s1.94,1.69,3.12,2.16c1.18.47,2.44.7,3.77.7s2.58-.22,3.75-.67c1.17-.44,2.21-1.14,3.12-2.09s1.63-2.17,2.14-3.66.77-3.28.77-5.36-.26-3.76-.77-5.24-1.22-2.71-2.12-3.68ZM330.74,281.02c-.27,1.07-.73,1.92-1.39,2.54-.65.62-1.56.93-2.73.93s-2.05-.31-2.7-.93c-.65-.62-1.11-1.45-1.37-2.51-.26-1.05-.39-2.22-.39-3.51s.13-2.44.39-3.47c.26-1.03.71-1.85,1.37-2.45.65-.61,1.55-.91,2.7-.91s2.08.3,2.73.89c.65.6,1.12,1.4,1.39,2.4.27,1,.4,2.15.4,3.43s-.14,2.5-.4,3.58Z"/>
    <path class="st6" d="M341.75,166.89c.9.97,1.94,1.69,3.12,2.16,1.18.47,2.44.7,3.77.7s2.58-.22,3.75-.67c1.17-.44,2.21-1.14,3.12-2.09s1.63-2.17,2.14-3.66.77-3.28.77-5.36-.26-3.76-.77-5.24-1.22-2.71-2.12-3.68-1.94-1.69-3.12-2.16c-1.18-.47-2.44-.7-3.77-.7-1.4,0-2.7.19-3.89.58-1.19.39-2.23,1.03-3.1,1.95-.88.91-1.56,2.12-2.05,3.63-.49,1.51-.74,3.38-.74,5.63,0,2.01.26,3.76.77,5.24.51,1.48,1.22,2.71,2.12,3.68ZM344.53,154.47c.26-1.03.71-1.85,1.37-2.45.65-.61,1.55-.91,2.7-.91s2.08.3,2.73.89c.65.6,1.12,1.4,1.39,2.4.27,1,.4,2.15.4,3.43s-.14,2.5-.4,3.58c-.27,1.07-.73,1.92-1.39,2.54-.65.62-1.56.93-2.73.93s-2.05-.31-2.7-.93c-.65-.62-1.11-1.45-1.37-2.51-.26-1.05-.39-2.22-.39-3.51s.13-2.44.39-3.47Z"/>
    <path class="st6" d="M385.71,136.87c.9.97,1.94,1.69,3.12,2.16,1.18.47,2.44.7,3.77.7s2.58-.22,3.75-.67c1.17-.44,2.21-1.14,3.12-2.09s1.62-2.17,2.14-3.66c.51-1.5.77-3.28.77-5.36s-.26-3.76-.77-5.24c-.52-1.48-1.22-2.71-2.12-3.68-.9-.97-1.94-1.69-3.12-2.16-1.18-.47-2.44-.7-3.77-.7-1.4,0-2.7.19-3.89.58s-2.22,1.03-3.1,1.95-1.56,2.12-2.05,3.63c-.49,1.51-.74,3.38-.74,5.63,0,2.01.26,3.76.77,5.24.52,1.48,1.22,2.71,2.12,3.68ZM388.5,124.44c.26-1.03.71-1.85,1.37-2.45.65-.61,1.55-.91,2.7-.91s2.08.3,2.73.89c.65.6,1.11,1.4,1.38,2.4s.4,2.15.4,3.43-.14,2.5-.4,3.58c-.27,1.07-.73,1.92-1.38,2.54-.66.62-1.57.93-2.73.93s-2.05-.31-2.7-.93c-.66-.62-1.11-1.45-1.37-2.51s-.39-2.22-.39-3.51.13-2.44.39-3.47Z"/>
    <path class="st6" d="M473.63,260.36c.9.97,1.94,1.69,3.12,2.16,1.18.47,2.44.7,3.77.7s2.58-.22,3.75-.67c1.17-.44,2.21-1.14,3.12-2.09s1.63-2.17,2.14-3.66.77-3.28.77-5.36-.26-3.76-.77-5.24-1.22-2.71-2.12-3.68-1.94-1.69-3.12-2.16c-1.18-.47-2.44-.7-3.77-.7-1.4,0-2.7.19-3.89.58-1.19.39-2.23,1.03-3.1,1.95-.88.91-1.56,2.12-2.05,3.63-.49,1.51-.74,3.38-.74,5.63,0,2.01.26,3.76.77,5.24.51,1.48,1.22,2.71,2.12,3.68ZM476.42,247.93c.26-1.03.71-1.85,1.37-2.45.65-.61,1.55-.91,2.7-.91s2.08.3,2.73.89c.65.6,1.12,1.4,1.39,2.4.27,1,.4,2.15.4,3.43s-.14,2.5-.4,3.58c-.27,1.07-.73,1.92-1.39,2.54-.65.62-1.56.93-2.73.93s-2.05-.31-2.7-.93c-.65-.62-1.11-1.45-1.37-2.51-.26-1.05-.39-2.22-.39-3.51s.13-2.44.39-3.47Z"/>
    <path class="st6" d="M487.41,331.62c-.9-.97-1.94-1.69-3.12-2.16-1.18-.47-2.44-.7-3.77-.7-1.4,0-2.7.19-3.89.58-1.19.39-2.23,1.03-3.1,1.95-.45.47-.85,1.02-1.19,1.64.96,3.25,1.71,6.49,2.3,12.29.21,2.08.32,3.79.33,5.4.56.4,1.15.74,1.79,1,1.18.47,2.44.7,3.77.7s2.58-.22,3.75-.67c1.17-.44,2.21-1.14,3.12-2.09s1.63-2.17,2.14-3.66.77-3.28.77-5.36-.26-3.76-.77-5.24-1.22-2.71-2.12-3.68ZM484.6,343.98c-.27,1.07-.73,1.92-1.39,2.54-.65.62-1.56.93-2.73.93s-2.05-.31-2.7-.93c-.65-.62-1.11-1.45-1.37-2.51-.26-1.05-.39-2.22-.39-3.51s.13-2.44.39-3.47c.26-1.03.71-1.85,1.37-2.45.65-.61,1.55-.91,2.7-.91s2.08.3,2.73.89c.65.6,1.12,1.4,1.39,2.4.27,1,.4,2.15.4,3.43s-.14,2.5-.4,3.58Z"/>
    <path class="st6" d="M429.67,181.42c.9.97,1.94,1.69,3.12,2.16,1.18.47,2.44.7,3.77.7s2.58-.22,3.75-.67c1.17-.44,2.21-1.14,3.12-2.09s1.62-2.17,2.14-3.66c.51-1.5.77-3.28.77-5.36s-.26-3.76-.77-5.24c-.52-1.48-1.22-2.71-2.12-3.68-.9-.97-1.94-1.69-3.12-2.16-1.18-.47-2.44-.7-3.77-.7-1.4,0-2.7.19-3.89.58s-2.22,1.03-3.1,1.95-1.56,2.12-2.05,3.63c-.49,1.51-.74,3.38-.74,5.63,0,2.01.26,3.76.77,5.24.52,1.48,1.22,2.71,2.12,3.68ZM432.46,169c.26-1.03.71-1.85,1.37-2.45.65-.61,1.55-.91,2.7-.91s2.08.3,2.73.89c.65.6,1.11,1.4,1.38,2.4s.4,2.15.4,3.43-.14,2.5-.4,3.58c-.27,1.07-.73,1.92-1.38,2.54-.66.62-1.57.93-2.73.93s-2.05-.31-2.7-.93c-.66-.62-1.11-1.45-1.37-2.51s-.39-2.22-.39-3.51.13-2.44.39-3.47Z"/>
    <path class="st6" d="M429.67,225.49c.9.97,1.94,1.69,3.12,2.16,1.18.47,2.44.7,3.77.7s2.58-.22,3.75-.67c1.17-.44,2.21-1.14,3.12-2.09s1.62-2.17,2.14-3.66c.51-1.5.77-3.28.77-5.36s-.26-3.76-.77-5.24c-.52-1.48-1.22-2.71-2.12-3.68-.9-.97-1.94-1.69-3.12-2.16-1.18-.47-2.44-.7-3.77-.7-1.4,0-2.7.19-3.89.58s-2.22,1.03-3.1,1.95-1.56,2.12-2.05,3.63c-.49,1.51-.74,3.38-.74,5.63,0,2.01.26,3.76.77,5.24.52,1.48,1.22,2.71,2.12,3.68ZM432.46,213.06c.26-1.03.71-1.85,1.37-2.45.65-.61,1.55-.91,2.7-.91s2.08.3,2.73.89c.65.6,1.11,1.4,1.38,2.4s.4,2.15.4,3.43-.14,2.5-.4,3.58c-.27,1.07-.73,1.92-1.38,2.54-.66.62-1.57.93-2.73.93s-2.05-.31-2.7-.93c-.66-.62-1.11-1.45-1.37-2.51s-.39-2.22-.39-3.51.13-2.44.39-3.47Z"/>
    <path class="st6" d="M385.71,183.84c.9.97,1.94,1.69,3.12,2.16,1.18.47,2.44.7,3.77.7s2.58-.22,3.75-.67c1.17-.44,2.21-1.14,3.12-2.09s1.62-2.17,2.14-3.66c.51-1.5.77-3.28.77-5.36s-.26-3.76-.77-5.24c-.52-1.48-1.22-2.71-2.12-3.68-.9-.97-1.94-1.69-3.12-2.16-1.18-.47-2.44-.7-3.77-.7-1.4,0-2.7.19-3.89.58s-2.22,1.03-3.1,1.95-1.56,2.12-2.05,3.63c-.49,1.51-.74,3.38-.74,5.63,0,2.01.26,3.76.77,5.24.52,1.48,1.22,2.71,2.12,3.68ZM388.5,171.42c.26-1.03.71-1.85,1.37-2.45.65-.61,1.55-.91,2.7-.91s2.08.3,2.73.89c.65.6,1.11,1.4,1.38,2.4s.4,2.15.4,3.43-.14,2.5-.4,3.58c-.27,1.07-.73,1.92-1.38,2.54-.66.62-1.57.93-2.73.93s-2.05-.31-2.7-.93c-.66-.62-1.11-1.45-1.37-2.51s-.39-2.22-.39-3.51.13-2.44.39-3.47Z"/>
    <polygon class="st6" points="103.94 218.36 109.06 218.36 109.06 195.13 102.08 195.13 102.08 200.03 103.94 200.03 103.94 218.36"/>
    <polygon class="st6" points="80.1 298.43 81.96 298.43 81.96 316.77 87.08 316.77 87.08 293.53 80.1 293.53 80.1 298.43"/>
    <path class="st6" d="M131.04,206.58h-6.98v4.91h1.86v12.83c1.59-3.61,3.3-7.11,5.12-10.53v-7.2Z"/>
    <polygon class="st6" points="299.92 254.11 301.78 254.11 301.78 272.44 306.9 272.44 306.9 249.2 299.92 249.2 299.92 254.11"/>
    <polygon class="st6" points="345.73 117.96 350.84 117.96 350.84 94.72 343.87 94.72 343.87 99.63 345.73 99.63 345.73 117.96"/>
    <polygon class="st6" points="323.75 143.14 328.86 143.14 328.86 119.9 321.89 119.9 321.89 124.81 323.75 124.81 323.75 143.14"/>
    <polygon class="st6" points="482.73 284.07 475.75 284.07 475.75 288.97 477.61 288.97 477.61 307.3 482.73 307.3 482.73 284.07"/>
    <polygon class="st6" points="367.71 153.08 372.82 153.08 372.82 129.85 365.85 129.85 365.85 134.75 367.71 134.75 367.71 153.08"/>
    <polygon class="st6" points="455.63 220.4 460.75 220.4 460.75 197.16 453.77 197.16 453.77 202.07 455.63 202.07 455.63 220.4"/>
    <polygon class="st6" points="411.67 178.75 416.79 178.75 416.79 155.51 409.81 155.51 409.81 160.42 411.67 160.42 411.67 178.75"/>
    <polygon class="st6" points="147.9 164.24 153.02 164.24 153.02 141 146.04 141 146.04 145.91 147.9 145.91 147.9 164.24"/>
  </g>
  <g>
    <path class="st6" d="M295.78,42.03c-1.68-.08-3.2-.46-4.58-1.13-1.38-.67-2.56-1.63-3.55-2.89-.99-1.25-1.73-2.77-2.23-4.54-.5-1.77-.69-3.79-.58-6.05.12-2.48.52-4.59,1.18-6.32.66-1.73,1.53-3.14,2.6-4.24s2.34-1.86,3.79-2.31c1.45-.44,3.04-.62,4.77-.54,1.65.08,3.16.46,4.54,1.13,1.38.67,2.56,1.63,3.55,2.86.99,1.24,1.73,2.75,2.23,4.54.5,1.79.69,3.8.58,6.03-.12,2.32-.51,4.35-1.19,6.09-.67,1.74-1.57,3.17-2.69,4.27-1.12,1.11-2.39,1.92-3.82,2.43-1.43.52-2.96.73-4.61.65ZM295.98,37.34c1.53.11,2.8-.22,3.81-.98,1-.76,1.77-1.85,2.3-3.26s.86-3.04.98-4.88c.06-1.79-.1-3.38-.49-4.79-.39-1.41-1.05-2.53-1.97-3.37-.92-.84-2.15-1.29-3.69-1.34-1.54-.1-2.8.22-3.79.99s-1.75,1.83-2.28,3.2c-.53,1.37-.84,2.95-.93,4.74-.09,1.81.06,3.45.45,4.89s1.04,2.6,1.95,3.46c.91.86,2.13,1.31,3.67,1.36Z"/>
    <path class="st6" d="M316.65,15.95l7.6,1.07-3.87,27.4-4.86-.69,3.21-22.75-2.74-.39.66-4.65Z"/>
    <path class="st6" d="M339.09,48.16c-1.63-.38-3.07-1.03-4.3-1.94-1.24-.91-2.23-2.07-2.97-3.48s-1.2-3.03-1.37-4.87c-.17-1.83,0-3.85.52-6.06.57-2.42,1.33-4.42,2.3-6.01.96-1.58,2.07-2.81,3.33-3.7,1.26-.88,2.64-1.41,4.14-1.59,1.51-.18,3.1-.07,4.79.33,1.61.38,3.03,1.02,4.26,1.93,1.24.91,2.23,2.06,2.98,3.46.75,1.4,1.21,3.02,1.37,4.87.17,1.85,0,3.86-.52,6.04-.53,2.26-1.29,4.18-2.26,5.78s-2.12,2.83-3.42,3.72c-1.3.89-2.7,1.45-4.19,1.7s-3.04.19-4.65-.19ZM340.12,43.58c1.49.38,2.8.29,3.92-.28s2.08-1.5,2.86-2.8c.78-1.3,1.39-2.84,1.84-4.63.38-1.75.51-3.35.38-4.8-.13-1.45-.58-2.68-1.33-3.67-.76-1-1.89-1.66-3.39-1.98-1.49-.38-2.79-.28-3.9.29s-2.05,1.48-2.82,2.74c-.77,1.26-1.36,2.75-1.77,4.49-.42,1.77-.56,3.4-.44,4.89.12,1.49.55,2.74,1.29,3.75.74,1.01,1.86,1.67,3.36,2Z"/>
    <path class="st6" d="M365.51,56c-1.58-.57-2.93-1.37-4.05-2.42-1.12-1.04-1.98-2.31-2.55-3.8-.58-1.49-.85-3.15-.81-4.99.04-1.84.44-3.83,1.21-5.96.84-2.34,1.84-4.24,2.97-5.7s2.38-2.56,3.73-3.29c1.35-.73,2.78-1.1,4.3-1.1,1.52,0,3.09.29,4.72.88,1.55.56,2.89,1.36,4.01,2.41,1.12,1.04,1.98,2.3,2.56,3.78.58,1.47.85,3.14.81,4.99-.05,1.86-.45,3.84-1.21,5.94-.79,2.18-1.76,4.01-2.91,5.48-1.16,1.47-2.43,2.57-3.82,3.3-1.39.73-2.85,1.14-4.36,1.21-1.51.08-3.05-.16-4.6-.72ZM367.06,51.57c1.44.55,2.74.6,3.93.17,1.18-.44,2.23-1.25,3.16-2.45s1.71-2.66,2.36-4.39c.58-1.69.89-3.27.92-4.73s-.26-2.73-.9-3.8-1.68-1.86-3.14-2.36c-1.44-.55-2.74-.6-3.91-.16s-2.21,1.24-3.11,2.4-1.67,2.58-2.27,4.26c-.62,1.71-.95,3.31-1,4.81-.05,1.5.23,2.79.85,3.87.62,1.09,1.66,1.88,3.11,2.37Z"/>
    <path class="st6" d="M404.58,74.21c-1.45-.84-2.64-1.88-3.56-3.1-.92-1.23-1.53-2.62-1.83-4.19-.3-1.56-.27-3.25.1-5.06.37-1.81,1.12-3.69,2.26-5.65,1.25-2.15,2.56-3.85,3.94-5.08,1.38-1.24,2.8-2.09,4.25-2.57s2.93-.59,4.43-.32,2.99.84,4.49,1.71c1.43.83,2.6,1.86,3.52,3.08.92,1.23,1.53,2.62,1.85,4.17.31,1.55.28,3.24-.1,5.06s-1.12,3.69-2.25,5.63c-1.17,2.01-2.45,3.63-3.84,4.87-1.4,1.24-2.85,2.1-4.35,2.57-1.5.47-3,.61-4.51.42-1.5-.19-2.97-.7-4.39-1.53ZM406.9,70.13c1.32.8,2.59,1.08,3.84.87,1.24-.22,2.42-.83,3.54-1.85s2.16-2.31,3.11-3.89c.87-1.56,1.46-3.06,1.75-4.48.3-1.43.22-2.73-.21-3.9-.44-1.17-1.33-2.13-2.67-2.88-1.32-.8-2.59-1.08-3.82-.86-1.23.22-2.39.83-3.49,1.8-1.1.98-2.1,2.24-3,3.79-.91,1.57-1.53,3.09-1.84,4.55-.32,1.46-.27,2.79.15,3.96.41,1.18,1.29,2.14,2.64,2.89Z"/>
    <path class="st6" d="M435.02,60.55l6.26,4.43-15.99,22.59-4-2.83,13.27-18.75-2.26-1.6,2.71-3.83Z"/>
    <path class="st6" d="M449.6,71.21l5.95,4.84-17.46,21.47-3.81-3.09,14.5-17.83-2.15-1.75,2.96-3.64Z"/>
    <path class="st6" d="M452.18,110.35c-1.2-1.17-2.1-2.46-2.69-3.88s-.84-2.92-.75-4.51.53-3.22,1.33-4.88c.8-1.66,1.99-3.3,3.57-4.92,1.74-1.78,3.42-3.1,5.06-3.96,1.64-.86,3.22-1.35,4.75-1.45,1.53-.11,2.99.15,4.37.77,1.38.63,2.69,1.54,3.93,2.75,1.18,1.15,2.07,2.43,2.66,3.85.59,1.42.85,2.91.77,4.5s-.52,3.21-1.33,4.88c-.81,1.67-2,3.31-3.55,4.91-1.62,1.66-3.26,2.92-4.92,3.78s-3.27,1.34-4.84,1.43c-1.57.09-3.06-.14-4.47-.7-1.41-.56-2.71-1.41-3.89-2.56ZM455.43,106.96c1.08,1.09,2.25,1.69,3.51,1.78,1.26.09,2.55-.22,3.89-.92s2.66-1.71,3.96-3.02c1.23-1.3,2.16-2.61,2.8-3.92.64-1.31.89-2.59.75-3.83-.14-1.24-.76-2.39-1.88-3.44-1.08-1.09-2.25-1.68-3.49-1.76-1.25-.08-2.52.22-3.83.89s-2.58,1.66-3.83,2.94c-1.27,1.3-2.23,2.62-2.9,3.97-.67,1.34-.94,2.64-.82,3.88.11,1.24.73,2.39,1.85,3.44Z"/>
    <path class="st6" d="M483.77,122.32c-1.84,1.53-4.55,1.28-6.08-.55-1.53-1.84-1.28-4.55.55-6.08,1.84-1.53,4.55-1.28,6.08.55,1.58,1.9,1.22,4.61-.55,6.08Z"/>
    <path class="st6" d="M484.31,148.9c-.94-1.39-1.55-2.84-1.84-4.35-.29-1.51-.22-3.03.19-4.57.41-1.54,1.18-3.04,2.3-4.5s2.62-2.82,4.5-4.08c2.07-1.39,3.99-2.33,5.77-2.84,1.78-.51,3.43-.66,4.95-.45,1.52.21,2.89.76,4.12,1.65,1.22.9,2.32,2.06,3.28,3.5.92,1.37,1.52,2.81,1.81,4.31s.23,3.03-.17,4.56c-.4,1.53-1.17,3.03-2.3,4.5-1.13,1.47-2.63,2.83-4.49,4.07-1.93,1.29-3.79,2.19-5.59,2.69-1.8.5-3.48.64-5.03.4-1.56-.24-2.97-.77-4.23-1.6-1.27-.83-2.36-1.93-3.28-3.3ZM488.18,146.25c.83,1.29,1.86,2.11,3.07,2.46,1.21.35,2.54.31,4-.11s2.95-1.13,4.5-2.14c1.47-1.02,2.65-2.11,3.54-3.26s1.4-2.35,1.52-3.6-.25-2.5-1.13-3.76c-.83-1.29-1.85-2.11-3.05-2.44-1.2-.34-2.51-.31-3.93.09-1.42.4-2.87,1.09-4.35,2.09-1.51,1.01-2.73,2.11-3.65,3.29s-1.46,2.39-1.6,3.63c-.14,1.24.22,2.49,1.11,3.75Z"/>
    <path class="st6" d="M517.7,150.04l3.68,6.73-24.28,13.28-2.36-4.3,20.16-11.03-1.33-2.43,4.12-2.25Z"/>
    <path class="st6" d="M505.29,187.24c-.67-1.54-1.01-3.07-1.02-4.61-.01-1.53.32-3.02,1.01-4.46.68-1.44,1.71-2.78,3.08-4.01,1.37-1.23,3.09-2.3,5.17-3.21,2.28-.99,4.34-1.58,6.19-1.75,1.84-.18,3.49-.03,4.95.45,1.46.48,2.71,1.27,3.75,2.37,1.04,1.1,1.91,2.45,2.6,4.04.66,1.51.99,3.04,1,4.57,0,1.53-.32,3.02-.99,4.45-.67,1.44-1.7,2.77-3.08,4.01-1.38,1.24-3.1,2.31-5.15,3.2-2.13.93-4.12,1.47-5.98,1.64-1.86.17-3.54,0-5.02-.51-1.49-.51-2.78-1.29-3.87-2.34s-1.97-2.33-2.63-3.84ZM509.58,185.33c.59,1.42,1.44,2.41,2.57,2.97,1.13.56,2.44.77,3.95.62s3.11-.58,4.81-1.29c1.63-.74,2.99-1.59,4.07-2.57s1.8-2.06,2.15-3.26c.35-1.2.2-2.5-.44-3.9-.59-1.42-1.44-2.41-2.56-2.96-1.12-.55-2.42-.76-3.88-.62-1.47.13-3.02.56-4.66,1.27-1.67.72-3.06,1.58-4.19,2.57-1.12.99-1.87,2.08-2.23,3.28-.37,1.19-.23,2.49.41,3.89Z"/>
    <path class="st6" d="M514.8,213.1c-.49-1.6-.65-3.17-.48-4.7.16-1.52.67-2.96,1.52-4.32.84-1.35,2.02-2.56,3.52-3.63,1.5-1.07,3.33-1.93,5.5-2.59,2.38-.72,4.5-1.07,6.35-1.03,1.85.04,3.47.38,4.87,1.02,1.39.64,2.54,1.57,3.45,2.78.91,1.21,1.62,2.65,2.12,4.31.48,1.58.64,3.13.47,4.66-.16,1.52-.66,2.96-1.49,4.31-.83,1.35-2,2.56-3.52,3.63s-3.34,1.94-5.48,2.59c-2.22.67-4.27.99-6.13.94-1.87-.04-3.51-.41-4.93-1.09-1.42-.68-2.61-1.6-3.58-2.77-.97-1.17-1.69-2.54-2.17-4.12ZM519.28,211.7c.42,1.48,1.16,2.56,2.22,3.25,1.05.69,2.34,1.04,3.85,1.06,1.51.02,3.15-.22,4.93-.73,1.7-.55,3.15-1.24,4.34-2.08s2.03-1.84,2.51-3c.48-1.15.49-2.46.01-3.93-.42-1.48-1.16-2.56-2.21-3.23-1.05-.67-2.31-1.03-3.78-1.06s-3.06.21-4.77.73c-1.74.53-3.22,1.22-4.45,2.08-1.23.86-2.09,1.86-2.59,3-.5,1.15-.51,2.45-.04,3.91Z"/>
    <path class="st6" d="M549.67,241l1.06,7.6-27.4,3.83-.68-4.86,22.75-3.18-.38-2.74,4.65-.65Z"/>
    <path class="st6" d="M551.89,258.88l.56,7.65-27.6,2-.35-4.89,22.92-1.66-.2-2.76,4.68-.34Z"/>
    <path class="st6" d="M552.87,276.71l.12,7.67-27.67.45-.08-4.9,22.97-.37-.05-2.77,4.7-.08Z"/>
    <path class="st6" d="M552.76,294.86l-.45,7.66-27.62-1.64.29-4.9,22.94,1.36.16-2.76,4.69.28Z"/>
    <path class="st6" d="M537.41,323.73c-2.37-.33-4.01-2.51-3.68-4.87.33-2.37,2.51-4.01,4.87-3.68s4.01,2.51,3.68,4.87c-.34,2.45-2.59,4-4.87,3.68Z"/>
    <path class="st6" d="M518.05,342.06c.41-1.63,1.07-3.05,1.99-4.28.92-1.22,2.1-2.2,3.52-2.93,1.42-.73,3.05-1.16,4.89-1.31,1.84-.15,3.85.05,6.05.6,2.41.6,4.41,1.39,5.98,2.37,1.57.98,2.79,2.1,3.65,3.37.87,1.27,1.38,2.65,1.54,4.16.16,1.51.03,3.1-.39,4.78-.4,1.6-1.06,3.01-1.98,4.24-.92,1.22-2.09,2.2-3.49,2.93-1.41.73-3.03,1.17-4.89,1.31-1.85.14-3.86-.05-6.03-.59-2.25-.56-4.17-1.34-5.75-2.34-1.58-1-2.81-2.15-3.68-3.46-.87-1.31-1.42-2.72-1.65-4.21-.23-1.5-.15-3.05.25-4.65ZM522.62,343.15c-.4,1.48-.32,2.79.23,3.92.55,1.13,1.47,2.09,2.76,2.89,1.29.8,2.82,1.43,4.6,1.9,1.74.4,3.34.55,4.8.44,1.45-.11,2.68-.54,3.69-1.29,1.01-.74,1.68-1.86,2.02-3.36.4-1.49.32-2.79-.24-3.9-.56-1.12-1.46-2.07-2.7-2.85-1.25-.78-2.74-1.39-4.47-1.82-1.76-.44-3.39-.61-4.89-.5-1.49.1-2.75.52-3.77,1.24-1.02.73-1.7,1.84-2.04,3.34Z"/>
    <path class="st6" d="M539.63,367.53l-2.52,7.25-26.13-9.1,1.61-4.63,21.7,7.55.91-2.61,4.44,1.54Z"/>
    <path class="st6" d="M503.69,383.3c.69-1.53,1.61-2.81,2.74-3.85,1.13-1.04,2.46-1.78,3.99-2.24,1.53-.46,3.21-.59,5.04-.41s3.78.75,5.84,1.69c2.26,1.03,4.08,2.17,5.45,3.42,1.37,1.25,2.36,2.58,2.98,3.98.62,1.4.87,2.86.75,4.37-.12,1.51-.54,3.06-1.25,4.63-.68,1.5-1.59,2.77-2.72,3.81-1.13,1.04-2.45,1.79-3.97,2.25-1.52.46-3.19.6-5.04.41-1.85-.19-3.79-.75-5.82-1.68-2.11-.96-3.85-2.07-5.23-3.34s-2.37-2.63-2.99-4.07c-.62-1.45-.9-2.93-.86-4.44.04-1.52.41-3.02,1.09-4.53ZM507.98,385.21c-.66,1.39-.82,2.69-.48,3.9.34,1.21,1.07,2.33,2.19,3.34,1.12,1.01,2.52,1.92,4.18,2.7,1.64.71,3.18,1.15,4.64,1.3,1.45.15,2.74-.05,3.86-.59,1.12-.55,1.99-1.53,2.6-2.94.66-1.39.82-2.68.47-3.88-.35-1.2-1.06-2.3-2.14-3.3-1.08-1-2.44-1.87-4.07-2.61-1.65-.75-3.23-1.21-4.71-1.38-1.49-.17-2.8.01-3.93.54-1.13.53-2,1.5-2.61,2.91Z"/>
    <path class="st6" d="M520.29,412.26l-3.79,6.67-24.06-13.68,2.42-4.26,19.97,11.36,1.37-2.41,4.08,2.32Z"/>
    <path class="st6" d="M501.38,442.11l-4.63,6.12-22.06-16.7,2.96-3.91,18.32,13.87,1.67-2.21,3.74,2.83Z"/>
    <path class="st6" d="M462.33,446.09c1.13-1.24,2.39-2.18,3.78-2.82,1.4-.64,2.89-.94,4.48-.91,1.59.03,3.23.42,4.92,1.16,1.69.74,3.37,1.87,5.04,3.4,1.84,1.67,3.22,3.32,4.14,4.92.92,1.61,1.46,3.18,1.62,4.7.16,1.53-.05,2.99-.62,4.39-.58,1.4-1.45,2.74-2.61,4.03-1.11,1.22-2.36,2.15-3.76,2.79-1.4.64-2.89.95-4.47.92-1.58-.02-3.23-.41-4.92-1.16-1.7-.75-3.37-1.88-5.03-3.38-1.72-1.56-3.03-3.16-3.95-4.78-.92-1.63-1.45-3.23-1.59-4.79-.14-1.57.04-3.06.54-4.49.51-1.43,1.31-2.75,2.42-3.97ZM465.83,449.22c-1.05,1.12-1.61,2.31-1.66,3.57s.3,2.54,1.06,3.85c.75,1.31,1.8,2.6,3.15,3.86,1.34,1.18,2.68,2.07,4.01,2.66,1.33.59,2.62.8,3.86.62,1.24-.18,2.36-.84,3.38-2,1.05-1.12,1.6-2.3,1.64-3.55.04-1.25-.3-2.51-1.03-3.79-.72-1.28-1.75-2.52-3.07-3.73-1.34-1.22-2.7-2.14-4.06-2.76-1.37-.62-2.67-.85-3.91-.69-1.24.16-2.37.81-3.38,1.97Z"/>
    <path class="st6" d="M442.63,465.42c1.26-1.1,2.62-1.9,4.08-2.37,1.46-.48,2.98-.61,4.56-.4,1.58.21,3.17.78,4.76,1.71s3.13,2.24,4.63,3.95c1.64,1.87,2.82,3.66,3.55,5.36.73,1.7,1.09,3.32,1.08,4.85-.01,1.53-.38,2.96-1.12,4.29s-1.75,2.56-3.05,3.7c-1.24,1.09-2.59,1.87-4.05,2.35-1.46.48-2.97.62-4.54.41-1.57-.2-3.16-.77-4.76-1.71s-3.14-2.25-4.61-3.93c-1.53-1.75-2.66-3.48-3.38-5.2-.73-1.72-1.07-3.37-1.04-4.94.03-1.57.38-3.04,1.05-4.4.67-1.36,1.62-2.59,2.86-3.67ZM445.75,468.92c-1.18.99-1.86,2.11-2.05,3.36s.01,2.56.61,3.95c.6,1.39,1.5,2.78,2.69,4.19,1.2,1.33,2.43,2.36,3.69,3.1s2.51,1.09,3.76,1.05,2.44-.57,3.58-1.6c1.18-.99,1.85-2.11,2.03-3.34.18-1.24-.02-2.53-.59-3.89-.57-1.36-1.45-2.71-2.63-4.05-1.2-1.37-2.44-2.43-3.72-3.2s-2.55-1.15-3.8-1.13c-1.25.02-2.44.54-3.58,1.58Z"/>
    <path class="st6" d="M420.87,482.38c1.38-.96,2.82-1.59,4.32-1.9,1.5-.31,3.03-.27,4.57.12,1.55.39,3.06,1.14,4.53,2.24,1.48,1.1,2.86,2.58,4.15,4.45,1.42,2.04,2.39,3.95,2.92,5.73s.7,3.42.52,4.95c-.19,1.52-.72,2.9-1.6,4.14-.88,1.24-2.03,2.35-3.45,3.33-1.35.94-2.78,1.56-4.29,1.87-1.5.31-3.02.27-4.56-.11-1.54-.38-3.05-1.13-4.53-2.24-1.48-1.11-2.87-2.59-4.14-4.43-1.32-1.91-2.25-3.76-2.77-5.55-.53-1.79-.69-3.47-.47-5.03.21-1.56.73-2.98,1.54-4.26.81-1.28,1.9-2.39,3.26-3.33ZM423.58,486.22c-1.28.85-2.08,1.89-2.42,3.1-.33,1.22-.28,2.55.16,3.99.44,1.45,1.17,2.93,2.2,4.47,1.04,1.45,2.15,2.62,3.31,3.49,1.17.88,2.37,1.37,3.62,1.47,1.25.11,2.49-.29,3.74-1.19,1.28-.85,2.08-1.88,2.4-3.09.32-1.21.27-2.52-.15-3.93-.42-1.41-1.13-2.85-2.15-4.32-1.04-1.49-2.15-2.7-3.34-3.6-1.19-.91-2.41-1.43-3.65-1.55-1.24-.13-2.49.26-3.74,1.16Z"/>
    <path class="st6" d="M403.1,511.08c-1.15-2.09-.39-4.71,1.71-5.86,2.1-1.15,4.71-.39,5.86,1.71,1.15,2.1.39,4.71-1.71,5.86-2.17,1.19-4.75.31-5.86-1.71Z"/>
    <path class="st6" d="M376.89,506.5c1.55-.65,3.09-.97,4.62-.96,1.53,0,3.02.36,4.45,1.07,1.43.7,2.76,1.75,3.97,3.13,1.22,1.38,2.26,3.12,3.14,5.21.96,2.29,1.52,4.36,1.67,6.21.15,1.85-.02,3.49-.52,4.95-.5,1.45-1.3,2.69-2.42,3.72s-2.47,1.88-4.07,2.55c-1.52.64-3.05.95-4.58.95-1.53,0-3.02-.36-4.44-1.05s-2.75-1.73-3.97-3.13-2.27-3.13-3.13-5.19c-.9-2.14-1.42-4.14-1.56-6-.15-1.86.05-3.54.58-5.02.53-1.48,1.33-2.76,2.39-3.84,1.06-1.08,2.35-1.94,3.87-2.58ZM378.75,510.81c-1.43.57-2.43,1.41-3.01,2.53s-.8,2.43-.67,3.94c.13,1.51.54,3.11,1.23,4.83.72,1.64,1.56,3.01,2.52,4.1.96,1.1,2.04,1.83,3.24,2.19,1.2.36,2.5.23,3.91-.39,1.43-.57,2.42-1.41,2.99-2.53.56-1.12.79-2.41.67-3.87s-.52-3.03-1.21-4.67c-.7-1.68-1.54-3.08-2.52-4.22s-2.06-1.89-3.25-2.27-2.49-.26-3.9.36Z"/>
    <path class="st6" d="M369.34,539.03l-7.32,2.31-8.34-26.39,4.68-1.48,6.92,21.91,2.64-.83,1.41,4.48Z"/>
    <path class="st6" d="M335.25,519.65c1.64-.36,3.21-.39,4.72-.11s2.9.9,4.18,1.85c1.28.95,2.39,2.22,3.34,3.8.95,1.58,1.66,3.48,2.14,5.69.53,2.43.7,4.57.52,6.41-.18,1.84-.65,3.43-1.41,4.77-.75,1.34-1.77,2.41-3.05,3.22-1.28.81-2.77,1.4-4.46,1.77-1.61.35-3.17.38-4.68.1s-2.9-.9-4.18-1.83c-1.28-.94-2.39-2.2-3.34-3.8-.95-1.59-1.66-3.48-2.14-5.67-.5-2.27-.65-4.33-.45-6.19.19-1.86.69-3.47,1.48-4.83.79-1.36,1.81-2.48,3.05-3.35,1.24-.87,2.67-1.48,4.28-1.84ZM336.29,524.23c-1.51.3-2.65.95-3.42,1.95-.77,1-1.23,2.25-1.37,3.75-.14,1.5-.03,3.16.33,4.97.41,1.74.99,3.24,1.73,4.49.75,1.25,1.68,2.17,2.79,2.74,1.11.57,2.42.68,3.91.33,1.51-.3,2.64-.95,3.4-1.94.76-1,1.21-2.22,1.36-3.69.15-1.46.04-3.07-.34-4.82-.39-1.78-.96-3.31-1.71-4.6s-1.68-2.24-2.78-2.83-2.4-.71-3.9-.35Z"/>
    <path class="st6" d="M307.98,523.98c1.67-.17,3.24-.02,4.7.43,1.46.46,2.78,1.23,3.94,2.32s2.13,2.48,2.88,4.16c.76,1.68,1.25,3.65,1.48,5.9.25,2.47.18,4.62-.22,6.43-.39,1.81-1.04,3.33-1.94,4.58-.9,1.24-2.03,2.19-3.4,2.85-1.37.66-2.91,1.07-4.64,1.25-1.64.16-3.19.02-4.66-.44-1.46-.46-2.78-1.22-3.94-2.3-1.16-1.08-2.12-2.46-2.88-4.15-.76-1.69-1.25-3.65-1.48-5.88-.23-2.31-.15-4.37.26-6.2.41-1.83,1.08-3.37,2.02-4.63.94-1.26,2.08-2.25,3.41-2.98,1.33-.72,2.82-1.17,4.46-1.33ZM308.49,528.65c-1.53.13-2.74.64-3.62,1.54s-1.48,2.09-1.79,3.57c-.31,1.48-.39,3.14-.24,4.97.21,1.78.61,3.33,1.21,4.66.6,1.33,1.42,2.34,2.46,3.04,1.04.7,2.32.95,3.85.77,1.53-.13,2.73-.64,3.6-1.54.86-.9,1.46-2.07,1.77-3.51.32-1.44.39-3.05.21-4.83-.18-1.81-.57-3.4-1.18-4.77-.6-1.37-1.41-2.41-2.44-3.12-1.03-.71-2.3-.98-3.83-.79Z"/>
    <path class="st6" d="M273.95,552.85l-7.66-.4,1.45-27.63,4.9.26-1.2,22.95,2.76.14-.25,4.69Z"/>
    <path class="st6" d="M248.76,522.74c1.66.24,3.15.75,4.46,1.55,1.31.79,2.4,1.86,3.27,3.2.87,1.34,1.47,2.91,1.8,4.73.33,1.81.34,3.84.02,6.08-.35,2.46-.94,4.52-1.76,6.19-.82,1.66-1.81,2.99-2.99,3.98-1.17.99-2.5,1.64-3.99,1.95-1.48.31-3.08.34-4.8.09-1.63-.23-3.1-.75-4.42-1.55-1.31-.8-2.4-1.85-3.27-3.18-.87-1.33-1.47-2.9-1.8-4.73s-.34-3.85-.02-6.06c.33-2.3.91-4.28,1.74-5.95.83-1.67,1.86-3.01,3.07-4.01,1.22-1,2.56-1.69,4.02-2.07,1.47-.38,3.02-.46,4.65-.22ZM248.13,527.4c-1.52-.25-2.81-.04-3.88.63-1.07.67-1.93,1.68-2.6,3.04-.66,1.36-1.14,2.95-1.43,4.77-.23,1.78-.21,3.38.05,4.81.26,1.44.81,2.62,1.65,3.54.84.92,2.03,1.48,3.55,1.67,1.52.25,2.8.04,3.86-.63,1.06-.67,1.91-1.66,2.57-2.98.66-1.32,1.11-2.86,1.36-4.63.26-1.8.26-3.44,0-4.91s-.79-2.68-1.62-3.62c-.82-.94-2-1.5-3.53-1.69Z"/>
    <path class="st6" d="M221.74,517.27c1.62.43,3.04,1.11,4.25,2.05,1.21.94,2.17,2.13,2.88,3.55.71,1.43,1.12,3.06,1.25,4.9s-.1,3.85-.68,6.04c-.63,2.41-1.45,4.39-2.45,5.95-1,1.56-2.14,2.76-3.42,3.61-1.28.85-2.67,1.34-4.18,1.48-1.51.14-3.1-.01-4.78-.45-1.59-.42-3-1.1-4.21-2.04s-2.17-2.12-2.89-3.53c-.71-1.41-1.13-3.05-1.25-4.9-.12-1.85.11-3.86.67-6.02.59-2.24,1.4-4.15,2.41-5.72,1.02-1.57,2.19-2.78,3.51-3.63,1.32-.85,2.73-1.38,4.24-1.6s3.05-.11,4.64.31ZM220.59,521.82c-1.48-.42-2.79-.36-3.93.18s-2.11,1.44-2.93,2.72c-.81,1.27-1.47,2.8-1.96,4.58-.43,1.74-.6,3.33-.5,4.79.09,1.46.51,2.69,1.24,3.71.73,1.02,1.84,1.71,3.34,2.07,1.48.42,2.78.36,3.91-.19s2.09-1.43,2.89-2.66c.8-1.24,1.43-2.72,1.89-4.45.46-1.76.65-3.38.57-4.88s-.48-2.76-1.19-3.78c-.71-1.03-1.82-1.72-3.31-2.08Z"/>
    <path class="st6" d="M195.97,538.49l-7.21-2.62,9.45-26.01,4.61,1.67-7.85,21.6,2.6.94-1.6,4.41Z"/>
    <path class="st6" d="M172.68,515.53c.99-2.17,3.55-3.12,5.72-2.13,2.17.99,3.12,3.55,2.13,5.72-.99,2.17-3.55,3.12-5.72,2.13-2.25-1.03-3.09-3.63-2.13-5.72Z"/>
    <path class="st6" d="M160.68,491.76c1.44.85,2.62,1.9,3.53,3.13.91,1.24,1.51,2.64,1.8,4.21.29,1.57.25,3.25-.14,5.06-.38,1.8-1.15,3.68-2.3,5.63-1.27,2.14-2.59,3.82-3.98,5.05-1.39,1.22-2.81,2.07-4.28,2.54-1.46.47-2.94.56-4.43.28s-2.98-.86-4.47-1.74c-1.42-.84-2.58-1.88-3.49-3.11-.91-1.24-1.51-2.63-1.81-4.19s-.25-3.24.14-5.06c.39-1.81,1.15-3.69,2.29-5.61,1.18-2,2.47-3.61,3.88-4.84s2.86-2.07,4.37-2.53c1.51-.46,3.01-.59,4.51-.38,1.5.21,2.96.73,4.38,1.57ZM158.32,495.82c-1.31-.81-2.59-1.11-3.83-.9s-2.43.81-3.56,1.82c-1.13,1-2.17,2.29-3.14,3.87-.89,1.55-1.48,3.04-1.79,4.47s-.25,2.73.18,3.9c.43,1.18,1.31,2.14,2.64,2.9,1.31.81,2.58,1.1,3.81.89,1.23-.22,2.4-.81,3.51-1.78,1.11-.97,2.12-2.22,3.03-3.76.92-1.56,1.55-3.08,1.88-4.54s.29-2.78-.12-3.96c-.41-1.18-1.28-2.15-2.62-2.91Z"/>
    <path class="st6" d="M130.09,505.16l-6.23-4.48,16.17-22.46,3.98,2.87-13.42,18.65,2.25,1.62-2.74,3.81Z"/>
    <path class="st6" d="M125.21,466.22c1.27,1.1,2.24,2.34,2.91,3.72.67,1.38,1.01,2.86,1.02,4.46,0,1.59-.34,3.24-1.04,4.95-.7,1.7-1.79,3.41-3.27,5.12-1.63,1.88-3.24,3.3-4.82,4.25-1.59.96-3.14,1.53-4.66,1.73-1.52.2-2.99.02-4.41-.52-1.42-.54-2.78-1.38-4.09-2.52-1.25-1.08-2.21-2.31-2.88-3.69-.67-1.38-1.02-2.86-1.03-4.44-.01-1.58.33-3.23,1.04-4.95.71-1.72,1.8-3.42,3.26-5.11,1.52-1.75,3.08-3.11,4.69-4.07,1.61-.96,3.19-1.53,4.75-1.71s3.06-.04,4.5.44,2.78,1.25,4.03,2.33ZM122.16,469.8c-1.14-1.03-2.34-1.55-3.6-1.57s-2.54.36-3.83,1.15c-1.29.79-2.55,1.87-3.78,3.24-1.15,1.37-2,2.73-2.56,4.08-.56,1.35-.73,2.64-.53,3.87.21,1.23.9,2.34,2.08,3.33,1.14,1.03,2.34,1.55,3.59,1.56,1.25,0,2.51-.36,3.77-1.12,1.26-.75,2.48-1.81,3.65-3.16,1.19-1.37,2.08-2.75,2.66-4.13.58-1.38.78-2.69.6-3.92s-.87-2.35-2.05-3.33Z"/>
    <path class="st6" d="M105.41,447c1.13,1.23,1.96,2.58,2.47,4.02.51,1.45.68,2.96.51,4.55-.18,1.58-.71,3.18-1.6,4.8s-2.17,3.19-3.83,4.72c-1.83,1.68-3.59,2.91-5.27,3.68s-3.29,1.17-4.83,1.19c-1.53.02-2.97-.31-4.32-1.01-1.34-.7-2.6-1.69-3.78-2.96-1.12-1.21-1.93-2.54-2.44-3.99s-.69-2.96-.52-4.53c.17-1.58.7-3.18,1.6-4.8.9-1.62,2.17-3.19,3.82-4.71,1.71-1.57,3.41-2.74,5.12-3.51s3.34-1.15,4.92-1.16c1.57,0,3.05.31,4.43.94s2.63,1.55,3.74,2.77ZM101.98,450.2c-1.02-1.15-2.15-1.81-3.4-1.97s-2.56.07-3.93.71c-1.37.63-2.75,1.57-4.12,2.79-1.3,1.23-2.3,2.48-3.01,3.76-.71,1.28-1.03,2.54-.96,3.79.07,1.25.63,2.43,1.69,3.54,1.02,1.15,2.15,1.8,3.39,1.95,1.24.15,2.53-.08,3.87-.68,1.34-.61,2.67-1.52,3.99-2.73,1.34-1.23,2.38-2.5,3.11-3.8.74-1.3,1.08-2.58,1.04-3.83-.05-1.25-.6-2.43-1.66-3.54Z"/>
    <path class="st6" d="M61.91,437.05l-4.26-6.38,23.01-15.37,2.73,4.08-19.1,12.77,1.54,2.3-3.9,2.61Z"/>
    <path class="st6" d="M52.14,421.91l-3.83-6.65,23.98-13.8,2.45,4.25-19.91,11.46,1.38,2.4-4.07,2.34Z"/>
    <path class="st6" d="M43.38,406.13l-3.37-6.89,24.86-12.16,2.16,4.41-20.64,10.1,1.22,2.48-4.22,2.06Z"/>
    <path class="st6" d="M57.47,369.51c.6,1.57.87,3.12.81,4.65-.06,1.53-.46,3-1.21,4.41-.75,1.41-1.84,2.7-3.26,3.87-1.42,1.17-3.19,2.16-5.31,2.97-2.32.89-4.41,1.37-6.26,1.47-1.85.09-3.49-.14-4.93-.68s-2.65-1.39-3.64-2.54c-.99-1.15-1.79-2.53-2.41-4.15-.59-1.54-.85-3.08-.79-4.61.06-1.53.46-3,1.19-4.4s1.82-2.69,3.26-3.87c1.44-1.18,3.2-2.16,5.29-2.96,2.17-.83,4.19-1.28,6.05-1.36,1.87-.08,3.53.16,4.99.74,1.46.58,2.72,1.42,3.76,2.51,1.05,1.1,1.86,2.42,2.45,3.96ZM53.09,371.22c-.52-1.45-1.33-2.48-2.43-3.09-1.1-.61-2.41-.88-3.92-.8s-3.13.44-4.87,1.07c-1.66.66-3.06,1.46-4.18,2.38s-1.89,1.98-2.3,3.16c-.4,1.18-.31,2.49.26,3.92.52,1.45,1.33,2.47,2.43,3.07,1.1.6,2.38.87,3.85.8,1.47-.07,3.04-.42,4.71-1.06,1.7-.65,3.13-1.44,4.3-2.38,1.17-.94,1.96-2,2.38-3.17.42-1.18.34-2.48-.23-3.91Z"/>
    <path class="st6" d="M33.87,345.36c2.31-.61,4.67.76,5.28,3.07s-.76,4.67-3.07,5.28-4.67-.76-5.28-3.07c-.63-2.39.84-4.69,3.07-5.28Z"/>
    <path class="st6" d="M44.61,321.03c.26,1.66.2,3.23-.18,4.72-.38,1.49-1.08,2.84-2.1,4.06-1.03,1.22-2.36,2.26-3.99,3.11-1.63.85-3.57,1.45-5.81,1.8-2.46.38-4.6.43-6.43.13-1.83-.29-3.39-.86-4.68-1.69-1.29-.83-2.3-1.91-3.03-3.24-.73-1.33-1.23-2.85-1.5-4.56-.25-1.63-.19-3.19.18-4.67.38-1.49,1.07-2.84,2.08-4.06,1.01-1.22,2.34-2.25,3.99-3.11,1.65-.85,3.58-1.45,5.79-1.79,2.29-.36,4.36-.38,6.2-.08s3.42.89,4.73,1.77c1.31.87,2.36,1.95,3.16,3.24.8,1.29,1.32,2.75,1.57,4.38ZM39.98,321.8c-.21-1.52-.79-2.7-1.74-3.53-.95-.83-2.17-1.36-3.66-1.59-1.49-.23-3.15-.22-4.98.03-1.76.3-3.29.79-4.59,1.46-1.3.67-2.26,1.54-2.9,2.62-.64,1.08-.82,2.37-.56,3.89.21,1.52.79,2.69,1.74,3.51.95.81,2.15,1.34,3.6,1.58s3.06.22,4.83-.05c1.8-.28,3.36-.76,4.7-1.43,1.34-.67,2.33-1.54,2.99-2.61.66-1.06.85-2.35.58-3.87Z"/>
    <path class="st6" d="M14.83,305.92l-.49-7.66,27.62-1.78.32,4.9-22.93,1.48.18,2.76-4.69.3Z"/>
    <path class="st6" d="M41.79,277.39c-.04,1.68-.38,3.21-1.01,4.61s-1.57,2.6-2.79,3.62c-1.23,1.02-2.72,1.8-4.48,2.34-1.76.54-3.77.79-6.04.73-2.49-.06-4.6-.4-6.35-1.02-1.75-.62-3.18-1.45-4.3-2.5-1.12-1.05-1.92-2.29-2.4-3.73-.48-1.44-.7-3.02-.66-4.76.04-1.65.38-3.17,1.01-4.57.64-1.4,1.56-2.6,2.77-3.62s2.71-1.8,4.48-2.34c1.77-.54,3.78-.79,6.02-.73,2.32.06,4.36.4,6.12,1.03,1.76.63,3.21,1.49,4.34,2.58,1.13,1.09,1.98,2.34,2.53,3.75.55,1.41.81,2.94.77,4.59ZM37.09,277.32c.07-1.54-.3-2.8-1.08-3.78-.79-.98-1.89-1.72-3.32-2.22s-3.06-.78-4.91-.85c-1.79-.02-3.38.19-4.78.62s-2.5,1.11-3.32,2.06c-.82.94-1.23,2.19-1.24,3.72-.07,1.54.3,2.79,1.08,3.76s1.87,1.7,3.26,2.2c1.39.5,2.97.76,4.76.81,1.82.04,3.44-.15,4.88-.57,1.44-.43,2.57-1.1,3.41-2.03.83-.93,1.26-2.16,1.27-3.7Z"/>
    <path class="st6" d="M44.02,249.9c-.23,1.66-.74,3.15-1.53,4.47-.79,1.32-1.85,2.41-3.19,3.28-1.33.87-2.91,1.48-4.72,1.82-1.81.34-3.84.36-6.08.04-2.46-.34-4.53-.92-6.19-1.73-1.67-.81-3-1.8-3.99-2.97-.99-1.17-1.65-2.49-1.97-3.98-.32-1.48-.36-3.08-.12-4.8.23-1.63.74-3.11,1.52-4.42.79-1.32,1.84-2.41,3.16-3.29,1.32-.87,2.89-1.48,4.72-1.82s3.85-.36,6.06-.05c2.3.32,4.29.89,5.96,1.72,1.68.82,3.02,1.84,4.02,3.05,1,1.21,1.7,2.55,2.09,4.02s.47,3.01.24,4.65ZM39.36,249.3c.24-1.52.02-2.81-.65-3.88-.67-1.07-1.69-1.93-3.05-2.58s-2.96-1.12-4.78-1.4c-1.78-.22-3.38-.19-4.81.07-1.43.27-2.61.82-3.53,1.67-.92.85-1.47,2.03-1.66,3.56-.24,1.52-.02,2.81.65,3.86.67,1.05,1.67,1.9,2.99,2.55,1.32.65,2.87,1.1,4.64,1.34,1.8.25,3.44.24,4.91-.02,1.48-.26,2.68-.81,3.61-1.64.93-.83,1.49-2.01,1.68-3.53Z"/>
    <path class="st6" d="M53.76,207.89c-.52,1.59-1.29,2.97-2.3,4.12-1.01,1.15-2.25,2.04-3.72,2.66-1.47.62-3.12.94-4.97.95-1.84.01-3.84-.34-5.99-1.04-2.36-.78-4.29-1.71-5.79-2.81-1.49-1.09-2.63-2.3-3.4-3.63-.77-1.33-1.18-2.75-1.22-4.26-.05-1.52.2-3.1.74-4.74.52-1.57,1.28-2.93,2.29-4.08,1.01-1.15,2.25-2.04,3.7-2.67,1.46-.62,3.11-.94,4.97-.95,1.86,0,3.85.34,5.97,1.04,2.2.72,4.06,1.64,5.56,2.75,1.5,1.11,2.64,2.35,3.41,3.73s1.22,2.81,1.34,4.32c.12,1.51-.08,3.05-.59,4.62ZM49.28,206.46c.51-1.45.53-2.76.06-3.93-.47-1.17-1.31-2.2-2.54-3.09-1.22-.89-2.71-1.63-4.45-2.24-1.71-.53-3.29-.8-4.75-.79-1.46,0-2.72.34-3.78,1.01-1.06.67-1.81,1.74-2.27,3.2-.51,1.45-.52,2.76-.05,3.91.47,1.16,1.3,2.17,2.49,3.05s2.63,1.59,4.32,2.15c1.73.57,3.34.85,4.84.86,1.5,0,2.78-.31,3.85-.96,1.07-.65,1.83-1.71,2.28-3.18Z"/>
    <path class="st6" d="M34.12,180.89l3.05-7.04,25.39,11-1.95,4.5-21.08-9.13-1.1,2.54-4.31-1.87Z"/>
    <path class="st6" d="M41.53,164.49l3.52-6.82,24.6,12.68-2.25,4.36-20.42-10.52-1.27,2.46-4.17-2.15Z"/>
    <path class="st6" d="M79.33,153.89c-.9,1.42-1.98,2.56-3.25,3.43-1.26.87-2.69,1.42-4.26,1.66-1.58.24-3.26.14-5.05-.3-1.79-.44-3.64-1.27-5.55-2.49-2.1-1.33-3.74-2.72-4.92-4.15-1.18-1.43-1.98-2.88-2.4-4.36-.42-1.48-.46-2.95-.14-4.43.33-1.48.96-2.95,1.89-4.41.89-1.39,1.96-2.52,3.22-3.39,1.26-.87,2.68-1.43,4.24-1.67s3.25-.15,5.05.3c1.8.45,3.64,1.27,5.53,2.47,1.96,1.25,3.53,2.59,4.71,4.04,1.18,1.45,1.98,2.93,2.39,4.45.41,1.52.49,3.03.23,4.52-.26,1.49-.82,2.94-1.71,4.33ZM75.35,151.41c.85-1.28,1.19-2.55,1.02-3.8-.17-1.25-.73-2.45-1.7-3.62-.97-1.16-2.22-2.25-3.76-3.26-1.52-.94-2.99-1.58-4.41-1.94-1.41-.35-2.72-.34-3.91.05-1.19.39-2.18,1.24-2.99,2.55-.85,1.28-1.19,2.54-1.01,3.78.17,1.24.73,2.42,1.66,3.56.93,1.14,2.15,2.19,3.66,3.15,1.53.98,3.02,1.65,4.48,2.03,1.45.38,2.77.38,3.97.01s2.19-1.21,2.99-2.52Z"/>
    <path class="st6" d="M84.58,120.55c1.87,1.49,2.19,4.2.7,6.07-1.48,1.87-4.19,2.19-6.07.7s-2.19-4.19-.7-6.07c1.54-1.94,4.26-2.13,6.07-.7Z"/>
    <path class="st6" d="M110.49,114.58c-1.17,1.2-2.47,2.1-3.88,2.68-1.42.59-2.92.84-4.51.75-1.59-.09-3.22-.53-4.88-1.33s-3.3-1.99-4.92-3.57c-1.78-1.74-3.1-3.43-3.96-5.07-.86-1.64-1.34-3.22-1.45-4.76-.11-1.53.15-2.99.78-4.37.63-1.38,1.54-2.69,2.75-3.93,1.15-1.18,2.44-2.06,3.85-2.66,1.42-.59,2.92-.85,4.5-.77,1.58.08,3.21.53,4.88,1.34s3.3,2,4.9,3.56c1.66,1.62,2.92,3.26,3.78,4.92s1.33,3.28,1.42,4.85c.09,1.57-.15,3.06-.7,4.47s-1.41,2.7-2.56,3.89ZM107.1,111.33c1.09-1.08,1.69-2.25,1.78-3.51.09-1.26-.21-2.55-.92-3.89-.71-1.34-1.71-2.66-3.01-3.97-1.3-1.23-2.61-2.16-3.92-2.8-1.31-.64-2.59-.89-3.83-.75-1.24.13-2.39.76-3.45,1.88-1.09,1.08-1.68,2.24-1.77,3.49s.21,2.52.89,3.83,1.66,2.58,2.94,3.83c1.3,1.27,2.62,2.24,3.96,2.9s2.63.94,3.88.83c1.24-.11,2.39-.73,3.45-1.85Z"/>
    <path class="st6" d="M104.74,81.69l5.83-4.99,17.98,21.03-3.73,3.19-14.93-17.46-2.1,1.8-3.05-3.57Z"/>
    <path class="st6" d="M143.72,86.17c-1.37.97-2.8,1.62-4.3,1.95-1.5.33-3.02.3-4.57-.07-1.55-.37-3.07-1.1-4.56-2.19-1.49-1.08-2.89-2.55-4.2-4.4-1.44-2.03-2.44-3.93-2.99-5.69s-.74-3.41-.57-4.94c.17-1.52.69-2.91,1.55-4.16.86-1.25,2-2.37,3.41-3.37,1.34-.95,2.77-1.59,4.27-1.92,1.5-.33,3.02-.31,4.56.05,1.54.36,3.06,1.09,4.56,2.19,1.5,1.1,2.89,2.56,4.19,4.38,1.34,1.89,2.29,3.73,2.84,5.52.55,1.79.73,3.46.53,5.02-.2,1.56-.69,2.99-1.49,4.27-.8,1.29-1.87,2.41-3.22,3.36ZM140.97,82.37c1.27-.87,2.06-1.91,2.38-3.13.32-1.22.25-2.55-.21-3.99s-1.21-2.92-2.25-4.44c-1.06-1.44-2.18-2.59-3.35-3.46s-2.39-1.34-3.64-1.43c-1.25-.09-2.49.32-3.73,1.23-1.27.87-2.06,1.91-2.36,3.12s-.24,2.52.19,3.93,1.17,2.84,2.2,4.3c1.05,1.48,2.18,2.67,3.38,3.57s2.42,1.4,3.67,1.51c1.24.11,2.48-.29,3.72-1.2Z"/>
    <path class="st6" d="M167.09,71.52c-1.47.81-2.97,1.29-4.49,1.44-1.53.15-3.04-.04-4.54-.59s-2.92-1.44-4.28-2.69c-1.36-1.25-2.58-2.86-3.67-4.85-1.2-2.18-1.97-4.18-2.32-6s-.35-3.48,0-4.97c.34-1.5,1.01-2.81,2.01-3.95,1-1.14,2.26-2.13,3.78-2.96,1.44-.8,2.93-1.27,4.46-1.42,1.53-.15,3.04.04,4.53.57,1.49.54,2.92,1.43,4.28,2.69,1.36,1.26,2.58,2.87,3.66,4.83,1.12,2.03,1.85,3.97,2.19,5.81.34,1.84.33,3.52-.04,5.05-.37,1.53-1.03,2.89-1.97,4.07s-2.13,2.18-3.58,2.97ZM164.79,67.43c1.36-.72,2.27-1.66,2.72-2.84s.54-2.5.25-3.99c-.29-1.48-.87-3.04-1.73-4.67-.89-1.55-1.87-2.83-2.94-3.82-1.07-.99-2.22-1.6-3.45-1.83s-2.51.03-3.84.8c-1.36.72-2.26,1.66-2.7,2.83-.44,1.17-.53,2.48-.26,3.92.27,1.45.84,2.95,1.7,4.52.88,1.59,1.86,2.9,2.95,3.93,1.09,1.03,2.25,1.67,3.47,1.92,1.22.25,2.5,0,3.83-.77Z"/>
    <path class="st6" d="M187.16,31.64l7.21-2.61,9.42,26.02-4.61,1.67-7.82-21.6-2.6.94-1.6-4.41Z"/>
    <path class="st6" d="M204.18,25.78l7.37-2.12,7.65,26.59-4.71,1.36-6.35-22.08-2.66.76-1.3-4.51Z"/>
    <path class="st6" d="M221.6,21.06l7.5-1.62,5.84,27.05-4.8,1.04-4.85-22.46-2.7.58-.99-4.59Z"/>
    <path class="st6" d="M239.26,17.53l7.59-1.11,4.01,27.38-4.85.71-3.33-22.73-2.74.4-.68-4.65Z"/>
    <path class="st6" d="M270.69,26.69c.16,2.39-1.64,4.44-4.03,4.59-2.39.16-4.44-1.64-4.59-4.03-.16-2.39,1.64-4.44,4.03-4.59,2.47-.16,4.44,1.73,4.59,4.03Z"/>
  </g>
</svg>